<svg width="806" height="60" viewBox="0 0 806 60" fill="none" xmlns="http://www.w3.org/2000/svg">
<path d="M59.0781 19.1227H35.7581C34.7803 19.1227 34.2915 19.6849 34.2915 20.8094C34.2915 21.1027 34.3648 21.2983 34.5115 21.3961L45.1448 29.3894C49.5448 32.7138 51.7448 37.1627 51.7448 42.7361C51.7448 47.3805 49.8381 51.3405 46.0248 54.6161C42.2603 57.8427 38.0315 59.4561 33.3381 59.4561H0.411458V41.1227H22.1915C23.1692 41.1227 23.6581 40.5361 23.6581 39.3627C23.6581 39.1183 23.5848 38.9472 23.4381 38.8494L13.5381 31.5894C9.6759 28.7538 7.74479 24.4272 7.74479 18.6094C7.74479 13.8183 9.60257 9.66272 13.3181 6.14272C17.0337 2.57383 21.287 0.789386 26.0781 0.789386H59.0781V19.1227ZM110.354 19.1227H90.1875V59.4561H68.1875V19.1227H48.0208V0.789386H110.354V19.1227ZM170.74 59.4561H148.006L146.1 52.1227H129.38L127.473 59.4561H104.74L120.14 0.789386H155.34L170.74 59.4561ZM142.213 37.4561L137.74 20.3694L133.266 37.4561H142.213ZM240.435 59.4561H221.368C216.479 59.4561 211.59 57.0116 206.702 52.1227L196.435 41.8561V59.4561H174.435V27.9227H210.368C211.542 27.9227 212.568 27.4827 213.448 26.6027C214.328 25.7227 214.768 24.6961 214.768 23.5227C214.768 22.3494 214.328 21.3227 213.448 20.4427C212.568 19.5627 211.542 19.1227 210.368 19.1227H174.435V0.789386H216.235C221.662 0.789386 226.428 2.74494 230.535 6.65605C234.69 10.5672 236.768 15.2116 236.768 20.5894C236.768 24.5494 235.595 28.2161 233.248 31.5894C230.902 34.9627 227.87 37.3583 224.155 38.7761C225.084 40.3405 226.355 41.1227 227.968 41.1227H240.435V59.4561ZM368.064 0.789386L352.664 59.4561H327.73L322.597 39.8761L317.464 59.4561H292.53L277.13 0.789386H299.864L304.997 20.3694L310.13 0.789386H335.064L340.197 20.3694L345.33 0.789386H368.064ZM426.06 59.4561H403.327L401.42 52.1227H384.7L382.793 59.4561H360.06L375.46 0.789386H410.66L426.06 59.4561ZM397.533 37.4561L393.06 20.3694L388.587 37.4561H397.533ZM495.755 59.4561H476.689C471.8 59.4561 466.911 57.0116 462.022 52.1227L451.755 41.8561V59.4561H429.755V27.9227H465.689C466.862 27.9227 467.889 27.4827 468.769 26.6027C469.649 25.7227 470.089 24.6961 470.089 23.5227C470.089 22.3494 469.649 21.3227 468.769 20.4427C467.889 19.5627 466.862 19.1227 465.689 19.1227H429.755V0.789386H471.555C476.982 0.789386 481.749 2.74494 485.855 6.65605C490.011 10.5672 492.089 15.2116 492.089 20.5894C492.089 24.5494 490.915 28.2161 488.569 31.5894C486.222 34.9627 483.191 37.3583 479.475 38.7761C480.404 40.3405 481.675 41.1227 483.289 41.1227H495.755V59.4561ZM552.617 19.1227H529.297C528.319 19.1227 527.831 19.6849 527.831 20.8094C527.831 21.1027 527.904 21.2983 528.051 21.3961L538.684 29.3894C543.084 32.7138 545.284 37.1627 545.284 42.7361C545.284 47.3805 543.377 51.3405 539.564 54.6161C535.799 57.8427 531.571 59.4561 526.877 59.4561H493.951V41.1227H515.731C516.708 41.1227 517.197 40.5361 517.197 39.3627C517.197 39.1183 517.124 38.9472 516.977 38.8494L507.077 31.5894C503.215 28.7538 501.284 24.4272 501.284 18.6094C501.284 13.8183 503.142 9.66272 506.857 6.14272C510.573 2.57383 514.826 0.789386 519.617 0.789386H552.617V19.1227ZM647.922 19.1227H624.602C623.624 19.1227 623.135 19.6849 623.135 20.8094C623.135 21.1027 623.209 21.2983 623.355 21.3961L633.989 29.3894C638.389 32.7138 640.589 37.1627 640.589 42.7361C640.589 47.3805 638.682 51.3405 634.869 54.6161C631.104 57.8427 626.875 59.4561 622.182 59.4561H589.255V41.1227H611.035C612.013 41.1227 612.502 40.5361 612.502 39.3627C612.502 39.1183 612.429 38.9472 612.282 38.8494L602.382 31.5894C598.52 28.7538 596.589 24.4272 596.589 18.6094C596.589 13.8183 598.446 9.66272 602.162 6.14272C605.877 2.57383 610.131 0.789386 614.922 0.789386H647.922V19.1227ZM713.893 59.4561H691.893V37.8227H673.56V59.4561H651.56V0.789386H673.56V22.4227H691.893V0.789386H713.893V59.4561ZM739.56 59.4561H717.56V0.789386H739.56V59.4561ZM805.589 21.3227C805.589 26.7005 803.511 31.4672 799.355 35.6227C795.2 39.7783 790.433 41.8561 785.055 41.8561H765.255V59.4561H743.255V27.9227H779.189C780.362 27.9227 781.389 27.4827 782.269 26.6027C783.149 25.7227 783.589 24.6961 783.589 23.5227C783.589 22.3494 783.149 21.3227 782.269 20.4427C781.389 19.5627 780.362 19.1227 779.189 19.1227H743.255V0.789386H785.055C790.433 0.789386 795.2 2.86716 799.355 7.02272C803.511 11.1783 805.589 15.9449 805.589 21.3227Z" fill="#FBFBFB"/>
</svg>
