<svg width="357" height="64" viewBox="0 0 357 64" fill="none" xmlns="http://www.w3.org/2000/svg">
<g filter="url(#filter0_d_154_821)">
<path d="M46.4453 48H33.4453C28.912 48 24.9786 46.48 21.6453 43.44C18.1786 40.2933 16.4453 36.48 16.4453 32C16.4453 27.52 18.1786 23.7067 21.6453 20.56C24.9786 17.52 28.912 16 33.4453 16H46.4453V26H33.4453C31.8186 26 30.3786 26.6 29.1253 27.8C27.872 28.9733 27.2453 30.3733 27.2453 32C27.2453 33.6267 27.8586 35.04 29.0853 36.24C30.3386 37.4133 31.792 38 33.4453 38H46.4453V48ZM82.4609 48H70.4609V36.2H60.4609V48H48.4609V16H60.4609V27.8H70.4609V16H82.4609V48ZM116.461 48H84.4609V16H116.461V26H96.4609V27.8H108.461V36.2H96.4609V38H116.461V48ZM168.045 16L159.645 48H146.045L143.245 37.32L140.445 48H126.845L118.445 16H130.845L133.645 26.68L136.445 16H150.045L152.845 26.68L155.645 16H168.045ZM204.055 38.68C204.055 41.4267 202.841 43.7067 200.415 45.52C198.201 47.1733 195.681 48 192.855 48H170.055V16H190.855C193.708 16 196.241 16.84 198.455 18.52C200.855 20.36 202.055 22.6533 202.055 25.4C202.055 27.5333 201.401 29.4267 200.095 31.08C202.735 32.8667 204.055 35.4 204.055 38.68ZM191.655 26.4C191.655 25.76 191.415 25.2 190.935 24.72C190.455 24.24 189.895 24 189.255 24H181.255V28.8H189.255C189.895 28.8 190.455 28.56 190.935 28.08C191.415 27.6 191.655 27.04 191.655 26.4ZM192.055 37.6C192.055 36.96 191.815 36.4 191.335 35.92C190.855 35.44 190.295 35.2 189.655 35.2H181.255V40H189.655C190.295 40 190.855 39.76 191.335 39.28C191.815 38.8 192.055 38.24 192.055 37.6ZM240.977 48H228.577L227.537 44H218.417L217.377 48H204.977L213.377 16H232.577L240.977 48ZM225.417 36L222.977 26.68L220.537 36H225.417ZM270.508 48H257.508C252.974 48 249.041 46.48 245.708 43.44C242.241 40.2933 240.508 36.48 240.508 32C240.508 27.52 242.241 23.7067 245.708 20.56C249.041 17.52 252.974 16 257.508 16H270.508V26H257.508C255.881 26 254.441 26.6 253.188 27.8C251.934 28.9733 251.308 30.3733 251.308 32C251.308 33.6267 251.921 35.04 253.148 36.24C254.401 37.4133 255.854 38 257.508 38H270.508V48ZM302.523 48H289.523C284.99 48 281.057 46.48 277.723 43.44C274.257 40.2933 272.523 36.48 272.523 32C272.523 27.52 274.257 23.7067 277.723 20.56C281.057 17.52 284.99 16 289.523 16H302.523V26H289.523C287.897 26 286.457 26.6 285.203 27.8C283.95 28.9733 283.323 30.3733 283.323 32C283.323 33.6267 283.937 35.04 285.163 36.24C286.417 37.4133 287.87 38 289.523 38H302.523V48ZM340.539 48H328.139L327.099 44H317.979L316.939 48H304.539L312.939 16H332.139L340.539 48ZM324.979 36L322.539 26.68L320.099 36H324.979Z" fill="#FBFBFB"/>
</g>
<defs>
<filter id="filter0_d_154_821" x="0.445312" y="0" width="356.094" height="64" filterUnits="userSpaceOnUse" color-interpolation-filters="sRGB">
<feFlood flood-opacity="0" result="BackgroundImageFix"/>
<feColorMatrix in="SourceAlpha" type="matrix" values="0 0 0 0 0 0 0 0 0 0 0 0 0 0 0 0 0 0 127 0" result="hardAlpha"/>
<feOffset/>
<feGaussianBlur stdDeviation="8"/>
<feComposite in2="hardAlpha" operator="out"/>
<feColorMatrix type="matrix" values="0 0 0 0 0.498039 0 0 0 0 0.745098 0 0 0 0 0.796078 0 0 0 1 0"/>
<feBlend mode="normal" in2="BackgroundImageFix" result="effect1_dropShadow_154_821"/>
<feBlend mode="normal" in="SourceGraphic" in2="effect1_dropShadow_154_821" result="shape"/>
</filter>
</defs>
</svg>
