<svg width="406" height="64" viewBox="0 0 406 64" fill="none" xmlns="http://www.w3.org/2000/svg">
<g filter="url(#filter0_d_154_822)">
<path d="M50.3125 32C50.3125 36.48 48.5792 40.2933 45.1125 43.44C41.7792 46.48 37.8458 48 33.3125 48H16.3125V16H33.3125C37.8458 16 41.7792 17.52 45.1125 20.56C48.5792 23.7067 50.3125 27.52 50.3125 32ZM39.5125 32C39.5125 30.3733 38.8858 28.9733 37.6325 27.8C36.3792 26.6 34.9392 26 33.3125 26H27.5125V38H33.3125C34.9658 38 36.4058 37.4133 37.6325 36.24C38.8858 35.04 39.5125 33.6267 39.5125 32ZM85.8281 48H73.4281L72.3881 44H63.2681L62.2281 48H49.8281L58.2281 16H77.4281L85.8281 48ZM70.2681 36L67.8281 26.68L65.3881 36H70.2681ZM123.844 48H113.444C110.777 48 108.11 46.6667 105.444 44L99.8438 38.4V48H87.8438V16H110.644C113.604 16 116.204 17.0667 118.444 19.2C120.71 21.3333 121.844 23.8667 121.844 26.8C121.844 28.96 121.204 30.96 119.924 32.8C118.644 34.64 116.99 35.9467 114.964 36.72C115.444 37.5733 116.137 38 117.044 38H123.844V48ZM109.844 27.2C109.844 26.56 109.604 26 109.124 25.52C108.644 25.04 108.084 24.8 107.444 24.8H99.8438V29.6H107.444C108.084 29.6 108.644 29.36 109.124 28.88C109.604 28.4 109.844 27.84 109.844 27.2ZM158.031 26H147.031V48H135.031V26H124.031V16H158.031V26ZM194.031 48H182.031V36.2H172.031V48H160.031V16H172.031V27.8H182.031V16H194.031V48ZM250.031 16L241.631 48H222.431L214.031 16H226.431L232.031 37.32L237.631 16H250.031ZM281.672 48H269.272L268.232 44H259.112L258.072 48H245.672L254.072 16H273.272L281.672 48ZM266.112 36L263.672 26.68L261.232 36H266.112ZM317.688 32C317.688 36.48 315.954 40.2933 312.488 43.44C309.154 46.48 305.221 48 300.688 48H283.688V16H300.688C305.221 16 309.154 17.52 312.488 20.56C315.954 23.7067 317.688 27.52 317.688 32ZM306.887 32C306.887 30.3733 306.261 28.9733 305.008 27.8C303.754 26.6 302.314 26 300.688 26H294.887V38H300.688C302.341 38 303.781 37.4133 305.008 36.24C306.261 35.04 306.887 33.6267 306.887 32ZM351.688 48H319.688V16H351.688V26H331.688V27.8H343.688V36.2H331.688V38H351.688V48ZM389.672 48H379.272C376.605 48 373.939 46.6667 371.272 44L365.672 38.4V48H353.672V16H376.472C379.432 16 382.032 17.0667 384.272 19.2C386.539 21.3333 387.672 23.8667 387.672 26.8C387.672 28.96 387.032 30.96 385.752 32.8C384.472 34.64 382.819 35.9467 380.792 36.72C381.272 37.5733 381.965 38 382.872 38H389.672V48ZM375.672 27.2C375.672 26.56 375.432 26 374.952 25.52C374.472 25.04 373.912 24.8 373.272 24.8H365.672V29.6H373.272C373.912 29.6 374.472 29.36 374.952 28.88C375.432 28.4 375.672 27.84 375.672 27.2Z" fill="#FBFBFB"/>
</g>
<defs>
<filter id="filter0_d_154_822" x="0.3125" y="0" width="405.359" height="64" filterUnits="userSpaceOnUse" color-interpolation-filters="sRGB">
<feFlood flood-opacity="0" result="BackgroundImageFix"/>
<feColorMatrix in="SourceAlpha" type="matrix" values="0 0 0 0 0 0 0 0 0 0 0 0 0 0 0 0 0 0 127 0" result="hardAlpha"/>
<feOffset/>
<feGaussianBlur stdDeviation="8"/>
<feComposite in2="hardAlpha" operator="out"/>
<feColorMatrix type="matrix" values="0 0 0 0 0.498039 0 0 0 0 0.745098 0 0 0 0 0.796078 0 0 0 1 0"/>
<feBlend mode="normal" in2="BackgroundImageFix" result="effect1_dropShadow_154_822"/>
<feBlend mode="normal" in="SourceGraphic" in2="effect1_dropShadow_154_822" result="shape"/>
</filter>
</defs>
</svg>
