<svg width="254" height="324" viewBox="0 0 254 324" fill="none" xmlns="http://www.w3.org/2000/svg">
<g clip-path="url(#clip0_167_937)">
<path d="M18.152 306.096V308.892C16.648 308.644 15.448 308.356 14.552 308.028C13.656 307.7 12.36 307.004 10.664 305.94V308.34C12.008 309.236 13.204 309.9 14.252 310.332C15.3 310.756 16.6 311.128 18.152 311.448V315.024H10.664V317.7H27.896V309.672L24.752 309.66C23.328 309.596 21.952 309.452 20.624 309.228L20.612 306.096H18.152ZM25.244 315.024H20.612V312.012C21.692 312.156 22.816 312.244 23.984 312.276H25.256L25.244 315.024Z" fill="#7FBECB"/>
<path d="M33.7964 306.036L29.8244 315.312L31.4084 317.7H44.2124L45.8564 315.276L42.0284 306.036H33.7964ZM43.0724 315.144H32.6204L35.3324 308.724H40.3844L43.0724 315.144Z" fill="#7FBECB"/>
<path d="M55.0442 306.024V308.712H56.8322V317.7H59.2562V308.712H59.5922L63.8642 317.7H66.9722L72.5762 306.024H69.5642L65.3882 314.376L61.3442 306.024H55.0442Z" fill="#7FBECB"/>
<path d="M74.6176 306L74.6536 306.204L80.9296 317.7H91.1536V306H88.9576V315H82.2256L78.8656 308.496V308.424H84.4816V309.132H86.7136V306H74.6176Z" fill="#7FBECB"/>
<path d="M93.6163 306.12L93.6523 306.324L103.3 317.7H106.804L102.868 313.26H107.14L105.316 310.596H100.552L98.9924 308.784L107.764 308.772L106.048 306.12H93.6163Z" fill="#7FBECB"/>
<path d="M109.586 306.024V308.712H111.374V317.7H113.798V308.712H114.134L118.406 317.7H121.514L127.118 306.024H124.106L119.93 314.376L115.886 306.024H109.586Z" fill="#7FBECB"/>
<path d="M129.3 305.988V317.712H132.42L139.98 312.756L138.576 310.56L131.676 315.036V305.988H129.3Z" fill="#7FBECB"/>
<path d="M142.329 306.204L142.233 306.396L142.161 306.828V316.98L142.221 317.352L142.317 317.556L142.557 317.628L143.013 317.7H158.313L158.793 317.652L159.033 317.52L159.129 317.28L159.201 316.92V306.828L159.141 306.468L159.045 306.204L158.805 306.084L158.349 306.06H143.013L142.533 306.12L142.329 306.204ZM144.477 314.88V308.724H156.561V314.88H144.477Z" fill="#7FBECB"/>
<path d="M164.873 306.036L160.901 315.312L162.485 317.7H175.289L176.933 315.276L173.105 306.036H164.873ZM174.149 315.144H163.697L166.409 308.724H171.461L174.149 315.144Z" fill="#7FBECB"/>
<path d="M193.673 315.444L193.385 315.42L188.477 306.036H185.393L178.865 317.7H181.889L186.905 308.484L191.777 317.7H194.777L194.957 317.688L195.257 317.256L195.533 316.788L195.905 316.14L196.229 315.396L196.541 314.616L196.721 313.716L196.913 312.696L196.985 311.64L196.913 310.584L196.817 309.624L196.625 308.688L196.421 307.98L196.097 307.332L195.785 306.768L195.413 306.3L195.197 306.06H192.977L193.361 306.432L193.673 306.888L193.985 307.452L194.225 308.004L194.441 308.688L194.633 309.588L194.789 310.584L194.849 311.58L194.789 312.576L194.597 313.632L194.357 314.436L194.105 314.928L193.673 315.444Z" fill="#7FBECB"/>
<path d="M199.703 306.048C199.551 306.112 199.443 306.224 199.379 306.384V317.304C199.435 317.496 199.563 317.628 199.763 317.7H216.191V315.012H202.031V308.724H216.191V306.048H199.703Z" fill="#7FBECB"/>
<path d="M245.104 306.036H242.392V308.328H235.06L231.316 306.036H225.868L235.06 311.028H245.104V306.036ZM245.104 312.708H234.76L225.748 317.7H230.848L235.264 315.408H242.428V317.7H245.104V312.708Z" fill="#7FBECB"/>
<path d="M24.3117 288.12L24.3477 288.324L33.9957 299.7H37.4997L33.5637 295.26H37.8357L36.0117 292.596H31.2477L29.6877 290.784L38.4597 290.772L36.7437 288.12H24.3117Z" fill="#7FBECB"/>
<path d="M59.6223 288.036H56.9103V290.328H49.5783L45.8343 288.036H40.3863L49.5783 293.028H59.6223V288.036ZM59.6223 294.708H49.2783L40.2663 299.7H45.3663L49.7823 297.408H56.9463V299.7H59.6223V294.708Z" fill="#7FBECB"/>
<path d="M61.726 288V290.688H79.894V288H61.726ZM76.774 292.488H64.846V295.176H76.774V292.488ZM79.894 297H61.726V299.7H79.894V297Z" fill="#7FBECB"/>
<path d="M89.0098 288.024V290.712H90.7977V299.7H93.2217V290.712H93.5577L97.8297 299.7H100.938L106.542 288.024H103.53L99.3537 296.376L95.3097 288.024H89.0098Z" fill="#7FBECB"/>
<path d="M108.346 288V290.688H126.514V288H108.346ZM123.394 292.488H111.466V295.176H123.394V292.488ZM126.514 297H108.346V299.7H126.514V297Z" fill="#7FBECB"/>
<path d="M143.9 299.052C143.9 298.756 143.828 298.548 143.684 298.428C143.54 298.308 143.368 298.248 143.168 298.248C142.96 298.248 142.784 298.308 142.64 298.428C142.488 298.548 142.412 298.756 142.412 299.052C142.412 299.34 142.488 299.548 142.64 299.676C142.784 299.804 142.96 299.868 143.168 299.868C143.368 299.868 143.54 299.804 143.684 299.676C143.828 299.548 143.9 299.34 143.9 299.052ZM140.756 299.052C140.756 298.756 140.684 298.548 140.54 298.428C140.396 298.308 140.224 298.248 140.024 298.248C139.816 298.248 139.64 298.308 139.496 298.428C139.344 298.548 139.268 298.756 139.268 299.052C139.268 299.34 139.344 299.548 139.496 299.676C139.64 299.804 139.816 299.868 140.024 299.868C140.224 299.868 140.396 299.804 140.54 299.676C140.684 299.548 140.756 299.34 140.756 299.052ZM137.624 299.052C137.624 298.756 137.552 298.548 137.408 298.428C137.264 298.308 137.092 298.248 136.892 298.248C136.684 298.248 136.508 298.308 136.364 298.428C136.212 298.548 136.136 298.756 136.136 299.052C136.136 299.34 136.212 299.548 136.364 299.676C136.508 299.804 136.684 299.868 136.892 299.868C137.092 299.868 137.264 299.804 137.408 299.676C137.552 299.548 137.624 299.34 137.624 299.052Z" fill="#7FBECB"/>
<path d="M146.322 288.024V290.712H148.11V299.7H150.534V290.712H150.87L155.142 299.7H158.25L163.854 288.024H160.842L156.666 296.376L152.622 288.024H146.322Z" fill="#7FBECB"/>
<path d="M173.245 288.096V290.892C171.741 290.644 170.541 290.356 169.645 290.028C168.749 289.7 167.453 289.004 165.757 287.94V290.34C167.101 291.236 168.297 291.9 169.345 292.332C170.393 292.756 171.693 293.128 173.245 293.448V297.024H165.757V299.7H182.989V291.672L179.845 291.66C178.421 291.596 177.045 291.452 175.717 291.228L175.705 288.096H173.245ZM180.337 297.024H175.705V294.012C176.785 294.156 177.909 294.244 179.077 294.276H180.349L180.337 297.024Z" fill="#7FBECB"/>
<path d="M185.352 288V299.7H187.572V290.94L189.936 293.292L191.652 291.564C191.676 291.5 191.644 291.436 191.556 291.372L188.244 288H185.352Z" fill="#7FBECB"/>
<path d="M194.17 287.988V299.712H197.29L204.85 294.756L203.446 292.56L196.546 297.036V287.988H194.17Z" fill="#7FBECB"/>
<path d="M214.314 288.024V290.712H216.102V299.7H218.526V290.712H218.862L223.134 299.7H226.242L231.846 288.024H228.834L224.658 296.376L220.614 288.024H214.314Z" fill="#7FBECB"/>
<path d="M241.907 288.036V297.48H241.139L237.167 293.448H233.675L239.963 299.7H246.071L252.419 293.412H248.903L244.895 297.444H244.163V288.036H241.907Z" fill="#7FBECB"/>
<path d="M85.8721 270.036L81.9001 279.312L83.4841 281.7H96.2881L97.9321 279.276L94.1041 270.036H85.8721ZM95.1481 279.144H84.6961L87.4081 272.724H92.4601L95.1481 279.144Z" fill="#7FBECB"/>
<path d="M108.137 270.036V279.48H107.369L103.397 275.448H99.9052L106.193 281.7H112.301L118.649 275.412H115.133L111.125 279.444H110.393V270.036H108.137Z" fill="#7FBECB"/>
<path d="M139.21 270.036L130.342 278.928V270.036H127.846V281.7H131.266L142.942 270.036H139.21ZM143.914 276.156L134.842 279.444L135.646 281.7L144.754 278.472L143.914 276.156Z" fill="#7FBECB"/>
<path d="M161.362 279.444L161.074 279.42L156.166 270.036H153.082L146.554 281.7H149.578L154.594 272.484L159.466 281.7H162.466L162.646 281.688L162.946 281.256L163.222 280.788L163.594 280.14L163.918 279.396L164.23 278.616L164.41 277.716L164.602 276.696L164.674 275.64L164.602 274.584L164.506 273.624L164.314 272.688L164.11 271.98L163.786 271.332L163.474 270.768L163.102 270.3L162.886 270.06H160.666L161.05 270.432L161.362 270.888L161.674 271.452L161.914 272.004L162.13 272.688L162.322 273.588L162.478 274.584L162.538 275.58L162.478 276.576L162.286 277.632L162.046 278.436L161.794 278.928L161.362 279.444Z" fill="#7FBECB"/>
<path d="M186.077 270.036H183.365V272.328H176.033L172.289 270.036H166.841L176.033 275.028H186.077V270.036ZM186.077 276.708H175.733L166.721 281.7H171.821L176.237 279.408H183.401V281.7H186.077V276.708Z" fill="#7FBECB"/>
<path d="M188.488 270V281.7H190.708V272.94L193.072 275.292L194.788 273.564C194.812 273.5 194.78 273.436 194.692 273.372L191.38 270H188.488Z" fill="#7FBECB"/>
<path d="M196.873 270.036L206.665 281.7H210.061L202.861 273.06V272.856H211.501L209.389 270.036H196.873Z" fill="#7FBECB"/>
<path d="M217.593 270.036L213.621 279.312L215.205 281.7H228.009L229.653 279.276L225.825 270.036H217.593ZM226.869 279.144H216.417L219.129 272.724H224.181L226.869 279.144Z" fill="#7FBECB"/>
<path d="M231.979 269.988V281.712H235.099L242.659 276.756L241.255 274.56L234.355 279.036V269.988H231.979Z" fill="#7FBECB"/>
<path d="M244.883 270V272.688H263.051V270H244.883ZM259.931 274.488H248.003V277.176H259.931V274.488ZM263.051 279H244.883V281.7H263.051V279Z" fill="#7FBECB"/>
<path d="M105.906 252.024V254.712H107.694V263.7H110.118V254.712H110.454L114.726 263.7H117.834L123.438 252.024H120.426L116.25 260.376L112.206 252.024H105.906Z" fill="#7FBECB"/>
<path d="M125.242 252V254.688H143.41V252H125.242ZM140.29 256.488H128.362V259.176H140.29V256.488ZM143.41 261H125.242V263.7H143.41V261Z" fill="#7FBECB"/>
<path d="M153.543 252.036V261.48H152.775L148.803 257.448H145.311L151.599 263.7H157.707L164.055 257.412H160.539L156.531 261.444H155.799V252.036H153.543Z" fill="#7FBECB"/>
<path d="M173.014 252.024V254.712H174.802V263.7H177.226V254.712H177.562L181.834 263.7H184.942L190.546 252.024H187.534L183.358 260.376L179.314 252.024H173.014Z" fill="#7FBECB"/>
<path d="M202.335 252.108H199.635V260.124H202.335V252.108ZM198.771 255.684H196.107V260.124H198.771V255.684ZM195.243 255.684H192.543V263.7H195.243V255.684Z" fill="#7FBECB"/>
<path d="M219.159 261.444L218.871 261.42L213.963 252.036H210.879L204.351 263.7H207.375L212.391 254.484L217.263 263.7H220.263L220.443 263.688L220.743 263.256L221.019 262.788L221.391 262.14L221.715 261.396L222.027 260.616L222.207 259.716L222.399 258.696L222.471 257.64L222.399 256.584L222.303 255.624L222.111 254.688L221.907 253.98L221.583 253.332L221.271 252.768L220.899 252.3L220.683 252.06H218.463L218.847 252.432L219.159 252.888L219.471 253.452L219.711 254.004L219.927 254.688L220.119 255.588L220.275 256.584L220.335 257.58L220.275 258.576L220.083 259.632L219.843 260.436L219.591 260.928L219.159 261.444Z" fill="#7FBECB"/>
<path d="M224.532 252.024V254.712H226.32V263.7H228.744V254.712H229.08L233.352 263.7H236.46L242.064 252.024H239.052L234.876 260.376L230.832 252.024H224.532Z" fill="#7FBECB"/>
<path d="M244.511 252.036L243.935 252.612V263.1L244.547 263.7H260.075V252.036H257.387V261.18H246.623V254.724H250.091L251.735 256.944H255.203L251.531 252.036H244.511Z" fill="#7FBECB"/>
<path d="M129.461 234.036L125.489 243.312L127.073 245.7H139.877L141.521 243.276L137.693 234.036H129.461ZM138.737 243.144H128.285L130.997 236.724H136.049L138.737 243.144Z" fill="#7FBECB"/>
<path d="M151.726 234.036V243.48H150.958L146.986 239.448H143.494L149.782 245.7H155.89L162.238 239.412H158.722L154.714 243.444H153.982V234.036H151.726Z" fill="#7FBECB"/>
<path d="M171.198 234.024V236.712H172.986V245.7H175.41V236.712H175.746L180.018 245.7H183.126L188.73 234.024H185.718L181.542 242.376L177.498 234.024H171.198Z" fill="#7FBECB"/>
<path d="M200.518 234.108H197.818V242.124H200.518V234.108ZM196.954 237.684H194.29V242.124H196.954V237.684ZM193.426 237.684H190.726V245.7H193.426V237.684Z" fill="#7FBECB"/>
<path d="M202.496 234.036L212.288 245.7H215.684L208.484 237.06V236.856H217.124L215.012 234.036H202.496Z" fill="#7FBECB"/>
<path d="M223.216 234.036L219.244 243.312L220.828 245.7H233.632L235.276 243.276L231.448 234.036H223.216ZM232.492 243.144H222.04L224.752 236.724H229.804L232.492 243.144Z" fill="#7FBECB"/>
<path d="M244.811 234.096V236.892C243.307 236.644 242.107 236.356 241.211 236.028C240.315 235.7 239.019 235.004 237.323 233.94V236.34C238.667 237.236 239.863 237.9 240.911 238.332C241.959 238.756 243.259 239.128 244.811 239.448V243.024H237.323V245.7H254.555V237.672L251.411 237.66C249.987 237.596 248.611 237.452 247.283 237.228L247.271 234.096H244.811ZM251.903 243.024H247.271V240.012C248.351 240.156 249.475 240.244 250.643 240.276H251.915L251.903 243.024Z" fill="#7FBECB"/>
<path d="M18.6856 216.024V218.712H20.4736V227.7H22.8976V218.712H23.2336L27.5056 227.7H30.6136L36.2176 216.024H33.2056L29.0296 224.376L24.9856 216.024H18.6856Z" fill="#7FBECB"/>
<path d="M49.6038 216.036L40.7357 224.928V216.036H38.2397V227.7H41.6598L53.3358 216.036H49.6038ZM54.3078 222.156L45.2357 225.444L46.0398 227.7L55.1478 224.472L54.3078 222.156Z" fill="#7FBECB"/>
<path d="M57.6065 216.036L57.0305 216.612V227.1L57.6425 227.7H73.1705V216.036H70.4825V225.18H59.7185V218.724H63.1865L64.8305 220.944H68.2985L64.6265 216.036H57.6065Z" fill="#7FBECB"/>
<path d="M82.5679 216.12L82.6039 216.324L92.252 227.7H95.756L91.8199 223.26H96.0919L94.2679 220.596H89.504L87.944 218.784L96.7159 218.772L95 216.12H82.5679Z" fill="#7FBECB"/>
<path d="M98.9339 215.988V227.712H102.054L109.614 222.756L108.21 220.56L101.31 225.036V215.988H98.9339Z" fill="#7FBECB"/>
<path d="M112.481 216.036L111.905 216.612V227.1L112.517 227.7H128.045V216.036H125.357V225.18H114.593V218.724H118.061L119.705 220.944H123.173L119.501 216.036H112.481Z" fill="#7FBECB"/>
<path d="M133.933 216.036L129.961 225.312L131.545 227.7H144.349L145.993 225.276L142.165 216.036H133.933ZM143.209 225.144H132.757L135.469 218.724H140.521L143.209 225.144Z" fill="#7FBECB"/>
<path d="M157.926 216.108H155.226V224.124H157.926V216.108ZM154.362 219.684H151.698V224.124H154.362V219.684ZM150.834 219.684H148.134V227.7H150.834V219.684Z" fill="#7FBECB"/>
<path d="M167.197 216.024V218.712H168.985V227.7H171.409V218.712H171.745L176.017 227.7H179.125L184.729 216.024H181.717L177.541 224.376L173.497 216.024H167.197Z" fill="#7FBECB"/>
<path d="M186.533 216V218.688H204.701V216H186.533ZM201.581 220.488H189.653V223.176H201.581V220.488ZM204.701 225H186.533V227.7H204.701V225Z" fill="#7FBECB"/>
<path d="M213.817 216.024V218.712H215.605V227.7H218.029V218.712H218.365L222.637 227.7H225.745L231.349 216.024H228.337L224.161 224.376L220.117 216.024H213.817Z" fill="#7FBECB"/>
<path d="M244.735 216.036L235.867 224.928V216.036H233.371V227.7H236.791L248.467 216.036H244.735ZM249.439 222.156L240.367 225.444L241.171 227.7L250.279 224.472L249.439 222.156Z" fill="#7FBECB"/>
<path d="M252.402 216V227.7H254.622V218.94L256.986 221.292L258.702 219.564C258.726 219.5 258.694 219.436 258.606 219.372L255.294 216H252.402Z" fill="#7FBECB"/>
<path d="M-3.97501 198.12L-3.93903 198.324L5.70898 209.7H9.21298L5.27698 205.26H9.54898L7.72498 202.596H2.96097L1.40097 200.784L10.173 200.772L8.45697 198.12H-3.97501Z" fill="#7FBECB"/>
<path d="M26.8054 207.444L26.5174 207.42L21.6094 198.036H18.5254L11.9974 209.7H15.0214L20.0374 200.484L24.9094 209.7H27.9094L28.0894 209.688L28.3894 209.256L28.6654 208.788L29.0374 208.14L29.3614 207.396L29.6734 206.616L29.8534 205.716L30.0454 204.696L30.1174 203.64L30.0454 202.584L29.9494 201.624L29.7574 200.688L29.5534 199.98L29.2294 199.332L28.9174 198.768L28.5454 198.3L28.3294 198.06H26.1094L26.4934 198.432L26.8054 198.888L27.1174 199.452L27.3574 200.004L27.5734 200.688L27.7654 201.588L27.9214 202.584L27.9814 203.58L27.9214 204.576L27.7294 205.632L27.4894 206.436L27.2374 206.928L26.8054 207.444Z" fill="#7FBECB"/>
<path d="M51.5199 198.036H48.8079V200.328H41.4759L37.7319 198.036H32.2839L41.4759 203.028H51.5199V198.036ZM51.5199 204.708H41.1759L32.1639 209.7H37.2639L41.6799 207.408H48.8439V209.7H51.5199V204.708Z" fill="#7FBECB"/>
<path d="M61.2606 197.988V209.712H64.3806L71.9406 204.756L70.5365 202.56L63.6365 207.036V197.988H61.2606Z" fill="#7FBECB"/>
<path d="M74.8073 198.036L74.2313 198.612V209.1L74.8433 209.7H90.3713V198.036H87.6833V207.18H76.9193V200.724H80.3873L82.0313 202.944H85.4993L81.8273 198.036H74.8073Z" fill="#7FBECB"/>
<path d="M100.003 198.096V200.892C98.4988 200.644 97.2988 200.356 96.4028 200.028C95.5068 199.7 94.2108 199.004 92.5148 197.94V200.34C93.8588 201.236 95.0548 201.9 96.1028 202.332C97.1508 202.756 98.4508 203.128 100.003 203.448V207.024H92.5148V209.7H109.747V201.672L106.603 201.66C105.179 201.596 103.803 201.452 102.475 201.228L102.463 198.096H100.003ZM107.095 207.024H102.463V204.012C103.543 204.156 104.667 204.244 105.835 204.276H107.107L107.095 207.024Z" fill="#7FBECB"/>
<path d="M111.748 198.036L121.54 209.7H124.936L117.736 201.06V200.856H126.376L124.264 198.036H111.748Z" fill="#7FBECB"/>
<path d="M128.605 198.024V200.712H130.393V209.7H132.817V200.712H133.153L137.425 209.7H140.533L146.137 198.024H143.125L138.949 206.376L134.905 198.024H128.605Z" fill="#7FBECB"/>
<path d="M148.066 198.204L147.97 198.396L147.898 198.828V208.98L147.958 209.352L148.054 209.556L148.294 209.628L148.75 209.7H164.05L164.53 209.652L164.77 209.52L164.866 209.28L164.938 208.92V198.828L164.878 198.468L164.782 198.204L164.542 198.084L164.086 198.06H148.75L148.27 198.12L148.066 198.204ZM150.214 206.88V200.724H162.298V206.88H150.214Z" fill="#7FBECB"/>
<path d="M170.61 198.036L166.638 207.312L168.222 209.7H181.026L182.67 207.276L178.842 198.036H170.61ZM179.886 207.144H169.434L172.146 200.724H177.198L179.886 207.144Z" fill="#7FBECB"/>
<path d="M184.908 198.096V209.7H193.74C195.212 208.628 195.996 206.892 196.092 204.492C195.9 201.916 194.948 199.788 193.236 198.108H189.396V200.916H192.06V200.292H192.492C193.1 200.996 193.404 202.396 193.404 204.492C193.436 206.044 193.212 206.892 192.732 207.036H187.596V198.084L184.908 198.096Z" fill="#7FBECB"/>
<path d="M209.191 198.036L205.219 207.312L206.803 209.7H219.607L221.251 207.276L217.423 198.036H209.191ZM218.467 207.144H208.015L210.727 200.724H215.779L218.467 207.144Z" fill="#7FBECB"/>
<path d="M234.781 198.036L225.913 206.928V198.036H223.417V209.7H226.837L238.513 198.036H234.781ZM239.485 204.156L230.413 207.444L231.217 209.7L240.325 206.472L239.485 204.156Z" fill="#7FBECB"/>
<path d="M252.95 209.7V203.796H250.322V209.7H252.95Z" fill="#7FBECB"/>
<path d="M67.009 180.024V182.712H68.797V191.7H71.221V182.712H71.557L75.829 191.7H78.937L84.541 180.024H81.529L77.353 188.376L73.309 180.024H67.009Z" fill="#7FBECB"/>
<path d="M86.3448 180V182.688H104.513V180H86.3448ZM101.393 184.488H89.4648V187.176H101.393V184.488ZM104.513 189H86.3448V191.7H104.513V189Z" fill="#7FBECB"/>
<path d="M114.646 180.036V189.48H113.878L109.906 185.448H106.414L112.702 191.7H118.81L125.158 185.412H121.642L117.634 189.444H116.902V180.036H114.646Z" fill="#7FBECB"/>
<path d="M141.724 180.096V182.892C140.22 182.644 139.02 182.356 138.124 182.028C137.228 181.7 135.932 181.004 134.236 179.94V182.34C135.58 183.236 136.776 183.9 137.824 184.332C138.872 184.756 140.172 185.128 141.724 185.448V189.024H134.236V191.7H151.468V183.672L148.324 183.66C146.9 183.596 145.524 183.452 144.196 183.228L144.184 180.096H141.724ZM148.816 189.024H144.184V186.012C145.264 186.156 146.388 186.244 147.556 186.276H148.828L148.816 189.024Z" fill="#7FBECB"/>
<path d="M157.368 180.036L153.396 189.312L154.98 191.7H167.784L169.428 189.276L165.6 180.036H157.368ZM166.644 189.144H156.192L158.904 182.724H163.956L166.644 189.144Z" fill="#7FBECB"/>
<path d="M178.73 180.12L178.766 180.324L188.414 191.7H191.918L187.982 187.26H192.254L190.43 184.596H185.666L184.106 182.784L192.878 182.772L191.162 180.12H178.73Z" fill="#7FBECB"/>
<path d="M194.663 180.036L204.455 191.7H207.851L200.651 183.06V182.856H209.291L207.179 180.036H194.663Z" fill="#7FBECB"/>
<path d="M215.383 180.036L211.411 189.312L212.995 191.7H225.799L227.443 189.276L223.615 180.036H215.383ZM224.659 189.144H214.207L216.919 182.724H221.971L224.659 189.144Z" fill="#7FBECB"/>
<path d="M229.769 179.988V191.712H232.889L240.449 186.756L239.045 184.56L232.145 189.036V179.988H229.769Z" fill="#7FBECB"/>
<path d="M250.57 180.048C250.418 180.112 250.31 180.224 250.246 180.384V191.304C250.302 191.496 250.43 191.628 250.63 191.7H267.058V189.012H252.898V182.724H267.058V180.048H250.57Z" fill="#7FBECB"/>
<path d="M13.2066 162.036H10.4947V164.328H3.16266L-0.58136 162.036H-6.02936L3.16266 167.028H13.2066V162.036ZM13.2066 168.708H2.86264L-6.14935 173.7H-1.04935L3.36664 171.408H10.5306V173.7H13.2066V168.708Z" fill="#7FBECB"/>
<path d="M34.1514 162.036L25.2834 170.928V162.036H22.7874V173.7H26.2074L37.8834 162.036H34.1514ZM38.8554 168.156L29.7834 171.444L30.5874 173.7L39.6954 170.472L38.8554 168.156Z" fill="#7FBECB"/>
<path d="M60.834 162.036H58.122V164.328H50.79L47.046 162.036H41.598L50.79 167.028H60.834V162.036ZM60.834 168.708H50.49L41.478 173.7H46.578L50.994 171.408H58.158V173.7H60.834V168.708Z" fill="#7FBECB"/>
<path d="M63.0629 162.204L62.9669 162.396L62.8949 162.828V172.98L62.9549 173.352L63.0509 173.556L63.2909 173.628L63.7469 173.7H79.0469L79.5269 173.652L79.7669 173.52L79.8629 173.28L79.9349 172.92V162.828L79.8749 162.468L79.7789 162.204L79.5389 162.084L79.0829 162.06H63.7469L63.2669 162.12L63.0629 162.204ZM65.2109 170.88V164.724H77.2949V170.88H65.2109Z" fill="#7FBECB"/>
<path d="M100.604 162.036L91.7357 170.928V162.036H89.2397V173.7H92.6597L104.336 162.036H100.604ZM105.308 168.156L96.2357 171.444L97.0397 173.7L106.148 170.472L105.308 168.156Z" fill="#7FBECB"/>
<path d="M108.271 162V173.7H110.491V164.94L112.855 167.292L114.571 165.564C114.595 165.5 114.563 165.436 114.475 165.372L111.163 162H108.271Z" fill="#7FBECB"/>
<path d="M116.692 162.024V164.712H118.48V173.7H120.904V164.712H121.24L125.512 173.7H128.62L134.224 162.024H131.212L127.036 170.376L122.992 162.024H116.692Z" fill="#7FBECB"/>
<path d="M136.671 162.036L136.095 162.612V173.1L136.707 173.7H152.235V162.036H149.547V171.18H138.783V164.724H142.251L143.895 166.944H147.363L143.691 162.036H136.671Z" fill="#7FBECB"/>
<path d="M154.516 162L154.552 162.204L160.828 173.7H171.052V162H168.856V171H162.124L158.764 164.496V164.424H164.38V165.132H166.612V162H154.516Z" fill="#7FBECB"/>
<path d="M192.743 162.036H190.031V164.328H182.699L178.955 162.036H173.507L182.699 167.028H192.743V162.036ZM192.743 168.708H182.399L173.387 173.7H178.487L182.903 171.408H190.067V173.7H192.743V168.708Z" fill="#7FBECB"/>
<path d="M195.225 161.988V173.712H198.345L205.905 168.756L204.501 166.56L197.601 171.036V161.988H195.225Z" fill="#7FBECB"/>
<path d="M208.418 162.096V173.7H217.25C218.722 172.628 219.506 170.892 219.602 168.492C219.41 165.916 218.458 163.788 216.746 162.108H212.906V164.916H215.57V164.292H216.002C216.61 164.996 216.914 166.396 216.914 168.492C216.946 170.044 216.722 170.892 216.242 171.036H211.106V162.084L208.418 162.096Z" fill="#7FBECB"/>
<path d="M228.856 162V164.688H247.024V162H228.856ZM243.904 166.488H231.976V169.176H243.904V166.488ZM247.024 171H228.856V173.7H247.024V171Z" fill="#7FBECB"/>
<path d="M257.158 162.036V171.48H256.39L252.418 167.448H248.926L255.214 173.7H261.322L267.67 167.412H264.154L260.146 171.444H259.414V162.036H257.158Z" fill="#7FBECB"/>
<path d="M42.2373 137.7V131.796H39.6093V137.7H42.2373ZM45.8494 137.712V131.808H43.2213V137.712H45.8494Z" fill="#7FBECB"/>
<path d="M48.4922 126.12L48.5281 126.324L58.1761 137.7H61.6801L57.7441 133.26H62.0161L60.1921 130.596H55.4281L53.8681 128.784L62.6401 128.772L60.9241 126.12H48.4922Z" fill="#7FBECB"/>
<path d="M79.2725 135.444L78.9845 135.42L74.0765 126.036H70.9925L64.4645 137.7H67.4885L72.5045 128.484L77.3765 137.7H80.3765L80.5565 137.688L80.8565 137.256L81.1325 136.788L81.5045 136.14L81.8285 135.396L82.1405 134.616L82.3205 133.716L82.5125 132.696L82.5845 131.64L82.5125 130.584L82.4165 129.624L82.2245 128.688L82.0205 127.98L81.6965 127.332L81.3845 126.768L81.0125 126.3L80.7965 126.06H78.5765L78.9605 126.432L79.2725 126.888L79.5845 127.452L79.8245 128.004L80.0405 128.688L80.2325 129.588L80.3885 130.584L80.4485 131.58L80.3885 132.576L80.1965 133.632L79.9565 134.436L79.7045 134.928L79.2725 135.444Z" fill="#7FBECB"/>
<path d="M84.6457 126.024V128.712H86.4337V137.7H88.8577V128.712H89.1937L93.4657 137.7H96.5737L102.178 126.024H99.1657L94.9897 134.376L90.9457 126.024H84.6457Z" fill="#7FBECB"/>
<path d="M104.219 126L104.255 126.204L110.531 137.7H120.755V126H118.559V135H111.827L108.467 128.496V128.424H114.083V129.132H116.315V126H104.219Z" fill="#7FBECB"/>
<path d="M123.104 126.024V128.712H124.892V137.7H127.316V128.712H127.652L131.924 137.7H135.032L140.636 126.024H137.624L133.448 134.376L129.404 126.024H123.104Z" fill="#7FBECB"/>
<path d="M142.818 125.988V137.712H145.938L153.498 132.756L152.094 130.56L145.194 135.036V125.988H142.818Z" fill="#7FBECB"/>
<path d="M162.981 126V128.688H181.149V126H162.981ZM178.029 130.488H166.101V133.176H178.029V130.488ZM181.149 135H162.981V137.7H181.149V135Z" fill="#7FBECB"/>
<path d="M191.282 126.036V135.48H190.514L186.542 131.448H183.05L189.338 137.7H195.446L201.794 131.412H198.278L194.27 135.444H193.538V126.036H191.282Z" fill="#7FBECB"/>
<path d="M203.821 126V137.7H206.041V128.94L208.405 131.292L210.121 129.564C210.145 129.5 210.113 129.436 210.025 129.372L206.713 126H203.821Z" fill="#7FBECB"/>
<path d="M223.843 126.036L214.975 134.928V126.036H212.479V137.7H215.899L227.575 126.036H223.843ZM228.547 132.156L219.475 135.444L220.279 137.7L229.387 134.472L228.547 132.156Z" fill="#7FBECB"/>
<path d="M257.784 126.036H255.072V128.328H247.74L243.996 126.036H238.548L247.74 131.028H257.784V126.036ZM257.784 132.708H247.44L238.428 137.7H243.528L247.944 135.408H255.108V137.7H257.784V132.708Z" fill="#7FBECB"/>
<path d="M97.9436 101.7V95.796H95.3156V101.7H97.9436ZM101.556 101.712V95.808H98.9276V101.712H101.556Z" fill="#7FBECB"/>
<path d="M104.746 90.036L104.17 90.612V101.1L104.782 101.7H120.31V90.036H117.622V99.18H106.858V92.724H110.326L111.97 94.944H115.438L111.766 90.036H104.746Z" fill="#7FBECB"/>
<path d="M126.199 90.036L122.227 99.312L123.811 101.7H136.615L138.259 99.276L134.431 90.036H126.199ZM135.475 99.144H125.023L127.735 92.724H132.787L135.475 99.144Z" fill="#7FBECB"/>
<path d="M140.188 90.012L146.644 101.7H150.676L156.604 91.02V90.468L156.28 90.096L155.884 90.012H150.472L147.748 94.86H150.556L152.308 91.332H153.628L148.924 99.828H148.324L142.828 90.012H140.188Z" fill="#7FBECB"/>
<path d="M166.176 89.988V101.712H169.296L176.856 96.756L175.452 94.56L168.552 99.036V89.988H166.176Z" fill="#7FBECB"/>
<path d="M179.458 89.988V101.712H182.578L190.138 96.756L188.734 94.56L181.834 99.036V89.988H179.458Z" fill="#7FBECB"/>
<path d="M192.343 90.024V92.7121H194.131V101.7H196.555V92.7121H196.891L201.163 101.7H204.271L209.875 90.024H206.863L202.687 98.3761L198.643 90.024H192.343Z" fill="#7FBECB"/>
<path d="M219.936 90.036V99.48H219.168L215.196 95.448H211.704L217.992 101.7H224.1L230.448 95.412H226.932L222.924 99.444H222.192V90.036H219.936Z" fill="#7FBECB"/>
<path d="M239.522 90.12L239.558 90.324L249.206 101.7H252.71L248.774 97.26H253.046L251.222 94.596H246.458L244.898 92.784L253.67 92.772L251.954 90.12H239.522Z" fill="#7FBECB"/>
<path d="M-0.12545 72V83.7H2.09455V74.94L4.45856 77.292L6.17457 75.564C6.19857 75.5 6.16656 75.436 6.07856 75.372L2.76655 72H-0.12545Z" fill="#7FBECB"/>
<path d="M8.40936 72.12L8.44534 72.324L18.0934 83.7H21.5974L17.6613 79.26H21.9333L20.1093 76.596H15.3453L13.7853 74.784L22.5573 74.772L20.8413 72.12H8.40936Z" fill="#7FBECB"/>
<path d="M24.3785 72.024V74.7121H26.1665V83.7001H28.5905V74.7121H28.9265L33.1985 83.7001H36.3065L41.9106 72.024H38.8986L34.7226 80.3761L30.6786 72.024H24.3785Z" fill="#7FBECB"/>
<path d="M43.7578 72.048L49.3498 83.7H60.2458V81.072H50.9818L49.3498 77.424C50.1818 77.912 50.9498 78.244 51.6538 78.42C52.3578 78.596 53.1658 78.752 54.0778 78.888C54.9898 79.016 56.4698 79.096 58.5178 79.128H60.1978V76.5H58.4698C56.4538 76.372 55.1578 76.268 54.5818 76.188C54.0058 76.108 53.2218 75.92 52.2298 75.624C51.0138 75.176 50.0218 74.748 49.2538 74.34C48.4858 73.932 47.6218 73.164 46.6618 72.036L43.7578 72.048Z" fill="#7FBECB"/>
<path d="M69.6855 72.024V74.7121H71.4735V83.7001H73.8975V74.7121H74.2335L78.5055 83.7001H81.6135L87.2175 72.024H84.2055L80.0295 80.3761L75.9855 72.024H69.6855Z" fill="#7FBECB"/>
<path d="M89.0213 72V74.688H107.189V72H89.0213ZM104.069 76.488H92.1413V79.176H104.069V76.488ZM107.189 81H89.0213V83.7H107.189V81Z" fill="#7FBECB"/>
<path d="M117.322 72.036V81.48H116.554L112.582 77.448H109.09L115.378 83.7H121.486L127.834 77.412H124.318L120.31 81.444H119.578V72.036H117.322Z" fill="#7FBECB"/>
<path d="M136.794 72.012L143.25 83.7H147.282L153.21 73.02V72.468L152.886 72.096L152.49 72.012H147.078L144.354 76.86H147.162L148.914 73.332H150.234L145.53 81.828H144.93L139.434 72.012H136.794Z" fill="#7FBECB"/>
<path d="M155.091 72.036L164.883 83.7H168.279L161.079 75.06V74.856H169.719L167.607 72.036H155.091Z" fill="#7FBECB"/>
<path d="M175.811 72.036L171.839 81.312L173.423 83.7H186.227L187.871 81.276L184.043 72.036H175.811ZM185.087 81.144H174.635L177.347 74.724H182.399L185.087 81.144Z" fill="#7FBECB"/>
<path d="M198.076 72.036V81.48H197.308L193.336 77.448H189.844L196.132 83.7H202.24L208.588 77.412H205.072L201.064 81.444H200.332V72.036H198.076Z" fill="#7FBECB"/>
<path d="M221.89 72.036L213.022 80.928V72.036H210.526V83.7H213.946L225.622 72.036H221.89ZM226.594 78.156L217.522 81.444L218.326 83.7L227.434 80.472L226.594 78.156Z" fill="#7FBECB"/>
<path d="M255.832 72.036H253.12V74.328H245.788L242.044 72.036H236.596L245.788 77.028H255.832V72.036ZM255.832 78.708H245.488L236.476 83.7H241.576L245.992 81.408H253.156V83.7H255.832V78.708Z" fill="#7FBECB"/>
<path d="M58.9881 54.036L50.1201 62.928V54.036H47.6241V65.7H51.0441L62.7201 54.036H58.9881ZM63.6921 60.156L54.6201 63.444L55.4241 65.7L64.5321 62.472L63.6921 60.156Z" fill="#7FBECB"/>
<path d="M68.4634 52.6801L67.0234 53.7481H69.1834V61.0801L71.8474 58.5241V52.6801H68.4634Z" fill="#7FBECB"/>
<path d="M83.0005 54.036V63.48H82.2325L78.2605 59.448H74.7685L81.0565 65.7H87.1645L93.5125 59.412H89.9965L85.9885 63.444H85.2565V54.036H83.0005Z" fill="#7FBECB"/>
<path d="M95.5393 54V65.7H97.7593V56.94L100.123 59.292L101.839 57.564C101.863 57.5 101.831 57.436 101.743 57.372L98.4313 54H95.5393Z" fill="#7FBECB"/>
<path d="M115.465 65.7V59.796H112.837V65.7H115.465ZM119.077 65.712V59.808H116.449V65.712H119.077Z" fill="#7FBECB"/>
<path d="M129.883 54.036V63.48H129.115L125.143 59.448H121.651L127.939 65.7H134.047L140.395 59.412H136.879L132.871 63.444H132.139V54.036H129.883Z" fill="#7FBECB"/>
<path d="M145.959 54.036L141.987 63.312L143.571 65.7H156.375L158.019 63.276L154.191 54.036H145.959ZM155.235 63.144H144.783L147.495 56.724H152.547L155.235 63.144Z" fill="#7FBECB"/>
<path d="M174.759 63.444L174.471 63.42L169.563 54.036H166.479L159.951 65.7H162.975L167.991 56.484L172.863 65.7H175.863L176.043 65.688L176.343 65.256L176.619 64.788L176.991 64.14L177.315 63.396L177.627 62.616L177.807 61.716L177.999 60.696L178.071 59.64L177.999 58.584L177.903 57.624L177.711 56.688L177.507 55.98L177.183 55.332L176.871 54.768L176.499 54.3L176.283 54.06H174.063L174.447 54.432L174.759 54.888L175.071 55.452L175.311 56.004L175.527 56.688L175.719 57.588L175.875 58.584L175.935 59.58L175.875 60.576L175.683 61.632L175.443 62.436L175.191 62.928L174.759 63.444Z" fill="#7FBECB"/>
<path d="M195.667 54.036V63.48H194.899L190.927 59.448H187.435L193.723 65.7H199.831L206.179 59.412H202.663L198.655 63.444H197.923V54.036H195.667Z" fill="#7FBECB"/>
<path d="M207.899 54V56.688H226.067V54H207.899ZM222.947 58.488H211.019V61.176H222.947V58.488ZM226.067 63H207.899V65.7H226.067V63Z" fill="#7FBECB"/>
<path d="M228.18 54L228.216 54.204L234.492 65.7H244.716V54H242.52V63H235.788L232.428 56.496V56.424H238.044V57.132H240.276V54H228.18Z" fill="#7FBECB"/>
<path d="M247.727 54.036L247.151 54.612V65.1L247.763 65.7H263.291V54.036H260.603V63.18H249.839V56.724H253.307L254.951 58.944H258.419L254.747 54.036H247.727Z" fill="#7FBECB"/>
<path d="M26.2886 36V47.7H28.5086V38.94L30.8726 41.292L32.5886 39.564C32.6126 39.5 32.5806 39.436 32.4926 39.372L29.1806 36H26.2886Z" fill="#7FBECB"/>
<path d="M47.269 47.412L47.509 47.7H44.833L44.425 47.292L44.077 46.788L43.705 46.224L43.333 45.516L43.021 44.64L42.781 43.74L42.673 42.672L42.601 41.616L42.673 40.56L42.781 39.588L42.985 38.652L43.225 37.944L43.573 37.284L43.909 36.72L44.317 36.252L44.557 36.012H48.433V41.616H45.901V37.404L45.625 37.968L45.385 38.652L45.181 39.564L45.013 40.56L44.941 41.556L45.013 42.552L45.145 43.644L45.385 44.448L45.697 45.204L46.069 45.828L46.453 46.416L46.861 46.92L47.269 47.412Z" fill="#7FBECB"/>
<path d="M50.9262 36.024V38.7121H52.7142V47.7001H55.1382V38.7121H55.4742L59.7462 47.7001H62.8542L68.4582 36.024H65.4462L61.2702 44.376L57.2262 36.024H50.9262Z" fill="#7FBECB"/>
<path d="M81.8444 36.036L72.9764 44.928V36.036H70.4804V47.7H73.9004L85.5764 36.036H81.8444ZM86.5484 42.156L77.4764 45.444L78.2804 47.7L87.3884 44.472L86.5484 42.156Z" fill="#7FBECB"/>
<path d="M89.5113 36V47.7H91.7313V38.94L94.0953 41.292L95.8113 39.564C95.8353 39.5 95.8032 39.436 95.7152 39.372L92.4033 36H89.5113Z" fill="#7FBECB"/>
<path d="M98.0762 36.2041L97.9802 36.3961L97.9082 36.8281V46.9801L97.9682 47.3521L98.0642 47.5561L98.3042 47.6281L98.7602 47.7001H114.06L114.54 47.6521L114.78 47.5201L114.876 47.2801L114.948 46.9201V36.8281L114.888 36.4681L114.792 36.2041L114.552 36.0841L114.096 36.0601H98.7602L98.2802 36.1201L98.0762 36.2041ZM100.224 44.8801V38.7241H112.308V44.8801H100.224Z" fill="#7FBECB"/>
<path d="M124.016 36.024V38.7121H125.804V47.7001H128.228V38.7121H128.564L132.836 47.7001H135.944L141.548 36.024H138.536L134.36 44.376L130.316 36.024H124.016Z" fill="#7FBECB"/>
<path d="M143.352 36V38.688H161.52V36H143.352ZM158.4 40.488H146.472V43.176H158.4V40.488ZM161.52 45H143.352V47.7H161.52V45Z" fill="#7FBECB"/>
<path d="M171.653 36.036V45.48H170.885L166.913 41.448H163.421L169.709 47.7H175.817L182.165 41.412H178.649L174.641 45.444H173.909V36.036H171.653Z" fill="#7FBECB"/>
<path d="M202.726 36.036L193.858 44.928V36.036H191.362V47.7H194.782L206.458 36.036H202.726ZM207.43 42.156L198.358 45.444L199.162 47.7L208.27 44.472L207.43 42.156Z" fill="#7FBECB"/>
<path d="M210.392 36V47.7H212.612V38.94L214.976 41.292L216.692 39.564C216.716 39.5 216.684 39.436 216.596 39.372L213.284 36H210.392Z" fill="#7FBECB"/>
<path d="M218.814 36.024V38.7121H220.602V47.7001H223.026V38.7121H223.362L227.634 47.7001H230.742L236.346 36.024H233.334L229.158 44.376L225.114 36.024H218.814Z" fill="#7FBECB"/>
<path d="M238.792 36.036L238.216 36.612V47.1L238.828 47.7H254.356V36.036H251.668V45.18H240.904V38.724H244.372L246.016 40.944H249.484L245.812 36.036H238.792Z" fill="#7FBECB"/>
<path d="M45.4885 18V20.688H63.6565V18H45.4885ZM60.5365 22.488H48.6085V25.176H60.5365V22.488ZM63.6565 27H45.4885V29.7H63.6565V27Z" fill="#7FBECB"/>
<path d="M73.7896 18.036V27.48H73.0216L69.0496 23.448H65.5576L71.8456 29.7H77.9536L84.3016 23.412H80.7856L76.7776 27.444H76.0456V18.036H73.7896Z" fill="#7FBECB"/>
<path d="M85.9667 18.036L95.7587 29.7H99.1547L91.9547 21.06V20.856H100.595L98.4827 18.036H85.9667Z" fill="#7FBECB"/>
<path d="M122.165 18.036H119.453V20.328H112.121L108.377 18.036H102.929L112.121 23.028H122.165V18.036ZM122.165 24.708H111.821L102.809 29.7H107.909L112.325 27.408H119.489V29.7H122.165V24.708Z" fill="#7FBECB"/>
<path d="M124.364 18.12L124.4 18.324L134.048 29.7H137.552L133.616 25.26H137.888L136.064 22.596H131.3L129.74 20.784L138.512 20.772L136.796 18.12H124.364Z" fill="#7FBECB"/>
<path d="M155.198 18.0959V20.8919C153.694 20.6439 152.494 20.3559 151.598 20.0279C150.702 19.6999 149.406 19.0039 147.71 17.9399V20.3399C149.054 21.2359 150.25 21.8999 151.298 22.3319C152.346 22.7559 153.646 23.1279 155.198 23.4479V27.0239H147.71V29.6999H164.942V21.6719L161.798 21.6599C160.374 21.5959 158.998 21.4519 157.67 21.2279L157.658 18.0959H155.198ZM162.29 27.0239H157.658V24.0119C158.738 24.1559 159.862 24.2439 161.03 24.2759H162.302L162.29 27.0239Z" fill="#7FBECB"/>
<path d="M170.842 18.036L166.87 27.312L168.454 29.7H181.258L182.902 27.276L179.074 18.036H170.842ZM180.118 27.144H169.666L172.378 20.724H177.43L180.118 27.144Z" fill="#7FBECB"/>
<path d="M192.09 18.012L198.546 29.7H202.578L208.506 19.02V18.468L208.182 18.096L207.786 18.012H202.374L199.65 22.86H202.458L204.21 19.332H205.53L200.826 27.828H200.226L194.73 18.012H192.09Z" fill="#7FBECB"/>
<path d="M210.537 18.12L210.573 18.324L220.221 29.7H223.725L219.789 25.26H224.061L222.237 22.596H217.473L215.913 20.784L224.685 20.772L222.969 18.12H210.537Z" fill="#7FBECB"/>
<path d="M226.506 18.024V20.712H228.294V29.7H230.718V20.712H231.054L235.326 29.7H238.434L244.038 18.024H241.026L236.85 26.376L232.806 18.024H226.506Z" fill="#7FBECB"/>
<path d="M246.079 18L246.115 18.204L252.391 29.7H262.615V18H260.419V27H253.687L250.327 20.496V20.424H255.943V21.132H258.175V18H246.079Z" fill="#7FBECB"/>
<path d="M-9.92459 0.0240479V2.71205H-8.1366V11.7H-5.71259V2.71205H-5.37659L-1.10458 11.7H2.00342L7.60742 0.0240479H4.59543L0.419403 8.37605L-3.62457 0.0240479H-9.92459Z" fill="#7FBECB"/>
<path d="M9.41119 0V2.688H27.5792V0H9.41119ZM24.4592 4.488H12.5312V7.176H24.4592V4.488ZM27.5792 9H9.41119V11.7H27.5792V9Z" fill="#7FBECB"/>
<path d="M37.7122 0.0360107V9.48001H36.9442L32.9723 5.44801H29.4803L35.7682 11.7H41.8763L48.2242 5.41201H44.7083L40.7003 9.44401H39.9683V0.0360107H37.7122Z" fill="#7FBECB"/>
<path d="M57.1479 0.0360107L66.9399 11.7H70.3359L63.1359 3.06001V2.85601H71.7759L69.6639 0.0360107H57.1479Z" fill="#7FBECB"/>
<path d="M93.3464 0.0360107H90.6344V2.32801H83.3024L79.5584 0.0360107H74.1104L83.3024 5.02801H93.3464V0.0360107ZM93.3464 6.70801H83.0024L73.9904 11.7H79.0904L83.5064 9.40801H90.6704V11.7H93.3464V6.70801Z" fill="#7FBECB"/>
<path d="M95.4316 0.0240479V2.71205H97.2196V11.7H99.6436V2.71205H99.9796L104.252 11.7H107.36L112.964 0.0240479H109.952L105.776 8.37605L101.732 0.0240479H95.4316Z" fill="#7FBECB"/>
<path d="M114.767 0V2.688H132.935V0H114.767ZM129.815 4.488H117.887V7.176H129.815V4.488ZM132.935 9H114.767V11.7H132.935V9Z" fill="#7FBECB"/>
<path d="M142.015 0.0360107L151.807 11.7H155.203L148.003 3.06001V2.85601H156.643L154.531 0.0360107H142.015Z" fill="#7FBECB"/>
<path d="M158.872 0.0240479V2.71205H160.66V11.7H163.084V2.71205H163.42L167.692 11.7H170.8L176.404 0.0240479H173.392L169.216 8.37605L165.172 0.0240479H158.872Z" fill="#7FBECB"/>
<path d="M188.725 0.0360107L185.629 3.16801H185.125L182.041 0.0360107H178.237L184.261 6.08401V11.7H186.505V6.08401L192.529 0.072011L188.725 0.0360107Z" fill="#7FBECB"/>
<path d="M194.518 0.0240479V2.71205H196.306V11.7H198.73V2.71205H199.066L203.338 11.7H206.446L212.05 0.0240479H209.038L204.862 8.37605L200.818 0.0240479H194.518Z" fill="#7FBECB"/>
<path d="M221.756 0.0360107L221.18 0.612011V11.1L221.792 11.7H237.32V0.0360107H234.632V9.18001H223.868V2.72401H227.336L228.98 4.94401H232.448L228.776 0.0360107H221.756Z" fill="#7FBECB"/>
<path d="M243.208 0.0360107L239.236 9.31201L240.82 11.7H253.624L255.268 9.27601L251.44 0.0360107H243.208ZM252.484 9.14401H242.032L244.744 2.72401H249.796L252.484 9.14401Z" fill="#7FBECB"/>
</g>
<defs>
<clipPath id="clip0_167_937">
<rect width="322" height="324" fill="white" transform="matrix(-1 0 0 1 322 0)"/>
</clipPath>
</defs>
</svg>
