<svg width="32" height="32" viewBox="0 0 32 32" fill="none" xmlns="http://www.w3.org/2000/svg">
<path d="M14.9983 32C14.4022 31.9183 13.806 31.8401 13.2106 31.752C12.9639 31.7154 12.7187 31.6654 12.4749 31.6111C12.0394 31.5146 11.878 31.3117 11.8731 30.8699C11.8717 30.7164 11.8731 30.5621 11.8731 30.3747C11.1114 30.3747 10.375 30.3747 9.63859 30.3747C8.92969 30.3747 8.74789 30.1943 8.74789 29.4926C8.74789 28.9642 8.74789 28.4358 8.74789 27.875C7.97345 27.875 7.2265 27.875 6.47954 27.875C5.81715 27.875 5.62266 27.6813 5.62266 27.0218C5.62266 26.4829 5.62266 25.9446 5.62266 25.3754C5.05399 25.3754 4.51562 25.3754 3.97725 25.3754C3.50864 25.3754 3.04003 25.3796 2.57142 25.374C2.14932 25.369 1.86816 25.1077 1.8752 24.7385C1.88155 24.3806 2.15566 24.1298 2.56297 24.127C3.26059 24.1213 3.95892 24.1256 4.65655 24.1256C4.75873 24.1256 4.8602 24.1256 4.98 24.1256V22.8757H4.66078C3.77571 22.8757 2.88993 22.8771 2.00486 22.8757C1.53203 22.875 1.24029 22.6242 1.25016 22.236C1.25932 21.8598 1.5433 21.6287 2.00416 21.6273C2.57424 21.6252 3.14503 21.6273 3.73131 21.6273V20.3775C3.62561 20.3775 3.51639 20.3775 3.40716 20.3775C2.7194 20.3775 2.03235 20.3803 1.34458 20.3768C0.911211 20.3747 0.63216 20.133 0.625113 19.7646C0.617362 19.3855 0.904164 19.1319 1.35163 19.1284C1.7237 19.1256 2.09577 19.1284 2.48263 19.1284V14.7533C2.00839 14.7533 1.53414 14.7533 1.0599 14.7533C0.914029 14.7533 0.768162 14.7589 0.622295 14.7505C0.261502 14.73 0.00429578 14.4729 6.7737e-05 14.1361C-0.00486498 13.7888 0.260092 13.5126 0.636388 13.5063C1.24029 13.4964 1.8442 13.5035 2.49743 13.5035C2.49743 13.3936 2.49743 13.2949 2.49743 13.1963C2.49743 12.4988 2.49461 11.8006 2.49814 11.1032C2.50095 10.6128 2.73632 10.381 3.231 10.3782C3.80319 10.3747 4.37609 10.3775 4.97224 10.3775V9.12769C4.4825 9.12769 3.98641 9.12769 3.49032 9.12769C3.36559 9.12769 3.24016 9.13332 3.11543 9.12487C2.75675 9.10232 2.50025 8.84165 2.49884 8.50489C2.49743 8.16883 2.75323 7.90111 3.10979 7.88068C3.3064 7.86941 3.50371 7.87857 3.74682 7.87857C3.74682 7.33749 3.74682 6.81051 3.74682 6.28423C3.74682 5.55083 3.91805 5.37681 4.64316 5.37681C5.16321 5.37681 5.68256 5.37681 6.247 5.37681C6.247 4.86673 6.26673 4.37075 6.24066 3.87618C6.21881 3.46544 6.37877 3.19983 6.71208 2.96664C9.98318 0.672009 13.6101 -0.289664 17.5774 0.0752783C24.6728 0.727666 30.5843 6.22787 31.7576 13.2407C31.8548 13.824 31.9204 14.413 32 14.9992V16.9366C31.8964 17.6658 31.821 18.4006 31.6843 19.1234C31.3066 21.1194 30.5441 22.9659 29.4434 24.6723C29.2046 25.0421 28.8621 25.1464 28.5443 24.9527C28.2138 24.7512 28.1461 24.3834 28.3928 23.9994C29.5442 22.2043 30.282 20.2542 30.5892 18.1435C30.6604 17.6524 30.6964 17.1564 30.7513 16.6414H3.76866V19.1242C4.34438 19.1242 4.91376 19.1192 5.48384 19.1277C5.62618 19.1298 5.78191 19.1432 5.90594 19.2045C6.16455 19.3313 6.27871 19.5617 6.23643 19.8512C6.19485 20.1373 5.95667 20.3451 5.65366 20.3712C5.55008 20.3803 5.44579 20.3747 5.34149 20.3754C5.23932 20.3754 5.13714 20.3754 5.01664 20.3754V21.6252C5.5994 21.6252 6.16949 21.6238 6.73957 21.6252C7.2117 21.6266 7.50484 21.876 7.49568 22.2635C7.48722 22.6397 7.20254 22.8708 6.74238 22.8743C6.58877 22.8757 6.43515 22.8743 6.26462 22.8743V24.1044C6.78114 24.196 6.90023 24.5581 6.87839 25.04C6.85513 25.5571 6.87275 26.0757 6.87275 26.6238C7.27441 26.6238 7.64648 26.6238 8.01855 26.6238C8.85218 26.6238 9.6851 26.6217 10.5187 26.6245C10.9662 26.6259 11.2537 26.8816 11.246 27.2607C11.2389 27.6277 10.9584 27.8673 10.5258 27.8736C10.3616 27.8757 10.1967 27.8736 10.0156 27.8736V29.1234C10.1283 29.1234 10.2481 29.1234 10.3679 29.1234C11.0346 29.1234 11.7012 29.1213 12.3678 29.1234C12.8984 29.1256 13.1197 29.3524 13.1232 29.8907C13.1246 30.076 13.1232 30.2612 13.1232 30.462C14.3895 30.71 15.6396 30.7995 16.9017 30.7192C19.714 30.5402 22.267 29.6321 24.5678 28.0068C24.918 27.7595 25.2915 27.806 25.5057 28.104C25.7242 28.4076 25.6467 28.7698 25.2929 29.0199C22.8865 30.7262 20.2143 31.7076 17.2716 31.9436C17.1589 31.9528 17.0475 31.9796 16.9362 31.9979H14.9983V32ZM7.4985 5.3747C8.13975 5.3747 8.73309 5.36976 9.32642 5.3761C9.6999 5.38033 9.96345 5.61212 9.99375 5.94395C10.0297 6.33214 9.73231 6.6224 9.28062 6.62311C7.96781 6.62663 6.65571 6.62452 5.3429 6.62452C5.23297 6.62452 5.12304 6.62452 5.01312 6.62452V7.87504C5.629 7.87504 6.23079 7.86941 6.83188 7.87716C7.22861 7.88209 7.50343 8.15404 7.49568 8.51264C7.48793 8.85926 7.22015 9.11078 6.83752 9.12346C6.64514 9.1298 6.45206 9.12487 6.26532 9.12487V10.3754C6.85302 10.3754 7.4231 10.374 7.99389 10.3754C8.45333 10.3768 8.73802 10.6107 8.74577 10.9869C8.75423 11.3744 8.46108 11.6238 7.98825 11.6245C6.70715 11.6259 5.42605 11.6245 4.14425 11.6245C4.02234 11.6245 3.89973 11.6245 3.76655 11.6245V15.3585H30.7429C30.7055 14.9703 30.6794 14.599 30.6336 14.2305C30.1967 10.7065 28.6937 7.70314 26.1068 5.28311C22.9379 2.31848 19.1545 0.996793 14.8208 1.30397C12.2198 1.48855 9.84718 2.34736 7.6951 3.81559C7.61195 3.87265 7.51189 3.97904 7.50766 4.0664C7.48793 4.49052 7.4992 4.91535 7.4992 5.3747H7.4985Z" fill="#070614"/>
<path d="M14.918 24.7498C14.3254 24.7498 13.7335 24.7533 13.1408 24.7484C12.7166 24.7448 12.4369 24.4898 12.4383 24.122C12.4397 23.7543 12.7194 23.5021 13.1458 23.5007C14.3409 23.4971 15.536 23.4971 16.7311 23.5007C17.1546 23.5021 17.4358 23.7592 17.4344 24.1263C17.433 24.494 17.1525 24.7448 16.7269 24.7477C16.1244 24.7519 15.5212 24.7491 14.9187 24.7491L14.918 24.7498Z" fill="#070614"/>
<path d="M9.95004 18.4999C10.3447 18.4999 10.7393 18.495 11.1339 18.5013C11.5334 18.5077 11.8076 18.767 11.8083 19.1234C11.8083 19.4806 11.5349 19.7441 11.136 19.7476C10.3362 19.754 9.5371 19.754 8.7373 19.7476C8.33705 19.7448 8.06363 19.4827 8.06293 19.1256C8.06293 18.7684 8.33564 18.5084 8.73519 18.5013C9.14037 18.4943 9.54486 18.4999 9.95004 18.4999Z" fill="#070614"/>
<path d="M19.9275 27.2494C19.5329 27.2494 19.1383 27.2543 18.7437 27.248C18.3413 27.2417 18.0679 26.988 18.0637 26.6308C18.0594 26.2736 18.3329 26.0052 18.7303 26.0017C19.5301 25.9947 20.3292 25.9954 21.129 26.0017C21.5314 26.0045 21.8055 26.261 21.809 26.6182C21.8132 26.9859 21.5321 27.2438 21.1114 27.2487C20.7168 27.2536 20.3222 27.2494 19.9275 27.2494Z" fill="#070614"/>
<path d="M9.64704 21.0031C9.7612 21.0031 9.87606 20.9939 9.98881 21.0052C10.3207 21.0397 10.5631 21.3117 10.5582 21.6329C10.554 21.9422 10.3207 22.2128 10.0022 22.2402C9.75556 22.2614 9.50399 22.2607 9.25736 22.2417C8.92405 22.2163 8.68375 21.9373 8.68798 21.6153C8.69221 21.2927 8.93744 21.0327 9.27427 21.0038C9.39759 20.9932 9.52302 21.0024 9.64704 21.0024V21.0031Z" fill="#070614"/>
<path d="M13.9963 27.2452C13.8723 27.2452 13.7461 27.2572 13.6235 27.2431C13.2923 27.2057 13.0541 26.9289 13.0633 26.6076C13.0725 26.2983 13.3085 26.0348 13.6277 26.0081C13.8539 25.989 14.0837 25.9933 14.3113 26.0038C14.6678 26.02 14.9265 26.2793 14.9335 26.6118C14.9413 26.957 14.677 27.2269 14.3071 27.2487C14.2035 27.2551 14.0999 27.2494 13.9963 27.2494C13.9963 27.248 13.9963 27.2473 13.9963 27.2459V27.2452Z" fill="#070614"/>
<path d="M27.1258 27.2438C26.7946 27.2494 26.5099 26.9768 26.4979 26.6435C26.4859 26.292 26.7586 26.0038 27.1089 25.9996C27.4429 25.9954 27.7276 26.2624 27.7424 26.5956C27.7572 26.9345 27.4682 27.2381 27.1265 27.2445L27.1258 27.2438Z" fill="#070614"/>
<path d="M19.6337 14.1242C16.7086 14.1277 14.3176 11.7492 14.3113 8.82898C14.3049 5.88901 16.6917 3.49716 19.6295 3.49927C22.5532 3.50138 24.9357 5.88549 24.9364 8.80925C24.9371 11.733 22.5553 14.1199 19.6337 14.1242ZM23.6863 8.817C23.6884 6.58649 21.8703 4.75684 19.645 4.74909C17.3985 4.74134 15.5635 6.56465 15.5614 8.80573C15.5593 11.0355 17.3773 12.8659 19.6027 12.8743C21.8485 12.8821 23.6849 11.0581 23.687 8.81771L23.6863 8.817Z" fill="#070614"/>
<path d="M21.8104 8.80501C21.8132 10.0097 20.833 10.9954 19.6301 10.9982C18.4273 11.001 17.4393 10.0196 17.4372 8.81769C17.4344 7.61296 18.4146 6.62733 19.6175 6.62522C20.8232 6.6231 21.8076 7.60168 21.8104 8.80501ZM20.5603 8.82262C20.5667 8.31748 20.1488 7.88561 19.6428 7.87504C19.1383 7.86447 18.7021 8.27944 18.6873 8.78458C18.6718 9.30099 19.103 9.74625 19.6196 9.74836C20.1248 9.75048 20.5533 9.32847 20.5596 8.82333L20.5603 8.82262Z" fill="#070614"/>
</svg>
