<svg width="20" height="21" viewBox="0 0 20 21" fill="none" xmlns="http://www.w3.org/2000/svg">
<path d="M10 6.70605C9.25832 6.70605 8.5333 6.92599 7.91661 7.33804C7.29993 7.7501 6.81928 8.33577 6.53545 9.02099C6.25162 9.70621 6.17736 10.4602 6.32206 11.1876C6.46675 11.9151 6.8239 12.5833 7.34835 13.1077C7.8728 13.6322 8.54098 13.9893 9.26841 14.134C9.99584 14.2787 10.7498 14.2044 11.4351 13.9206C12.1203 13.6368 12.706 13.1561 13.118 12.5394C13.5301 11.9228 13.75 11.1977 13.75 10.4561C13.749 9.46181 13.3535 8.50858 12.6505 7.80555C11.9475 7.10251 10.9942 6.70709 10 6.70605ZM10 12.9561C9.50555 12.9561 9.0222 12.8094 8.61107 12.5347C8.19995 12.26 7.87952 11.8696 7.6903 11.4128C7.50108 10.9559 7.45157 10.4533 7.54804 9.96833C7.6445 9.48338 7.8826 9.03792 8.23223 8.68829C8.58186 8.33866 9.02732 8.10055 9.51227 8.00409C9.99723 7.90763 10.4999 7.95714 10.9567 8.14636C11.4135 8.33557 11.804 8.65601 12.0787 9.06713C12.3534 9.47825 12.5 9.9616 12.5 10.4561C12.5 11.1191 12.2366 11.755 11.7678 12.2238C11.2989 12.6927 10.663 12.9561 10 12.9561ZM13.75 2.33105H6.25C5.09006 2.3323 3.97798 2.79363 3.15778 3.61383C2.33758 4.43404 1.87624 5.54611 1.875 6.70605V14.2061C1.87624 15.366 2.33758 16.4781 3.15778 17.2983C3.97798 18.1185 5.09006 18.5798 6.25 18.5811H13.75C14.9099 18.5798 16.022 18.1185 16.8422 17.2983C17.6624 16.4781 18.1238 15.366 18.125 14.2061V6.70605C18.1238 5.54611 17.6624 4.43404 16.8422 3.61383C16.022 2.79363 14.9099 2.3323 13.75 2.33105ZM16.875 14.2061C16.875 15.0349 16.5458 15.8297 15.9597 16.4158C15.3737 17.0018 14.5788 17.3311 13.75 17.3311H6.25C5.4212 17.3311 4.62634 17.0018 4.04029 16.4158C3.45424 15.8297 3.125 15.0349 3.125 14.2061V6.70605C3.125 5.87725 3.45424 5.0824 4.04029 4.49635C4.62634 3.91029 5.4212 3.58105 6.25 3.58105H13.75C14.5788 3.58105 15.3737 3.91029 15.9597 4.49635C16.5458 5.0824 16.875 5.87725 16.875 6.70605V14.2061ZM15 6.39355C15 6.57897 14.945 6.76023 14.842 6.9144C14.739 7.06857 14.5926 7.18873 14.4213 7.25969C14.25 7.33065 14.0615 7.34921 13.8796 7.31304C13.6977 7.27687 13.5307 7.18758 13.3996 7.05647C13.2685 6.92536 13.1792 6.75831 13.143 6.57645C13.1068 6.39459 13.1254 6.20609 13.1964 6.03479C13.2673 5.86348 13.3875 5.71707 13.5417 5.61405C13.6958 5.51104 13.8771 5.45605 14.0625 5.45605C14.3111 5.45605 14.5496 5.55483 14.7254 5.73064C14.9012 5.90646 15 6.14491 15 6.39355Z" fill="#FBFBFB"/>
</svg>
