<svg width="298" height="64" viewBox="0 0 298 64" fill="none" xmlns="http://www.w3.org/2000/svg">
<g filter="url(#filter0_d_152_816)">
<path d="M50 48H41.6C38.9333 48 36.2667 46.6667 33.6 44L28 38.4V48H16V16H28V26.48L35.36 16H50L38.32 32.72L43.12 37.52C43.44 37.84 44.0933 38 45.08 38H50V48ZM89.6 16L76.8 38V48H64.8V38L52 16H65.6L70.8 25.4L76 16H89.6ZM121.609 48H91.6094V16H103.609V38H121.609V48ZM155.516 32C155.516 36.48 153.782 40.2933 150.316 43.44C146.982 46.48 143.049 48 138.516 48C133.982 48 130.049 46.48 126.716 43.44C123.249 40.2933 121.516 36.48 121.516 32C121.516 27.52 123.249 23.7067 126.716 20.56C130.049 17.52 133.982 16 138.516 16C143.049 16 146.982 17.52 150.316 20.56C153.782 23.7067 155.516 27.52 155.516 32ZM144.716 32C144.716 30.3733 144.089 28.9733 142.836 27.8C141.582 26.6 140.142 26 138.516 26C136.862 26 135.409 26.6 134.156 27.8C132.929 28.9733 132.316 30.3733 132.316 32C132.316 33.6267 132.929 35.04 134.156 36.24C135.409 37.4133 136.862 38 138.516 38C140.169 38 141.609 37.4133 142.836 36.24C144.089 35.04 144.716 33.6267 144.716 32ZM211.516 48H201.116C198.449 48 195.782 46.6667 193.116 44L187.516 38.4V48H175.516V30.8H195.116C195.756 30.8 196.316 30.56 196.796 30.08C197.276 29.6 197.516 29.04 197.516 28.4C197.516 27.76 197.276 27.2 196.796 26.72C196.316 26.24 195.756 26 195.116 26H175.516V16H198.316C201.276 16 203.876 17.0667 206.116 19.2C208.382 21.3333 209.516 23.8667 209.516 26.8C209.516 28.96 208.876 30.96 207.596 32.8C206.316 34.64 204.662 35.9467 202.636 36.72C203.142 37.5733 203.836 38 204.716 38H211.516V48ZM245.531 48H213.531V16H245.531V26H225.531V27.8H237.531V36.2H225.531V38H245.531V48ZM281.516 48H269.516L259.516 35.2V48H247.516V16H259.516L269.516 28.8V16H281.516V48Z" fill="#FBFBFB"/>
</g>
<defs>
<filter id="filter0_d_152_816" x="0" y="0" width="297.516" height="64" filterUnits="userSpaceOnUse" color-interpolation-filters="sRGB">
<feFlood flood-opacity="0" result="BackgroundImageFix"/>
<feColorMatrix in="SourceAlpha" type="matrix" values="0 0 0 0 0 0 0 0 0 0 0 0 0 0 0 0 0 0 127 0" result="hardAlpha"/>
<feOffset/>
<feGaussianBlur stdDeviation="8"/>
<feComposite in2="hardAlpha" operator="out"/>
<feColorMatrix type="matrix" values="0 0 0 0 0.498039 0 0 0 0 0.745098 0 0 0 0 0.796078 0 0 0 1 0"/>
<feBlend mode="normal" in2="BackgroundImageFix" result="effect1_dropShadow_152_816"/>
<feBlend mode="normal" in="SourceGraphic" in2="effect1_dropShadow_152_816" result="shape"/>
</filter>
</defs>
</svg>
