<svg width="304" height="336" viewBox="0 0 304 336" fill="none" xmlns="http://www.w3.org/2000/svg">
<g clip-path="url(#clip0_167_937)">
<path d="M260.974 324.036V333.48H261.742L265.714 329.448H269.206L262.918 335.7H256.81L250.462 329.412H253.978L257.986 333.444H258.718V324.036H260.974Z" fill="#7FBECB"/>
<path d="M229.42 324.036H232.132V326.328H239.464L243.208 324.036H248.656L239.464 329.028H229.42V324.036ZM229.42 330.708H239.764L248.776 335.7H243.676L239.26 333.408H232.096V335.7H229.42V330.708Z" fill="#7FBECB"/>
<path d="M227.316 324V326.688H209.148V324H227.316ZM212.268 328.488H224.196V331.176H212.268V328.488ZM209.148 333H227.316V335.7H209.148V333Z" fill="#7FBECB"/>
<path d="M199.015 324.036V333.48H199.783L203.755 329.448H207.247L200.959 335.7H194.851L188.503 329.412H192.019L196.027 333.444H196.759V324.036H199.015Z" fill="#7FBECB"/>
<path d="M179.543 324.024V326.712H177.755V335.7H175.331V326.712H174.995L170.723 335.7H167.615L162.011 324.024H165.023L169.199 332.376L173.243 324.024H179.543Z" fill="#7FBECB"/>
<path d="M160.113 324.12L160.077 324.324L150.429 335.7H146.925L150.861 331.26H146.589L148.413 328.596H153.177L154.737 326.784L145.965 326.772L147.681 324.12H160.113Z" fill="#7FBECB"/>
<path d="M143.818 324V335.7H141.598V326.94L139.234 329.292L137.518 327.564C137.494 327.5 137.526 327.436 137.614 327.372L140.926 324H143.818Z" fill="#7FBECB"/>
<path d="M123.795 324.036L132.663 332.928V324.036H135.159V335.7H131.739L120.063 324.036H123.795ZM119.091 330.156L128.163 333.444L127.359 335.7L118.251 332.472L119.091 330.156Z" fill="#7FBECB"/>
<path d="M108.539 324.048C108.691 324.112 108.799 324.224 108.863 324.384V335.304C108.807 335.496 108.679 335.628 108.479 335.7H92.0511V333.012H106.211V326.724H92.0511V324.048H108.539Z" fill="#7FBECB"/>
<path d="M89.774 324.036L79.982 335.7H76.586L83.786 327.06V326.856H75.146L77.258 324.036H89.774Z" fill="#7FBECB"/>
<path d="M53.5754 324.036H56.2874V326.328H63.6194L67.3634 324.036H72.8114L63.6194 329.028H53.5754V324.036ZM53.5754 330.708H63.9194L72.9314 335.7H67.8314L63.4154 333.408H56.2514V335.7H53.5754V330.708Z" fill="#7FBECB"/>
<path d="M51.3766 324.12L51.3406 324.324L41.6926 335.7H38.1886L42.1246 331.26H37.8526L39.6766 328.596H44.4406L46.0006 326.784L37.2286 326.772L38.9446 324.12H51.3766Z" fill="#7FBECB"/>
<path d="M28.1488 324.024V326.712H26.3608V335.7H23.9368V326.712H23.6008L19.3288 335.7H16.2208L10.6168 324.024H13.6288L17.8048 332.376L21.8488 324.024H28.1488Z" fill="#7FBECB"/>
<path d="M8.81308 324V326.688H-9.35492V324H8.81308ZM-6.23492 328.488H5.69308V331.176H-6.23492V328.488ZM-9.35492 333H8.81308V335.7H-9.35492V333Z" fill="#7FBECB"/>
<path d="M273.848 306.096V308.892C275.352 308.644 276.552 308.356 277.448 308.028C278.344 307.7 279.64 307.004 281.336 305.94V308.34C279.992 309.236 278.796 309.9 277.748 310.332C276.7 310.756 275.4 311.128 273.848 311.448V315.024H281.336V317.7H264.104V309.672L267.248 309.66C268.672 309.596 270.048 309.452 271.376 309.228L271.388 306.096H273.848ZM266.756 315.024H271.388V312.012C270.308 312.156 269.184 312.244 268.016 312.276H266.744L266.756 315.024Z" fill="#7FBECB"/>
<path d="M258.204 306.036L262.176 315.312L260.592 317.7H247.788L246.144 315.276L249.972 306.036H258.204ZM248.928 315.144H259.38L256.668 308.724H251.616L248.928 315.144Z" fill="#7FBECB"/>
<path d="M236.956 306.024V308.712H235.168V317.7H232.744V308.712H232.408L228.136 317.7H225.028L219.424 306.024H222.436L226.612 314.376L230.656 306.024H236.956Z" fill="#7FBECB"/>
<path d="M217.382 306L217.346 306.204L211.07 317.7H200.846V306H203.042V315H209.774L213.134 308.496V308.424H207.518V309.132H205.286V306H217.382Z" fill="#7FBECB"/>
<path d="M198.384 306.12L198.348 306.324L188.7 317.7H185.196L189.132 313.26H184.86L186.684 310.596H191.448L193.008 308.784L184.236 308.772L185.952 306.12H198.384Z" fill="#7FBECB"/>
<path d="M182.414 306.024V308.712H180.626V317.7H178.202V308.712H177.866L173.594 317.7H170.486L164.882 306.024H167.894L172.07 314.376L176.114 306.024H182.414Z" fill="#7FBECB"/>
<path d="M162.7 305.988V317.712H159.58L152.02 312.756L153.424 310.56L160.324 315.036V305.988H162.7Z" fill="#7FBECB"/>
<path d="M149.671 306.204L149.767 306.396L149.839 306.828V316.98L149.779 317.352L149.683 317.556L149.443 317.628L148.987 317.7H133.687L133.207 317.652L132.967 317.52L132.871 317.28L132.799 316.92V306.828L132.859 306.468L132.955 306.204L133.195 306.084L133.651 306.06H148.987L149.467 306.12L149.671 306.204ZM147.523 314.88V308.724H135.439V314.88H147.523Z" fill="#7FBECB"/>
<path d="M127.127 306.036L131.099 315.312L129.515 317.7H116.711L115.067 315.276L118.895 306.036H127.127ZM117.851 315.144H128.303L125.591 308.724H120.539L117.851 315.144Z" fill="#7FBECB"/>
<path d="M98.3267 315.444L98.6147 315.42L103.523 306.036H106.607L113.135 317.7H110.111L105.095 308.484L100.223 317.7H97.2227L97.0427 317.688L96.7427 317.256L96.4667 316.788L96.0947 316.14L95.7707 315.396L95.4587 314.616L95.2787 313.716L95.0867 312.696L95.0147 311.64L95.0867 310.584L95.1827 309.624L95.3747 308.688L95.5787 307.98L95.9027 307.332L96.2147 306.768L96.5867 306.3L96.8027 306.06H99.0227L98.6387 306.432L98.3267 306.888L98.0147 307.452L97.7747 308.004L97.5587 308.688L97.3667 309.588L97.2107 310.584L97.1507 311.58L97.2107 312.576L97.4027 313.632L97.6427 314.436L97.8947 314.928L98.3267 315.444Z" fill="#7FBECB"/>
<path d="M92.2969 306.048C92.4489 306.112 92.5569 306.224 92.6209 306.384V317.304C92.5649 317.496 92.4369 317.628 92.2369 317.7H75.8089V315.012H89.9689V308.724H75.8089V306.048H92.2969Z" fill="#7FBECB"/>
<path d="M46.8958 306.036H49.6077V308.328H56.9398L60.6838 306.036H66.1318L56.9398 311.028H46.8958V306.036ZM46.8958 312.708H57.2398L66.2518 317.7H61.1518L56.7358 315.408H49.5718V317.7H46.8958V312.708Z" fill="#7FBECB"/>
<path d="M37.5334 306V308.688H19.3654V306H37.5334ZM22.4854 310.488H34.4134V313.176H22.4854V310.488ZM19.3654 315H37.5334V317.7H19.3654V315Z" fill="#7FBECB"/>
<path d="M7.50494 306.108H10.2049V314.124H7.50494V306.108ZM11.0689 309.684H13.7329V314.124H11.0689V309.684ZM14.5969 309.684H17.2969V317.7H14.5969V309.684Z" fill="#7FBECB"/>
<path d="M4.83018 306.036L5.40618 306.612V317.1L4.79418 317.7H-10.7338V306.036H-8.04583V315.18H2.71818V308.724H-0.749826L-2.39383 310.944H-5.86183L-2.18983 306.036H4.83018Z" fill="#7FBECB"/>
<path d="M267.688 288.12L267.652 288.324L258.004 299.7H254.5L258.436 295.26H254.164L255.988 292.596H260.752L262.312 290.784L253.54 290.772L255.256 288.12H267.688Z" fill="#7FBECB"/>
<path d="M232.378 288.036H235.09V290.328H242.422L246.166 288.036H251.614L242.422 293.028H232.378V288.036ZM232.378 294.708H242.722L251.734 299.7H246.634L242.218 297.408H235.054V299.7H232.378V294.708Z" fill="#7FBECB"/>
<path d="M230.274 288V290.688H212.106V288H230.274ZM215.226 292.488H227.154V295.176H215.226V292.488ZM212.106 297H230.274V299.7H212.106V297Z" fill="#7FBECB"/>
<path d="M202.99 288.024V290.712H201.202V299.7H198.778V290.712H198.442L194.17 299.7H191.062L185.458 288.024H188.47L192.646 296.376L196.69 288.024H202.99Z" fill="#7FBECB"/>
<path d="M183.654 288V290.688H165.486V288H183.654ZM168.606 292.488H180.534V295.176H168.606V292.488ZM165.486 297H183.654V299.7H165.486V297Z" fill="#7FBECB"/>
<path d="M148.1 299.052C148.1 298.756 148.172 298.548 148.316 298.428C148.46 298.308 148.632 298.248 148.832 298.248C149.04 298.248 149.216 298.308 149.36 298.428C149.512 298.548 149.588 298.756 149.588 299.052C149.588 299.34 149.512 299.548 149.36 299.676C149.216 299.804 149.04 299.868 148.832 299.868C148.632 299.868 148.46 299.804 148.316 299.676C148.172 299.548 148.1 299.34 148.1 299.052ZM151.244 299.052C151.244 298.756 151.316 298.548 151.46 298.428C151.604 298.308 151.776 298.248 151.976 298.248C152.184 298.248 152.36 298.308 152.504 298.428C152.656 298.548 152.732 298.756 152.732 299.052C152.732 299.34 152.656 299.548 152.504 299.676C152.36 299.804 152.184 299.868 151.976 299.868C151.776 299.868 151.604 299.804 151.46 299.676C151.316 299.548 151.244 299.34 151.244 299.052ZM154.376 299.052C154.376 298.756 154.448 298.548 154.592 298.428C154.736 298.308 154.908 298.248 155.108 298.248C155.316 298.248 155.492 298.308 155.636 298.428C155.788 298.548 155.864 298.756 155.864 299.052C155.864 299.34 155.788 299.548 155.636 299.676C155.492 299.804 155.316 299.868 155.108 299.868C154.908 299.868 154.736 299.804 154.592 299.676C154.448 299.548 154.376 299.34 154.376 299.052Z" fill="#7FBECB"/>
<path d="M145.678 288.024V290.712H143.89V299.7H141.466V290.712H141.13L136.858 299.7H133.75L128.146 288.024H131.158L135.334 296.376L139.378 288.024H145.678Z" fill="#7FBECB"/>
<path d="M118.755 288.096V290.892C120.259 290.644 121.459 290.356 122.355 290.028C123.251 289.7 124.547 289.004 126.243 287.94V290.34C124.899 291.236 123.703 291.9 122.655 292.332C121.607 292.756 120.307 293.128 118.755 293.448V297.024H126.243V299.7H109.011V291.672L112.155 291.66C113.579 291.596 114.955 291.452 116.283 291.228L116.295 288.096H118.755ZM111.663 297.024H116.295V294.012C115.215 294.156 114.091 294.244 112.923 294.276H111.651L111.663 297.024Z" fill="#7FBECB"/>
<path d="M106.648 288V299.7H104.428V290.94L102.064 293.292L100.348 291.564C100.324 291.5 100.356 291.436 100.444 291.372L103.756 288H106.648Z" fill="#7FBECB"/>
<path d="M97.8301 287.988V299.712H94.7101L87.1501 294.756L88.5541 292.56L95.4541 297.036V287.988H97.8301Z" fill="#7FBECB"/>
<path d="M77.6863 288.024V290.712H75.8983V299.7H73.4743V290.712H73.1383L68.8663 299.7H65.7583L60.1543 288.024H63.1663L67.3423 296.376L71.3863 288.024H77.6863Z" fill="#7FBECB"/>
<path d="M50.0932 288.036V297.48H50.8612L54.8332 293.448H58.3252L52.0372 299.7H45.9292L39.5812 293.412H43.0972L47.1052 297.444H47.8372V288.036H50.0932Z" fill="#7FBECB"/>
<path d="M18.5387 288.036H21.2507V290.328H28.5827L32.3267 288.036H37.7747L28.5827 293.028H18.5387V288.036ZM18.5387 294.708H28.8827L37.8947 299.7H32.7947L28.3787 297.408H21.2147V299.7H18.5387V294.708Z" fill="#7FBECB"/>
<path d="M16.4535 288.024V290.712H14.6655V299.7H12.2415V290.712H11.9055L7.63351 299.7H4.52551L-1.07849 288.024H1.93351L6.10951 296.376L10.1535 288.024H16.4535Z" fill="#7FBECB"/>
<path d="M206.128 270.036L210.1 279.312L208.516 281.7H195.712L194.068 279.276L197.896 270.036H206.128ZM196.852 279.144H207.304L204.592 272.724H199.54L196.852 279.144Z" fill="#7FBECB"/>
<path d="M183.863 270.036V279.48H184.631L188.603 275.448H192.095L185.807 281.7H179.699L173.351 275.412H176.867L180.875 279.444H181.607V270.036H183.863Z" fill="#7FBECB"/>
<path d="M152.79 270.036L161.658 278.928V270.036H164.154V281.7H160.734L149.058 270.036H152.79ZM148.086 276.156L157.158 279.444L156.354 281.7L147.246 278.472L148.086 276.156Z" fill="#7FBECB"/>
<path d="M130.638 279.444L130.926 279.42L135.834 270.036H138.918L145.446 281.7H142.422L137.406 272.484L132.534 281.7H129.534L129.354 281.688L129.054 281.256L128.778 280.788L128.406 280.14L128.082 279.396L127.77 278.616L127.59 277.716L127.398 276.696L127.326 275.64L127.398 274.584L127.494 273.624L127.686 272.688L127.89 271.98L128.214 271.332L128.526 270.768L128.898 270.3L129.114 270.06H131.334L130.95 270.432L130.638 270.888L130.326 271.452L130.086 272.004L129.87 272.688L129.678 273.588L129.522 274.584L129.462 275.58L129.522 276.576L129.714 277.632L129.954 278.436L130.206 278.928L130.638 279.444Z" fill="#7FBECB"/>
<path d="M105.923 270.036H108.635V272.328H115.967L119.711 270.036H125.159L115.967 275.028H105.923V270.036ZM105.923 276.708H116.267L125.279 281.7H120.179L115.763 279.408H108.599V281.7H105.923V276.708Z" fill="#7FBECB"/>
<path d="M103.512 270V281.7H101.292V272.94L98.9282 275.292L97.2122 273.564C97.1882 273.5 97.2202 273.436 97.3082 273.372L100.62 270H103.512Z" fill="#7FBECB"/>
<path d="M95.1271 270.036L85.3351 281.7H81.9391L89.1391 273.06V272.856H80.4991L82.6111 270.036H95.1271Z" fill="#7FBECB"/>
<path d="M74.4067 270.036L78.3787 279.312L76.7947 281.7H63.9907L62.3467 279.276L66.1747 270.036H74.4067ZM65.1307 279.144H75.5827L72.8707 272.724H67.8187L65.1307 279.144Z" fill="#7FBECB"/>
<path d="M60.0207 269.988V281.712H56.9007L49.3407 276.756L50.7447 274.56L57.6447 279.036V269.988H60.0207Z" fill="#7FBECB"/>
<path d="M47.117 270V272.688H28.949V270H47.117ZM32.069 274.488H43.997V277.176H32.069V274.488ZM28.949 279H47.117V281.7H28.949V279Z" fill="#7FBECB"/>
<path d="M17.0886 270.108H19.7886V278.124H17.0886V270.108ZM20.6526 273.684H23.3166V278.124H20.6526V273.684ZM24.1806 273.684H26.8806V281.7H24.1806V273.684Z" fill="#7FBECB"/>
<path d="M14.7497 270V281.7H12.5297V272.94L10.1657 275.292L8.44967 273.564C8.42567 273.5 8.45767 273.436 8.54567 273.372L11.8577 270H14.7497Z" fill="#7FBECB"/>
<path d="M6.2149 270.12L6.1789 270.324L-3.4691 281.7H-6.9731L-3.03711 277.26H-7.3091L-5.48511 274.596H-0.721106L0.838896 272.784L-7.93311 272.772L-6.21711 270.12H6.2149Z" fill="#7FBECB"/>
<path d="M186.094 252.024V254.712H184.306V263.7H181.882V254.712H181.546L177.274 263.7H174.166L168.562 252.024H171.574L175.75 260.376L179.794 252.024H186.094Z" fill="#7FBECB"/>
<path d="M166.758 252V254.688H148.59V252H166.758ZM151.71 256.488H163.638V259.176H151.71V256.488ZM148.59 261H166.758V263.7H148.59V261Z" fill="#7FBECB"/>
<path d="M138.457 252.036V261.48H139.225L143.197 257.448H146.689L140.401 263.7H134.293L127.945 257.412H131.461L135.469 261.444H136.201V252.036H138.457Z" fill="#7FBECB"/>
<path d="M118.986 252.024V254.712H117.198V263.7H114.774V254.712H114.438L110.166 263.7H107.058L101.454 252.024H104.466L108.642 260.376L112.686 252.024H118.986Z" fill="#7FBECB"/>
<path d="M89.6652 252.108H92.3652V260.124H89.6652V252.108ZM93.2292 255.684H95.8932V260.124H93.2292V255.684ZM96.7572 255.684H99.4572V263.7H96.7572V255.684Z" fill="#7FBECB"/>
<path d="M72.8408 261.444L73.1288 261.42L78.0368 252.036H81.1208L87.6488 263.7H84.6247L79.6087 254.484L74.7367 263.7H71.7367L71.5567 263.688L71.2568 263.256L70.9808 262.788L70.6087 262.14L70.2848 261.396L69.9727 260.616L69.7927 259.716L69.6007 258.696L69.5287 257.64L69.6007 256.584L69.6967 255.624L69.8887 254.688L70.0928 253.98L70.4167 253.332L70.7288 252.768L71.1007 252.3L71.3167 252.06H73.5368L73.1527 252.432L72.8408 252.888L72.5287 253.452L72.2887 254.004L72.0727 254.688L71.8808 255.588L71.7247 256.584L71.6647 257.58L71.7247 258.576L71.9167 259.632L72.1568 260.436L72.4088 260.928L72.8408 261.444Z" fill="#7FBECB"/>
<path d="M67.4676 252.024V254.712H65.6796V263.7H63.2556V254.712H62.9195L58.6476 263.7H55.5396L49.9355 252.024H52.9475L57.1236 260.376L61.1675 252.024H67.4676Z" fill="#7FBECB"/>
<path d="M47.4888 252.036L48.0648 252.612V263.1L47.4528 263.7H31.9248V252.036H34.6128V261.18H45.3768V254.724H41.9088L40.2648 256.944H36.7968L40.4688 252.036H47.4888Z" fill="#7FBECB"/>
<path d="M29.5028 251.988V263.712H26.3828L18.8228 258.756L20.2268 256.56L27.1268 261.036V251.988H29.5028Z" fill="#7FBECB"/>
<path d="M9.01127 252.096V254.892C10.5153 254.644 11.7153 254.356 12.6113 254.028C13.5073 253.7 14.8033 253.004 16.4993 251.94V254.34C15.1553 255.236 13.9593 255.9 12.9113 256.332C11.8633 256.756 10.5633 257.128 9.01127 257.448V261.024H16.4993V263.7H-0.732727V255.672L2.41127 255.66C3.83527 255.596 5.21127 255.452 6.53927 255.228L6.55128 252.096H9.01127ZM1.91928 261.024H6.55128V258.012C5.47128 258.156 4.34727 258.244 3.17927 258.276H1.90727L1.91928 261.024Z" fill="#7FBECB"/>
<path d="M162.539 234.036L166.511 243.312L164.927 245.7H152.123L150.479 243.276L154.307 234.036H162.539ZM153.263 243.144H163.715L161.003 236.724H155.951L153.263 243.144Z" fill="#7FBECB"/>
<path d="M140.274 234.036V243.48H141.042L145.014 239.448H148.506L142.218 245.7H136.11L129.762 239.412H133.278L137.286 243.444H138.018V234.036H140.274Z" fill="#7FBECB"/>
<path d="M120.802 234.024V236.712H119.014V245.7H116.59V236.712H116.254L111.982 245.7H108.874L103.27 234.024H106.282L110.458 242.376L114.502 234.024H120.802Z" fill="#7FBECB"/>
<path d="M91.4816 234.108H94.1816V242.124H91.4816V234.108ZM95.0456 237.684H97.7096V242.124H95.0456V237.684ZM98.5736 237.684H101.274V245.7H98.5736V237.684Z" fill="#7FBECB"/>
<path d="M89.5045 234.036L79.7125 245.7H76.3165L83.5165 237.06V236.856H74.8765L76.9885 234.036H89.5045Z" fill="#7FBECB"/>
<path d="M68.7841 234.036L72.7561 243.312L71.1721 245.7H58.3681L56.7241 243.276L60.5521 234.036H68.7841ZM59.5081 243.144H69.9601L67.2481 236.724H62.1961L59.5081 243.144Z" fill="#7FBECB"/>
<path d="M47.1886 234.096V236.892C48.6926 236.644 49.8926 236.356 50.7886 236.028C51.6846 235.7 52.9806 235.004 54.6766 233.94V236.34C53.3326 237.236 52.1366 237.9 51.0886 238.332C50.0406 238.756 48.7406 239.128 47.1886 239.448V243.024H54.6766V245.7H37.4446V237.672L40.5886 237.66C42.0126 237.596 43.3886 237.452 44.7166 237.228L44.7286 234.096H47.1886ZM40.0966 243.024H44.7286V240.012C43.6486 240.156 42.5246 240.244 41.3566 240.276H40.0846L40.0966 243.024Z" fill="#7FBECB"/>
<path d="M28.1488 234.024V236.712H26.3608V245.7H23.9368V236.712H23.6008L19.3288 245.7H16.2208L10.6168 234.024H13.6288L17.8048 242.376L21.8488 234.024H28.1488Z" fill="#7FBECB"/>
<path d="M8.81308 234V236.688H-9.35492V234H8.81308ZM-6.23492 238.488H5.69308V241.176H-6.23492V238.488ZM-9.35492 243H8.81308V245.7H-9.35492V243Z" fill="#7FBECB"/>
<path d="M273.314 216.024V218.712H271.526V227.7H269.102V218.712H268.766L264.494 227.7H261.386L255.782 216.024H258.794L262.97 224.376L267.014 216.024H273.314Z" fill="#7FBECB"/>
<path d="M242.396 216.036L251.264 224.928V216.036H253.76V227.7H250.34L238.664 216.036H242.396ZM237.692 222.156L246.764 225.444L245.96 227.7L236.852 224.472L237.692 222.156Z" fill="#7FBECB"/>
<path d="M234.393 216.036L234.969 216.612V227.1L234.357 227.7H218.829V216.036H221.517V225.18H232.281V218.724H228.813L227.169 220.944H223.701L227.373 216.036H234.393Z" fill="#7FBECB"/>
<path d="M209.432 216.12L209.396 216.324L199.748 227.7H196.244L200.18 223.26H195.908L197.732 220.596H202.496L204.056 218.784L195.284 218.772L197 216.12H209.432Z" fill="#7FBECB"/>
<path d="M193.066 215.988V227.712H189.946L182.386 222.756L183.79 220.56L190.69 225.036V215.988H193.066Z" fill="#7FBECB"/>
<path d="M179.519 216.036L180.095 216.612V227.1L179.483 227.7H163.955V216.036H166.643V225.18H177.407V218.724H173.939L172.295 220.944H168.827L172.499 216.036H179.519Z" fill="#7FBECB"/>
<path d="M158.067 216.036L162.039 225.312L160.455 227.7H147.651L146.007 225.276L149.835 216.036H158.067ZM148.791 225.144H159.243L156.531 218.724H151.479L148.791 225.144Z" fill="#7FBECB"/>
<path d="M134.074 216.108H136.774V224.124H134.074V216.108ZM137.638 219.684H140.302V224.124H137.638V219.684ZM141.166 219.684H143.866V227.7H141.166V219.684Z" fill="#7FBECB"/>
<path d="M124.803 216.024V218.712H123.015V227.7H120.591V218.712H120.255L115.983 227.7H112.875L107.271 216.024H110.283L114.459 224.376L118.503 216.024H124.803Z" fill="#7FBECB"/>
<path d="M105.467 216V218.688H87.299V216H105.467ZM90.4189 220.488H102.347V223.176H90.4189V220.488ZM87.299 225H105.467V227.7H87.299V225Z" fill="#7FBECB"/>
<path d="M78.1832 216.024V218.712H76.3952V227.7H73.9712V218.712H73.6352L69.3632 227.7H66.2552L60.6512 216.024H63.6632L67.8392 224.376L71.8832 216.024H78.1832Z" fill="#7FBECB"/>
<path d="M47.265 216.036L56.133 224.928V216.036H58.629V227.7H55.209L43.533 216.036H47.265ZM42.561 222.156L51.633 225.444L50.829 227.7L41.721 224.472L42.561 222.156Z" fill="#7FBECB"/>
<path d="M39.5981 216V227.7H37.3781V218.94L35.0141 221.292L33.2981 219.564C33.2741 219.5 33.3061 219.436 33.3941 219.372L36.7061 216H39.5981Z" fill="#7FBECB"/>
<path d="M31.0331 216.204L31.1291 216.396L31.2011 216.828V226.98L31.1411 227.352L31.0451 227.556L30.8051 227.628L30.3491 227.7H15.0491L14.5691 227.652L14.3291 227.52L14.2331 227.28L14.1611 226.92V216.828L14.2211 216.468L14.3171 216.204L14.5571 216.084L15.0131 216.06H30.3491L30.8291 216.12L31.0331 216.204ZM28.8851 224.88V218.724H16.8011V224.88H28.8851Z" fill="#7FBECB"/>
<path d="M1.23017 216.036L5.20217 225.312L3.61817 227.7H-9.18583L-10.8298 225.276L-7.00183 216.036H1.23017ZM-8.04583 225.144H2.40617L-0.305834 218.724H-5.35783L-8.04583 225.144Z" fill="#7FBECB"/>
<path d="M295.975 198.12L295.939 198.324L286.291 209.7H282.787L286.723 205.26H282.451L284.275 202.596H289.039L290.599 200.784L281.827 200.772L283.543 198.12H295.975Z" fill="#7FBECB"/>
<path d="M265.195 207.444L265.483 207.42L270.391 198.036H273.475L280.003 209.7H276.979L271.963 200.484L267.091 209.7H264.091L263.911 209.688L263.611 209.256L263.335 208.788L262.963 208.14L262.639 207.396L262.327 206.616L262.147 205.716L261.955 204.696L261.883 203.64L261.955 202.584L262.051 201.624L262.243 200.688L262.447 199.98L262.771 199.332L263.083 198.768L263.455 198.3L263.671 198.06H265.891L265.507 198.432L265.195 198.888L264.883 199.452L264.643 200.004L264.427 200.688L264.235 201.588L264.079 202.584L264.019 203.58L264.079 204.576L264.271 205.632L264.511 206.436L264.763 206.928L265.195 207.444Z" fill="#7FBECB"/>
<path d="M240.48 198.036H243.192V200.328H250.524L254.268 198.036H259.716L250.524 203.028H240.48V198.036ZM240.48 204.708H250.824L259.836 209.7H254.736L250.32 207.408H243.156V209.7H240.48V204.708Z" fill="#7FBECB"/>
<path d="M230.739 197.988V209.712H227.619L220.059 204.756L221.463 202.56L228.363 207.036V197.988H230.739Z" fill="#7FBECB"/>
<path d="M217.193 198.036L217.769 198.612V209.1L217.157 209.7H201.629V198.036H204.317V207.18H215.081V200.724H211.613L209.969 202.944H206.501L210.173 198.036H217.193Z" fill="#7FBECB"/>
<path d="M191.997 198.096V200.892C193.501 200.644 194.701 200.356 195.597 200.028C196.493 199.7 197.789 199.004 199.485 197.94V200.34C198.141 201.236 196.945 201.9 195.897 202.332C194.849 202.756 193.549 203.128 191.997 203.448V207.024H199.485V209.7H182.253V201.672L185.397 201.66C186.821 201.596 188.197 201.452 189.525 201.228L189.537 198.096H191.997ZM184.905 207.024H189.537V204.012C188.457 204.156 187.333 204.244 186.165 204.276H184.893L184.905 207.024Z" fill="#7FBECB"/>
<path d="M180.252 198.036L170.46 209.7H167.064L174.264 201.06V200.856H165.624L167.736 198.036H180.252Z" fill="#7FBECB"/>
<path d="M163.395 198.024V200.712H161.607V209.7H159.183V200.712H158.847L154.575 209.7H151.467L145.863 198.024H148.875L153.051 206.376L157.095 198.024H163.395Z" fill="#7FBECB"/>
<path d="M143.934 198.204L144.03 198.396L144.102 198.828V208.98L144.042 209.352L143.946 209.556L143.706 209.628L143.25 209.7H127.95L127.47 209.652L127.23 209.52L127.134 209.28L127.062 208.92V198.828L127.122 198.468L127.218 198.204L127.458 198.084L127.914 198.06H143.25L143.73 198.12L143.934 198.204ZM141.786 206.88V200.724H129.702V206.88H141.786Z" fill="#7FBECB"/>
<path d="M121.39 198.036L125.362 207.312L123.778 209.7H110.974L109.33 207.276L113.158 198.036H121.39ZM112.114 207.144H122.566L119.854 200.724H114.802L112.114 207.144Z" fill="#7FBECB"/>
<path d="M107.092 198.096V209.7H98.26C96.788 208.628 96.004 206.892 95.908 204.492C96.1 201.916 97.052 199.788 98.764 198.108H102.604V200.916H99.94V200.292H99.508C98.9 200.996 98.596 202.396 98.596 204.492C98.564 206.044 98.788 206.892 99.268 207.036H104.404V198.084L107.092 198.096Z" fill="#7FBECB"/>
<path d="M82.8091 198.036L86.7811 207.312L85.1971 209.7H72.3931L70.7491 207.276L74.5771 198.036H82.8091ZM73.5331 207.144H83.9851L81.2731 200.724H76.2211L73.5331 207.144Z" fill="#7FBECB"/>
<path d="M57.2189 198.036L66.0869 206.928V198.036H68.5829V209.7H65.1629L53.4869 198.036H57.2189ZM52.5149 204.156L61.5869 207.444L60.7829 209.7L51.6749 206.472L52.5149 204.156Z" fill="#7FBECB"/>
<path d="M39.0499 209.7V203.796H41.6779V209.7H39.0499Z" fill="#7FBECB"/>
<path d="M36.5021 198V200.688H18.3341V198H36.5021ZM21.4541 202.488H33.3821V205.176H21.4541V202.488ZM18.3341 207H36.5021V209.7H18.3341V207Z" fill="#7FBECB"/>
<path d="M8.20109 198.036V207.48H8.96909L12.9411 203.448H16.4331L10.1451 209.7H4.03709L-2.31091 203.412H1.20509L5.21309 207.444H5.94509V198.036H8.20109Z" fill="#7FBECB"/>
<path d="M224.991 180.024V182.712H223.203V191.7H220.779V182.712H220.443L216.171 191.7H213.063L207.459 180.024H210.471L214.647 188.376L218.691 180.024H224.991Z" fill="#7FBECB"/>
<path d="M205.655 180V182.688H187.487V180H205.655ZM190.607 184.488H202.535V187.176H190.607V184.488ZM187.487 189H205.655V191.7H187.487V189Z" fill="#7FBECB"/>
<path d="M177.354 180.036V189.48H178.122L182.094 185.448H185.586L179.298 191.7H173.19L166.842 185.412H170.358L174.366 189.444H175.098V180.036H177.354Z" fill="#7FBECB"/>
<path d="M150.276 180.096V182.892C151.78 182.644 152.98 182.356 153.876 182.028C154.772 181.7 156.068 181.004 157.764 179.94V182.34C156.42 183.236 155.224 183.9 154.176 184.332C153.128 184.756 151.828 185.128 150.276 185.448V189.024H157.764V191.7H140.532V183.672L143.676 183.66C145.1 183.596 146.476 183.452 147.804 183.228L147.816 180.096H150.276ZM143.184 189.024H147.816V186.012C146.736 186.156 145.612 186.244 144.444 186.276H143.172L143.184 189.024Z" fill="#7FBECB"/>
<path d="M134.632 180.036L138.604 189.312L137.02 191.7H124.216L122.572 189.276L126.4 180.036H134.632ZM125.356 189.144H135.808L133.096 182.724H128.044L125.356 189.144Z" fill="#7FBECB"/>
<path d="M113.27 180.12L113.234 180.324L103.586 191.7H100.082L104.018 187.26H99.7464L101.57 184.596H106.334L107.894 182.784L99.1224 182.772L100.838 180.12H113.27Z" fill="#7FBECB"/>
<path d="M97.3372 180.036L87.5452 191.7H84.1492L91.3492 183.06V182.856H82.7092L84.8212 180.036H97.3372Z" fill="#7FBECB"/>
<path d="M76.6169 180.036L80.5889 189.312L79.0049 191.7H66.2009L64.5569 189.276L68.3849 180.036H76.6169ZM67.3409 189.144H77.7929L75.0809 182.724H70.0289L67.3409 189.144Z" fill="#7FBECB"/>
<path d="M62.2309 179.988V191.712H59.1109L51.5509 186.756L52.9549 184.56L59.8549 189.036V179.988H62.2309Z" fill="#7FBECB"/>
<path d="M41.4304 180.048C41.5824 180.112 41.6904 180.224 41.7544 180.384V191.304C41.6984 191.496 41.5704 191.628 41.3704 191.7H24.9424V189.012H39.1024V182.724H24.9424V180.048H41.4304Z" fill="#7FBECB"/>
<path d="M22.6654 180.036L12.8734 191.7H9.47735L16.6774 183.06V182.856H8.03735L10.1494 180.036H22.6654Z" fill="#7FBECB"/>
<path d="M-13.5332 180.036H-10.8212V182.328H-3.4892L0.254799 180.036H5.7028L-3.4892 185.028H-13.5332V180.036ZM-13.5332 186.708H-3.1892L5.8228 191.7H0.722797L-3.6932 189.408H-10.8572V191.7H-13.5332V186.708Z" fill="#7FBECB"/>
<path d="M278.793 162.036H281.505V164.328H288.837L292.581 162.036H298.029L288.837 167.028H278.793V162.036ZM278.793 168.708H289.137L298.149 173.7H293.049L288.633 171.408H281.469V173.7H278.793V168.708Z" fill="#7FBECB"/>
<path d="M257.849 162.036L266.717 170.928V162.036H269.213V173.7H265.793L254.117 162.036H257.849ZM253.145 168.156L262.217 171.444L261.413 173.7L252.305 170.472L253.145 168.156Z" fill="#7FBECB"/>
<path d="M231.166 162.036H233.878V164.328H241.21L244.954 162.036H250.402L241.21 167.028H231.166V162.036ZM231.166 168.708H241.51L250.522 173.7H245.422L241.006 171.408H233.842V173.7H231.166V168.708Z" fill="#7FBECB"/>
<path d="M228.937 162.204L229.033 162.396L229.105 162.828V172.98L229.045 173.352L228.949 173.556L228.709 173.628L228.253 173.7H212.953L212.473 173.652L212.233 173.52L212.137 173.28L212.065 172.92V162.828L212.125 162.468L212.221 162.204L212.461 162.084L212.917 162.06H228.253L228.733 162.12L228.937 162.204ZM226.789 170.88V164.724H214.705V170.88H226.789Z" fill="#7FBECB"/>
<path d="M191.396 162.036L200.264 170.928V162.036H202.76V173.7H199.34L187.664 162.036H191.396ZM186.692 168.156L195.764 171.444L194.96 173.7L185.852 170.472L186.692 168.156Z" fill="#7FBECB"/>
<path d="M183.729 162V173.7H181.509V164.94L179.145 167.292L177.429 165.564C177.405 165.5 177.437 165.436 177.525 165.372L180.837 162H183.729Z" fill="#7FBECB"/>
<path d="M175.308 162.024V164.712H173.52V173.7H171.096V164.712H170.76L166.488 173.7H163.38L157.776 162.024H160.788L164.964 170.376L169.008 162.024H175.308Z" fill="#7FBECB"/>
<path d="M155.329 162.036L155.905 162.612V173.1L155.293 173.7H139.765V162.036H142.453V171.18H153.217V164.724H149.749L148.105 166.944H144.637L148.309 162.036H155.329Z" fill="#7FBECB"/>
<path d="M137.484 162L137.448 162.204L131.172 173.7H120.948V162H123.144V171H129.876L133.236 164.496V164.424H127.62V165.132H125.388V162H137.484Z" fill="#7FBECB"/>
<path d="M99.2574 162.036H101.969V164.328H109.301L113.045 162.036H118.493L109.301 167.028H99.2574V162.036ZM99.2574 168.708H109.601L118.613 173.7H113.513L109.097 171.408H101.933V173.7H99.2574V168.708Z" fill="#7FBECB"/>
<path d="M96.7754 161.988V173.712H93.6554L86.0954 168.756L87.4994 166.56L94.3994 171.036V161.988H96.7754Z" fill="#7FBECB"/>
<path d="M83.5819 162.096V173.7H74.7499C73.2779 172.628 72.4939 170.892 72.3979 168.492C72.5899 165.916 73.5419 163.788 75.2539 162.108H79.0939V164.916H76.4299V164.292H75.9979C75.3899 164.996 75.0859 166.396 75.0859 168.492C75.0539 170.044 75.2779 170.892 75.7579 171.036H80.8939V162.084L83.5819 162.096Z" fill="#7FBECB"/>
<path d="M63.1435 162V164.688H44.9755V162H63.1435ZM48.0955 166.488H60.0235V169.176H48.0955V166.488ZM44.9755 171H63.1435V173.7H44.9755V171Z" fill="#7FBECB"/>
<path d="M34.8424 162.036V171.48H35.6104L39.5824 167.448H43.0744L36.7864 173.7H30.6784L24.3304 167.412H27.8464L31.8544 171.444H32.5864V162.036H34.8424Z" fill="#7FBECB"/>
<path d="M22.6654 162.036L12.8734 173.7H9.47735L16.6774 165.06V164.856H8.03735L10.1494 162.036H22.6654Z" fill="#7FBECB"/>
<path d="M-13.5332 162.036H-10.8212V164.328H-3.4892L0.254799 162.036H5.7028L-3.4892 167.028H-13.5332V162.036ZM-13.5332 168.708H-3.1892L5.8228 173.7H0.722797L-3.6932 171.408H-10.8572V173.7H-13.5332V168.708Z" fill="#7FBECB"/>
<path d="M249.763 137.7V131.796H252.391V137.7H249.763ZM246.151 137.712V131.808H248.779V137.712H246.151Z" fill="#7FBECB"/>
<path d="M243.508 126.12L243.472 126.324L233.824 137.7H230.32L234.256 133.26H229.984L231.808 130.596H236.572L238.132 128.784L229.36 128.772L231.076 126.12H243.508Z" fill="#7FBECB"/>
<path d="M212.727 135.444L213.015 135.42L217.923 126.036H221.007L227.535 137.7H224.511L219.495 128.484L214.623 137.7H211.623L211.443 137.688L211.143 137.256L210.867 136.788L210.495 136.14L210.171 135.396L209.859 134.616L209.679 133.716L209.487 132.696L209.415 131.64L209.487 130.584L209.583 129.624L209.775 128.688L209.979 127.98L210.303 127.332L210.615 126.768L210.987 126.3L211.203 126.06H213.423L213.039 126.432L212.727 126.888L212.415 127.452L212.175 128.004L211.959 128.688L211.767 129.588L211.611 130.584L211.551 131.58L211.611 132.576L211.803 133.632L212.043 134.436L212.295 134.928L212.727 135.444Z" fill="#7FBECB"/>
<path d="M207.354 126.024V128.712H205.566V137.7H203.142V128.712H202.806L198.534 137.7H195.426L189.822 126.024H192.834L197.01 134.376L201.054 126.024H207.354Z" fill="#7FBECB"/>
<path d="M187.781 126L187.745 126.204L181.469 137.7H171.245V126H173.441V135H180.173L183.533 128.496V128.424H177.917V129.132H175.685V126H187.781Z" fill="#7FBECB"/>
<path d="M168.896 126.024V128.712H167.108V137.7H164.684V128.712H164.348L160.076 137.7H156.968L151.364 126.024H154.376L158.552 134.376L162.596 126.024H168.896Z" fill="#7FBECB"/>
<path d="M149.182 125.988V137.712H146.062L138.502 132.756L139.906 130.56L146.806 135.036V125.988H149.182Z" fill="#7FBECB"/>
<path d="M129.019 126V128.688H110.851V126H129.019ZM113.971 130.488H125.899V133.176H113.971V130.488ZM110.851 135H129.019V137.7H110.851V135Z" fill="#7FBECB"/>
<path d="M100.718 126.036V135.48H101.486L105.458 131.448H108.95L102.662 137.7H96.5542L90.2062 131.412H93.7222L97.7302 135.444H98.4622V126.036H100.718Z" fill="#7FBECB"/>
<path d="M88.1794 126V137.7H85.9594V128.94L83.5954 131.292L81.8794 129.564C81.8554 129.5 81.8874 129.436 81.9754 129.372L85.2874 126H88.1794Z" fill="#7FBECB"/>
<path d="M68.1572 126.036L77.0252 134.928V126.036H79.5212V137.7H76.1012L64.4252 126.036H68.1572ZM63.4532 132.156L72.5252 135.444L71.7212 137.7L62.6132 134.472L63.4532 132.156Z" fill="#7FBECB"/>
<path d="M34.2161 126.036H36.9281V128.328H44.2601L48.0041 126.036H53.4521L44.2601 131.028H34.2161V126.036ZM34.2161 132.708H44.5601L53.5721 137.7H48.4721L44.0561 135.408H36.8921V137.7H34.2161V132.708Z" fill="#7FBECB"/>
<path d="M13.2712 126.036L22.1392 134.928V126.036H24.6352V137.7H21.2152L9.53923 126.036H13.2712ZM8.56723 132.156L17.6392 135.444L16.8352 137.7L7.72723 134.472L8.56723 132.156Z" fill="#7FBECB"/>
<path d="M3.79593 124.68L5.23593 125.748H3.07593V133.08L0.411926 130.524V124.68H3.79593Z" fill="#7FBECB"/>
<path d="M194.056 101.7V95.796H196.684V101.7H194.056ZM190.444 101.712V95.808H193.072V101.712H190.444Z" fill="#7FBECB"/>
<path d="M187.254 90.036L187.83 90.612V101.1L187.218 101.7H171.69V90.036H174.378V99.18H185.142V92.724H181.674L180.03 94.944H176.562L180.234 90.036H187.254Z" fill="#7FBECB"/>
<path d="M165.801 90.036L169.773 99.312L168.189 101.7H155.385L153.741 99.276L157.569 90.036H165.801ZM156.525 99.144H166.977L164.265 92.724H159.213L156.525 99.144Z" fill="#7FBECB"/>
<path d="M151.812 90.012L145.356 101.7H141.324L135.396 91.02V90.468L135.72 90.096L136.116 90.012H141.528L144.252 94.86H141.444L139.692 91.332H138.372L143.076 99.828H143.676L149.172 90.012H151.812Z" fill="#7FBECB"/>
<path d="M125.824 89.988V101.712H122.704L115.144 96.756L116.548 94.56L123.448 99.036V89.988H125.824Z" fill="#7FBECB"/>
<path d="M112.542 89.988V101.712H109.422L101.862 96.756L103.266 94.56L110.166 99.036V89.988H112.542Z" fill="#7FBECB"/>
<path d="M99.6566 90.024V92.7121H97.8686V101.7H95.4446V92.7121H95.1086L90.8366 101.7H87.7286L82.1246 90.024H85.1366L89.3126 98.3761L93.3566 90.024H99.6566Z" fill="#7FBECB"/>
<path d="M72.0636 90.036V99.48H72.8316L76.8036 95.448H80.2956L74.0076 101.7H67.8996L61.5516 95.412H65.0676L69.0756 99.444H69.8076V90.036H72.0636Z" fill="#7FBECB"/>
<path d="M52.4781 90.12L52.4421 90.324L42.7941 101.7H39.2901L43.2261 97.26H38.9541L40.7781 94.596H45.5421L47.1021 92.784L38.3301 92.772L40.0461 90.12H52.4781Z" fill="#7FBECB"/>
<path d="M36.1121 89.988V101.712H32.9921L25.4321 96.756L26.8361 94.56L33.7361 99.036V89.988H36.1121Z" fill="#7FBECB"/>
<path d="M22.5653 90.036L23.1413 90.612V101.1L22.5293 101.7H7.00134V90.036H9.68934V99.18H20.4533V92.724H16.9853L15.3413 94.944H11.8733L15.5453 90.036H22.5653Z" fill="#7FBECB"/>
<path d="M1.11298 90.036L5.08498 99.312L3.50098 101.7H-9.30302L-10.947 99.276L-7.11902 90.036H1.11298ZM-8.16302 99.144H2.28898L-0.423021 92.724H-5.47502L-8.16302 99.144Z" fill="#7FBECB"/>
<path d="M292.125 72V83.7H289.905V74.94L287.541 77.292L285.825 75.564C285.801 75.5 285.833 75.436 285.921 75.372L289.233 72H292.125Z" fill="#7FBECB"/>
<path d="M283.591 72.12L283.555 72.324L273.907 83.7H270.403L274.339 79.26H270.067L271.891 76.596H276.655L278.215 74.784L269.443 74.772L271.159 72.12H283.591Z" fill="#7FBECB"/>
<path d="M267.621 72.024V74.7121H265.833V83.7001H263.409V74.7121H263.073L258.801 83.7001H255.693L250.089 72.024H253.101L257.277 80.3761L261.321 72.024H267.621Z" fill="#7FBECB"/>
<path d="M248.242 72.048L242.65 83.7H231.754V81.072H241.018L242.65 77.424C241.818 77.912 241.05 78.244 240.346 78.42C239.642 78.596 238.834 78.752 237.922 78.888C237.01 79.016 235.53 79.096 233.482 79.128H231.802V76.5H233.53C235.546 76.372 236.842 76.268 237.418 76.188C237.994 76.108 238.778 75.92 239.77 75.624C240.986 75.176 241.978 74.748 242.746 74.34C243.514 73.932 244.378 73.164 245.338 72.036L248.242 72.048Z" fill="#7FBECB"/>
<path d="M222.314 72.024V74.7121H220.526V83.7001H218.102V74.7121H217.766L213.494 83.7001H210.386L204.782 72.024H207.794L211.97 80.3761L216.014 72.024H222.314Z" fill="#7FBECB"/>
<path d="M202.979 72V74.688H184.811V72H202.979ZM187.931 76.488H199.859V79.176H187.931V76.488ZM184.811 81H202.979V83.7H184.811V81Z" fill="#7FBECB"/>
<path d="M174.678 72.036V81.48H175.446L179.418 77.448H182.91L176.622 83.7H170.514L164.166 77.412H167.682L171.69 81.444H172.422V72.036H174.678Z" fill="#7FBECB"/>
<path d="M155.206 72.012L148.75 83.7H144.718L138.79 73.02V72.468L139.114 72.096L139.51 72.012H144.922L147.646 76.86H144.838L143.086 73.332H141.766L146.47 81.828H147.07L152.566 72.012H155.206Z" fill="#7FBECB"/>
<path d="M136.909 72.036L127.117 83.7H123.721L130.921 75.06V74.856H122.281L124.393 72.036H136.909Z" fill="#7FBECB"/>
<path d="M116.189 72.036L120.161 81.312L118.577 83.7H105.773L104.129 81.276L107.957 72.036H116.189ZM106.913 81.144H117.365L114.653 74.724H109.601L106.913 81.144Z" fill="#7FBECB"/>
<path d="M93.9237 72.036V81.48H94.6917L98.6637 77.448H102.156L95.8677 83.7H89.7597L83.4117 77.412H86.9277L90.9357 81.444H91.6677V72.036H93.9237Z" fill="#7FBECB"/>
<path d="M70.1096 72.036L78.9776 80.928V72.036H81.4736V83.7H78.0536L66.3776 72.036H70.1096ZM65.4056 78.156L74.4776 81.444L73.6736 83.7L64.5656 80.472L65.4056 78.156Z" fill="#7FBECB"/>
<path d="M36.1684 72.036H38.8804V74.328H46.2124L49.9564 72.036H55.4044L46.2124 77.028H36.1684V72.036ZM36.1684 78.708H46.5124L55.5244 83.7H50.4244L46.0084 81.408H38.8444V83.7H36.1684V78.708Z" fill="#7FBECB"/>
<path d="M18.5487 72.036V81.48H19.3167L23.2887 77.448H26.7807L20.4927 83.7H14.3847L8.03674 77.412H11.5527L15.5607 81.444H16.2927V72.036H18.5487Z" fill="#7FBECB"/>
<path d="M2.47235 72.036L6.44436 81.312L4.86035 83.7H-7.94365L-9.58765 81.276L-5.75965 72.036H2.47235ZM-6.80365 81.144H3.64836L0.936354 74.724H-4.11565L-6.80365 81.144Z" fill="#7FBECB"/>
<path d="M233.012 54.036L241.88 62.928V54.036H244.376V65.7H240.956L229.28 54.036H233.012ZM228.308 60.156L237.38 63.444L236.576 65.7L227.468 62.472L228.308 60.156Z" fill="#7FBECB"/>
<path d="M223.537 52.6801L224.977 53.7481H222.817V61.0801L220.153 58.5241V52.6801H223.537Z" fill="#7FBECB"/>
<path d="M208.999 54.036V63.48H209.767L213.739 59.448H217.231L210.943 65.7H204.835L198.487 59.412H202.003L206.011 63.444H206.743V54.036H208.999Z" fill="#7FBECB"/>
<path d="M196.461 54V65.7H194.241V56.94L191.877 59.292L190.161 57.564C190.137 57.5 190.169 57.436 190.257 57.372L193.569 54H196.461Z" fill="#7FBECB"/>
<path d="M176.535 65.7V59.796H179.163V65.7H176.535ZM172.923 65.712V59.808H175.551V65.712H172.923Z" fill="#7FBECB"/>
<path d="M162.117 54.036V63.48H162.885L166.857 59.448H170.349L164.061 65.7H157.953L151.605 59.412H155.121L159.129 63.444H159.861V54.036H162.117Z" fill="#7FBECB"/>
<path d="M146.041 54.036L150.013 63.312L148.429 65.7H135.625L133.981 63.276L137.809 54.036H146.041ZM136.765 63.144H147.217L144.505 56.724H139.453L136.765 63.144Z" fill="#7FBECB"/>
<path d="M117.241 63.444L117.529 63.42L122.437 54.036H125.521L132.049 65.7H129.025L124.009 56.484L119.137 65.7H116.137L115.957 65.688L115.657 65.256L115.381 64.788L115.009 64.14L114.685 63.396L114.373 62.616L114.193 61.716L114.001 60.696L113.929 59.64L114.001 58.584L114.097 57.624L114.289 56.688L114.493 55.98L114.817 55.332L115.129 54.768L115.501 54.3L115.717 54.06H117.937L117.553 54.432L117.241 54.888L116.929 55.452L116.689 56.004L116.473 56.688L116.281 57.588L116.125 58.584L116.065 59.58L116.125 60.576L116.317 61.632L116.557 62.436L116.809 62.928L117.241 63.444Z" fill="#7FBECB"/>
<path d="M96.3331 54.036V63.48H97.1011L101.073 59.448H104.565L98.2771 65.7H92.1691L85.8211 59.412H89.3371L93.3451 63.444H94.0771V54.036H96.3331Z" fill="#7FBECB"/>
<path d="M84.1013 54V56.688H65.9333V54H84.1013ZM69.0533 58.488H80.9813V61.176H69.0533V58.488ZM65.9333 63H84.1013V65.7H65.9333V63Z" fill="#7FBECB"/>
<path d="M63.8199 54L63.7839 54.204L57.5079 65.7H47.2839V54H49.4799V63H56.2119L59.5719 56.496V56.424H53.9559V57.132H51.7239V54H63.8199Z" fill="#7FBECB"/>
<path d="M44.2732 54.036L44.8492 54.612V65.1L44.2372 65.7H28.7092V54.036H31.3972V63.18H42.1612V56.724H38.6932L37.0492 58.944H33.5812L37.2532 54.036H44.2732Z" fill="#7FBECB"/>
<path d="M22.8208 54.036L26.7928 63.312L25.2088 65.7H12.4048L10.7608 63.276L14.5888 54.036H22.8208ZM13.5448 63.144H23.9968L21.2848 56.724H16.2328L13.5448 63.144Z" fill="#7FBECB"/>
<path d="M8.81308 54V56.688H-9.35492V54H8.81308ZM-6.23492 58.488H5.69308V61.176H-6.23492V58.488ZM-9.35492 63H8.81308V65.7H-9.35492V63Z" fill="#7FBECB"/>
<path d="M265.711 36V47.7H263.491V38.94L261.127 41.292L259.411 39.564C259.387 39.5 259.419 39.436 259.507 39.372L262.819 36H265.711Z" fill="#7FBECB"/>
<path d="M244.731 47.412L244.491 47.7H247.167L247.575 47.292L247.923 46.788L248.295 46.224L248.667 45.516L248.979 44.64L249.219 43.74L249.327 42.672L249.399 41.616L249.327 40.56L249.219 39.588L249.015 38.652L248.775 37.944L248.427 37.284L248.091 36.72L247.683 36.252L247.443 36.012H243.567V41.616H246.099V37.404L246.375 37.968L246.615 38.652L246.819 39.564L246.987 40.56L247.059 41.556L246.987 42.552L246.855 43.644L246.615 44.448L246.303 45.204L245.931 45.828L245.547 46.416L245.139 46.92L244.731 47.412Z" fill="#7FBECB"/>
<path d="M241.074 36.024V38.7121H239.286V47.7001H236.862V38.7121H236.526L232.254 47.7001H229.146L223.542 36.024H226.554L230.73 44.376L234.774 36.024H241.074Z" fill="#7FBECB"/>
<path d="M210.156 36.036L219.024 44.928V36.036H221.52V47.7H218.1L206.424 36.036H210.156ZM205.452 42.156L214.524 45.444L213.72 47.7L204.612 44.472L205.452 42.156Z" fill="#7FBECB"/>
<path d="M202.489 36V47.7H200.269V38.94L197.905 41.292L196.189 39.564C196.165 39.5 196.197 39.436 196.285 39.372L199.597 36H202.489Z" fill="#7FBECB"/>
<path d="M193.924 36.2041L194.02 36.3961L194.092 36.8281V46.9801L194.032 47.3521L193.936 47.5561L193.696 47.6281L193.24 47.7001H177.94L177.46 47.6521L177.22 47.5201L177.124 47.2801L177.052 46.9201V36.8281L177.112 36.4681L177.208 36.2041L177.448 36.0841L177.904 36.0601H193.24L193.72 36.1201L193.924 36.2041ZM191.776 44.8801V38.7241H179.692V44.8801H191.776Z" fill="#7FBECB"/>
<path d="M167.984 36.024V38.7121H166.196V47.7001H163.772V38.7121H163.436L159.164 47.7001H156.056L150.452 36.024H153.464L157.64 44.376L161.684 36.024H167.984Z" fill="#7FBECB"/>
<path d="M148.648 36V38.688H130.48V36H148.648ZM133.6 40.488H145.528V43.176H133.6V40.488ZM130.48 45H148.648V47.7H130.48V45Z" fill="#7FBECB"/>
<path d="M120.347 36.036V45.48H121.115L125.087 41.448H128.579L122.291 47.7H116.183L109.835 41.412H113.351L117.359 45.444H118.091V36.036H120.347Z" fill="#7FBECB"/>
<path d="M89.2743 36.036L98.1423 44.928V36.036H100.638V47.7H97.2184L85.5424 36.036H89.2743ZM84.5704 42.156L93.6423 45.444L92.8383 47.7L83.7303 44.472L84.5704 42.156Z" fill="#7FBECB"/>
<path d="M81.6075 36V47.7H79.3875V38.94L77.0235 41.292L75.3075 39.564C75.2835 39.5 75.3155 39.436 75.4035 39.372L78.7155 36H81.6075Z" fill="#7FBECB"/>
<path d="M73.1863 36.024V38.7121H71.3983V47.7001H68.9743V38.7121H68.6383L64.3663 47.7001H61.2583L55.6543 36.024H58.6663L62.8423 44.376L66.8863 36.024H73.1863Z" fill="#7FBECB"/>
<path d="M53.2076 36.036L53.7836 36.612V47.1L53.1716 47.7H37.6436V36.036H40.3316V45.18H51.0956V38.724H47.6276L45.9836 40.944H42.5156L46.1876 36.036H53.2076Z" fill="#7FBECB"/>
<path d="M35.3621 36L35.3261 36.204L29.0501 47.7H18.8261V36H21.0221V45H27.7541L31.1141 38.496V38.424H25.4981V39.132H23.2661V36H35.3621Z" fill="#7FBECB"/>
<path d="M-2.86444 36.036H-0.152441V38.328H7.17956L10.9236 36.036H16.3716L7.17956 41.028H-2.86444V36.036ZM-2.86444 42.708H7.47956L16.4916 47.7H11.3916L6.97556 45.408H-0.18844V47.7H-2.86444V42.708Z" fill="#7FBECB"/>
<path d="M246.511 18V20.688H228.343V18H246.511ZM231.464 22.488H243.391V25.176H231.464V22.488ZM228.343 27H246.511V29.7H228.343V27Z" fill="#7FBECB"/>
<path d="M218.21 18.036V27.48H218.978L222.95 23.448H226.442L220.154 29.7H214.046L207.698 23.412H211.214L215.222 27.444H215.954V18.036H218.21Z" fill="#7FBECB"/>
<path d="M206.033 18.036L196.241 29.7H192.845L200.045 21.06V20.856H191.405L193.517 18.036H206.033Z" fill="#7FBECB"/>
<path d="M169.835 18.036H172.547V20.328H179.879L183.623 18.036H189.071L179.879 23.028H169.835V18.036ZM169.835 24.708H180.179L189.191 29.7H184.091L179.675 27.408H172.511V29.7H169.835V24.708Z" fill="#7FBECB"/>
<path d="M167.636 18.12L167.6 18.324L157.952 29.7H154.448L158.384 25.26H154.112L155.936 22.596H160.7L162.26 20.784L153.488 20.772L155.204 18.12H167.636Z" fill="#7FBECB"/>
<path d="M136.802 18.0959V20.8919C138.306 20.6439 139.506 20.3559 140.402 20.0279C141.298 19.6999 142.594 19.0039 144.29 17.9399V20.3399C142.946 21.2359 141.75 21.8999 140.702 22.3319C139.654 22.7559 138.354 23.1279 136.802 23.4479V27.0239H144.29V29.6999H127.058V21.6719L130.202 21.6599C131.626 21.5959 133.002 21.4519 134.33 21.2279L134.342 18.0959H136.802ZM129.71 27.0239H134.342V24.0119C133.262 24.1559 132.138 24.2439 130.97 24.2759H129.698L129.71 27.0239Z" fill="#7FBECB"/>
<path d="M121.158 18.036L125.13 27.312L123.546 29.7H110.742L109.098 27.276L112.926 18.036H121.158ZM111.882 27.144H122.334L119.622 20.724H114.57L111.882 27.144Z" fill="#7FBECB"/>
<path d="M99.9101 18.012L93.4541 29.7H89.4221L83.4941 19.02V18.468L83.8181 18.096L84.2141 18.012H89.6261L92.3501 22.86H89.5421L87.7901 19.332H86.4701L91.1741 27.828H91.7741L97.2701 18.012H99.9101Z" fill="#7FBECB"/>
<path d="M81.4633 18.12L81.4273 18.324L71.7793 29.7H68.2753L72.2113 25.26H67.9393L69.7633 22.596H74.5273L76.0873 20.784L67.3153 20.772L69.0313 18.12H81.4633Z" fill="#7FBECB"/>
<path d="M65.4942 18.024V20.712H63.7062V29.7H61.2822V20.712H60.9462L56.6742 29.7H53.5662L47.9622 18.024H50.9742L55.1502 26.376L59.1942 18.024H65.4942Z" fill="#7FBECB"/>
<path d="M45.9207 18L45.8847 18.204L39.6087 29.7H29.3847V18H31.5807V27H38.3127L41.6727 20.496V20.424H36.0567V21.132H33.8247V18H45.9207Z" fill="#7FBECB"/>
<path d="M7.69415 18.036H10.4062V20.328H17.7382L21.4822 18.036H26.9302L17.7382 23.028H7.69415V18.036ZM7.69415 24.708H18.0382L27.0502 29.7H21.9502L17.5342 27.408H10.3702V29.7H7.69415V24.708Z" fill="#7FBECB"/>
<path d="M5.64509 18.036L-4.14691 29.7H-7.54291L-0.342911 21.06V20.856H-8.98291L-6.87091 18.036H5.64509Z" fill="#7FBECB"/>
<path d="M301.925 0.0240479V2.71205H300.137V11.7H297.713V2.71205H297.377L293.105 11.7H289.997L284.393 0.0240479H287.405L291.581 8.37605L295.625 0.0240479H301.925Z" fill="#7FBECB"/>
<path d="M282.589 0V2.688H264.421V0H282.589ZM267.541 4.488H279.469V7.176H267.541V4.488ZM264.421 9H282.589V11.7H264.421V9Z" fill="#7FBECB"/>
<path d="M254.288 0.0360107V9.48001H255.056L259.028 5.44801H262.52L256.232 11.7H250.124L243.776 5.41201H247.292L251.3 9.44401H252.032V0.0360107H254.288Z" fill="#7FBECB"/>
<path d="M234.852 0.0360107L225.06 11.7H221.664L228.864 3.06001V2.85601H220.224L222.336 0.0360107H234.852Z" fill="#7FBECB"/>
<path d="M198.654 0.0360107H201.366V2.32801H208.698L212.442 0.0360107H217.89L208.698 5.02801H198.654V0.0360107ZM198.654 6.70801H208.998L218.01 11.7H212.91L208.494 9.40801H201.33V11.7H198.654V6.70801Z" fill="#7FBECB"/>
<path d="M196.568 0.0240479V2.71205H194.78V11.7H192.356V2.71205H192.02L187.748 11.7H184.64L179.036 0.0240479H182.048L186.224 8.37605L190.268 0.0240479H196.568Z" fill="#7FBECB"/>
<path d="M177.233 0V2.688H159.065V0H177.233ZM162.185 4.488H174.113V7.176H162.185V4.488ZM159.065 9H177.233V11.7H159.065V9Z" fill="#7FBECB"/>
<path d="M149.985 0.0360107L140.193 11.7H136.797L143.997 3.06001V2.85601H135.357L137.469 0.0360107H149.985Z" fill="#7FBECB"/>
<path d="M133.128 0.0240479V2.71205H131.34V11.7H128.916V2.71205H128.58L124.308 11.7H121.2L115.596 0.0240479H118.608L122.784 8.37605L126.828 0.0240479H133.128Z" fill="#7FBECB"/>
<path d="M103.275 0.0360107L106.371 3.16801H106.875L109.959 0.0360107H113.763L107.739 6.08401V11.7H105.495V6.08401L99.4708 0.072011L103.275 0.0360107Z" fill="#7FBECB"/>
<path d="M97.4817 0.0240479V2.71205H95.6936V11.7H93.2697V2.71205H92.9336L88.6617 11.7H85.5536L79.9496 0.0240479H82.9616L87.1376 8.37605L91.1816 0.0240479H97.4817Z" fill="#7FBECB"/>
<path d="M70.2442 0.0360107L70.8202 0.612011V11.1L70.2082 11.7H54.6802V0.0360107H57.3682V9.18001H68.1322V2.72401H64.6642L63.0202 4.94401H59.5522L63.2242 0.0360107H70.2442Z" fill="#7FBECB"/>
<path d="M48.7919 0.0360107L52.7639 9.31201L51.1799 11.7H38.3759L36.7319 9.27601L40.5599 0.0360107H48.7919ZM39.5159 9.14401H49.9679L47.2559 2.72401H42.2039L39.5159 9.14401Z" fill="#7FBECB"/>
<path d="M34.8031 0.0119629L28.3471 11.7H24.3151L18.3871 1.01996V0.467963L18.7111 0.0959625L19.1071 0.0119629H24.5191L27.2431 4.85996H24.4351L22.6831 1.33196H21.3631L26.0671 9.82796H26.6671L32.1631 0.0119629H34.8031Z" fill="#7FBECB"/>
<path d="M9.09771 0.119995L9.06171 0.323995L-0.586292 11.7H-4.09029L-0.154293 7.25999H-4.42629L-2.60229 4.596H2.16171L3.72171 2.784L-5.05029 2.772L-3.33429 0.119995H9.09771Z" fill="#7FBECB"/>
</g>
<defs>
<clipPath id="clip0_167_937">
<rect width="334" height="336" fill="white" transform="translate(-30)"/>
</clipPath>
</defs>
</svg>
