<svg width="110" height="32" viewBox="0 0 110 32" fill="none" xmlns="http://www.w3.org/2000/svg">
<path d="M69.6536 2.66666L62.6536 29.3333H51.3203L48.987 20.4333L46.6536 29.3333H35.3203L28.3203 2.66666H38.6536L40.987 11.5667L43.3203 2.66666H54.6536L56.987 11.5667L59.3203 2.66666H69.6536Z" fill="white"/>
<path d="M26.6667 11H16.0667C15.6222 11 15.4 11.2555 15.4 11.7667C15.4 11.9 15.4333 11.9889 15.5 12.0333L20.3333 15.6667C22.3333 17.1778 23.3333 19.2 23.3333 21.7333C23.3333 23.8444 22.4667 25.6444 20.7333 27.1333C19.0222 28.6 17.1 29.3333 14.9667 29.3333H0V21H9.9C10.3444 21 10.5667 20.7333 10.5667 20.2C10.5667 20.0889 10.5333 20.0111 10.4667 19.9667L5.96667 16.6667C4.21111 15.3778 3.33333 13.4111 3.33333 10.7667C3.33333 8.58888 4.17778 6.69999 5.86667 5.09999C7.55556 3.47777 9.48889 2.66666 11.6667 2.66666H26.6667V11Z" fill="white"/>
<path d="M92.652 32C92.0558 31.9183 91.4597 31.8401 90.8642 31.752C90.6176 31.7154 90.3723 31.6654 90.1285 31.6111C89.693 31.5146 89.5317 31.3117 89.5267 30.8699C89.5253 30.7164 89.5267 30.5621 89.5267 30.3747C88.765 30.3747 88.0286 30.3747 87.2922 30.3747C86.5833 30.3747 86.4015 30.1943 86.4015 29.4926C86.4015 28.9642 86.4015 28.4358 86.4015 27.875C85.6271 27.875 84.8801 27.875 84.1332 27.875C83.4708 27.875 83.2763 27.6813 83.2763 27.0218C83.2763 26.4829 83.2763 25.9446 83.2763 25.3754C82.7076 25.3754 82.1692 25.3754 81.6309 25.3754C81.1623 25.3754 80.6937 25.3796 80.225 25.374C79.8029 25.369 79.5218 25.1077 79.5288 24.7385C79.5352 24.3806 79.8093 24.1298 80.2166 24.127C80.9142 24.1213 81.6125 24.1256 82.3102 24.1256C82.4124 24.1256 82.5138 24.1256 82.6336 24.1256V22.8757H82.3144C81.4293 22.8757 80.5436 22.8771 79.6585 22.8757C79.1857 22.875 78.8939 22.6242 78.9038 22.236C78.9129 21.8598 79.1969 21.6287 79.6578 21.6273C80.2279 21.6252 80.7987 21.6273 81.3849 21.6273V20.3775C81.2792 20.3775 81.17 20.3775 81.0608 20.3775C80.373 20.3775 79.686 20.3803 78.9982 20.3768C78.5648 20.3747 78.2858 20.133 78.2787 19.7646C78.271 19.3855 78.5578 19.1319 79.0053 19.1284C79.3773 19.1256 79.7494 19.1284 80.1363 19.1284V14.7533C79.662 14.7533 79.1878 14.7533 78.7135 14.7533C78.5677 14.7533 78.4218 14.7589 78.2759 14.7505C77.9151 14.73 77.6579 14.4729 77.6537 14.1361C77.6488 13.7888 77.9137 13.5126 78.29 13.5063C78.8939 13.4964 79.4978 13.5035 80.1511 13.5035C80.1511 13.3936 80.1511 13.2949 80.1511 13.1963C80.1511 12.4988 80.1482 11.8006 80.1518 11.1032C80.1546 10.6128 80.3899 10.381 80.8846 10.3782C81.4568 10.3747 82.0297 10.3775 82.6259 10.3775V9.12769C82.1361 9.12769 81.64 9.12769 81.1439 9.12769C81.0192 9.12769 80.8938 9.13332 80.7691 9.12487C80.4104 9.10232 80.1539 8.84165 80.1525 8.50489C80.1511 8.16883 80.4069 7.90111 80.7634 7.88068C80.96 7.86941 81.1573 7.87857 81.4004 7.87857C81.4004 7.33749 81.4004 6.81051 81.4004 6.28423C81.4004 5.55083 81.5717 5.37681 82.2968 5.37681C82.8168 5.37681 83.3362 5.37681 83.9006 5.37681C83.9006 4.86673 83.9204 4.37075 83.8943 3.87618C83.8724 3.46544 84.0324 3.19983 84.3657 2.96664C87.6368 0.672009 91.2638 -0.289664 95.2311 0.0752783C102.326 0.727666 108.238 6.22787 109.411 13.2407C109.508 13.824 109.574 14.413 109.654 14.9992V16.9366C109.55 17.6658 109.475 18.4006 109.338 19.1234C108.96 21.1194 108.198 22.9659 107.097 24.6723C106.858 25.0421 106.516 25.1464 106.198 24.9527C105.867 24.7512 105.8 24.3834 106.046 23.9994C107.198 22.2043 107.936 20.2542 108.243 18.1435C108.314 17.6524 108.35 17.1564 108.405 16.6414H81.4223V19.1242C81.998 19.1242 82.5674 19.1192 83.1375 19.1277C83.2798 19.1298 83.4355 19.1432 83.5596 19.2045C83.8182 19.3313 83.9323 19.5617 83.8901 19.8512C83.8485 20.1373 83.6103 20.3451 83.3073 20.3712C83.2037 20.3803 83.0994 20.3747 82.9951 20.3754C82.8929 20.3754 82.7908 20.3754 82.6703 20.3754V21.6252C83.253 21.6252 83.8231 21.6238 84.3932 21.6252C84.8653 21.6266 85.1585 21.876 85.1493 22.2635C85.1409 22.6397 84.8562 22.8708 84.396 22.8743C84.2424 22.8757 84.0888 22.8743 83.9182 22.8743V24.1044C84.4348 24.196 84.5539 24.5581 84.532 25.04C84.5088 25.5571 84.5264 26.0757 84.5264 26.6238C84.928 26.6238 85.3001 26.6238 85.6722 26.6238C86.5058 26.6238 87.3387 26.6217 88.1724 26.6245C88.6198 26.6259 88.9073 26.8816 88.8996 27.2607C88.8925 27.6277 88.6121 27.8673 88.1794 27.8736C88.0152 27.8757 87.8503 27.8736 87.6692 27.8736V29.1234C87.782 29.1234 87.9018 29.1234 88.0216 29.1234C88.6882 29.1234 89.3548 29.1213 90.0214 29.1234C90.552 29.1256 90.7733 29.3524 90.7768 29.8907C90.7782 30.076 90.7768 30.2612 90.7768 30.462C92.0431 30.71 93.2932 30.7995 94.5553 30.7192C97.3676 30.5402 99.9207 29.6321 102.221 28.0068C102.572 27.7595 102.945 27.806 103.159 28.104C103.378 28.4076 103.3 28.7698 102.947 29.0199C100.54 30.7262 97.868 31.7076 94.9252 31.9436C94.8125 31.9528 94.7012 31.9796 94.5898 31.9979H92.652V32ZM85.1521 5.3747C85.7934 5.3747 86.3867 5.36976 86.98 5.3761C87.3535 5.38033 87.6171 5.61212 87.6474 5.94395C87.6833 6.33214 87.3859 6.6224 86.9342 6.62311C85.6214 6.62663 84.3093 6.62452 82.9965 6.62452C82.8866 6.62452 82.7767 6.62452 82.6667 6.62452V7.87504C83.2826 7.87504 83.8844 7.86941 84.4855 7.87716C84.8822 7.88209 85.1571 8.15404 85.1493 8.51264C85.1416 8.85926 84.8738 9.11078 84.4911 9.12346C84.2988 9.1298 84.1057 9.12487 83.9189 9.12487V10.3754C84.5066 10.3754 85.0767 10.374 85.6475 10.3754C86.107 10.3768 86.3916 10.6107 86.3994 10.9869C86.4079 11.3744 86.1147 11.6238 85.6419 11.6245C84.3608 11.6259 83.0797 11.6245 81.7979 11.6245C81.676 11.6245 81.5534 11.6245 81.4202 11.6245V15.3585H108.396C108.359 14.9703 108.333 14.599 108.287 14.2305C107.85 10.7065 106.347 7.70314 103.76 5.28311C100.592 2.31848 96.8081 0.996793 92.4744 1.30397C89.8734 1.48855 87.5008 2.34736 85.3487 3.81559C85.2656 3.87265 85.1655 3.97904 85.1613 4.0664C85.1416 4.49052 85.1528 4.91535 85.1528 5.3747H85.1521Z" fill="white"/>
<path d="M92.5716 24.7498C91.979 24.7498 91.3871 24.7533 90.7944 24.7484C90.3702 24.7448 90.0905 24.4898 90.0919 24.122C90.0933 23.7543 90.373 23.5021 90.7994 23.5007C91.9945 23.4971 93.1896 23.4971 94.3847 23.5007C94.8082 23.5021 95.0894 23.7592 95.088 24.1263C95.0866 24.494 94.8061 24.7448 94.3805 24.7477C93.778 24.7519 93.1748 24.7491 92.5723 24.7491L92.5716 24.7498Z" fill="white"/>
<path d="M87.6037 18.4999C87.9983 18.4999 88.3929 18.495 88.7875 18.5013C89.1871 18.5077 89.4612 18.767 89.4619 19.1234C89.4619 19.4806 89.1885 19.7441 88.7896 19.7476C87.9898 19.754 87.1907 19.754 86.3909 19.7476C85.9907 19.7448 85.7173 19.4827 85.7166 19.1256C85.7166 18.7684 85.9893 18.5084 86.3888 18.5013C86.794 18.4943 87.1985 18.4999 87.6037 18.4999Z" fill="white"/>
<path d="M97.5811 27.2494C97.1865 27.2494 96.7919 27.2543 96.3973 27.248C95.9949 27.2417 95.7215 26.988 95.7173 26.6308C95.713 26.2736 95.9865 26.0052 96.3839 26.0017C97.1837 25.9947 97.9828 25.9954 98.7826 26.0017C99.185 26.0045 99.4591 26.261 99.4626 26.6182C99.4668 26.9859 99.1857 27.2438 98.765 27.2487C98.3704 27.2536 97.9758 27.2494 97.5811 27.2494Z" fill="white"/>
<path d="M87.3007 21.0031C87.4148 21.0031 87.5297 20.9939 87.6424 21.0052C87.9743 21.0397 88.2167 21.3117 88.2118 21.6329C88.2076 21.9422 87.9743 22.2128 87.6558 22.2402C87.4092 22.2614 87.1576 22.2607 86.911 22.2417C86.5777 22.2163 86.3374 21.9373 86.3416 21.6153C86.3458 21.2927 86.5911 21.0327 86.9279 21.0038C87.0512 20.9932 87.1766 21.0024 87.3007 21.0024V21.0031Z" fill="white"/>
<path d="M91.6499 27.2452C91.5259 27.2452 91.3998 27.2572 91.2771 27.2431C90.9459 27.2057 90.7078 26.9289 90.7169 26.6076C90.7261 26.2983 90.9622 26.0348 91.2814 26.0081C91.5076 25.989 91.7373 25.9933 91.9649 26.0038C92.3215 26.02 92.5801 26.2793 92.5871 26.6118C92.5949 26.957 92.3306 27.2269 91.9607 27.2487C91.8571 27.2551 91.7535 27.2494 91.6499 27.2494C91.6499 27.248 91.6499 27.2473 91.6499 27.2459V27.2452Z" fill="white"/>
<path d="M104.779 27.2438C104.448 27.2494 104.163 26.9768 104.152 26.6435C104.14 26.292 104.412 26.0038 104.762 25.9996C105.096 25.9954 105.381 26.2624 105.396 26.5956C105.411 26.9345 105.122 27.2381 104.78 27.2445L104.779 27.2438Z" fill="white"/>
<path d="M97.2873 14.1242C94.3622 14.1277 91.9713 11.7492 91.9649 8.82898C91.9586 5.88901 94.3453 3.49716 97.2831 3.49927C100.207 3.50138 102.589 5.88549 102.59 8.80925C102.591 11.733 100.209 14.1199 97.2873 14.1242ZM101.34 8.817C101.342 6.58649 99.524 4.75684 97.2986 4.74909C95.0521 4.74134 93.2171 6.56465 93.215 8.80573C93.2129 11.0355 95.031 12.8659 97.2563 12.8743C99.5021 12.8821 101.338 11.0581 101.341 8.81771L101.34 8.817Z" fill="white"/>
<path d="M99.464 8.80501C99.4668 10.0097 98.4866 10.9954 97.2838 10.9982C96.0809 11.001 95.0929 10.0196 95.0908 8.81769C95.088 7.61296 96.0682 6.62733 97.2711 6.62522C98.4768 6.6231 99.4612 7.60168 99.464 8.80501ZM98.2139 8.82262C98.2203 8.31748 97.8024 7.88561 97.2965 7.87504C96.7919 7.86447 96.3557 8.27944 96.3409 8.78458C96.3254 9.30099 96.7567 9.74625 97.2732 9.74836C97.7785 9.75048 98.2069 9.32847 98.2132 8.82333L98.2139 8.82262Z" fill="white"/>
</svg>
