<svg width="363" height="120" viewBox="0 0 363 120" fill="none" xmlns="http://www.w3.org/2000/svg">
<g filter="url(#filter0_d_154_819)">
<path d="M144.391 48H114.391V16H126.391V38H144.391V48ZM178.625 32C178.625 36.48 176.892 40.2933 173.425 43.44C170.092 46.48 166.158 48 161.625 48C157.092 48 153.158 46.48 149.825 43.44C146.358 40.2933 144.625 36.48 144.625 32V16H155.425V32C155.425 33.6267 156.038 35.04 157.265 36.24C158.518 37.4133 159.972 38 161.625 38C163.252 38 164.692 37.4133 165.945 36.24C167.198 35.04 167.825 33.6267 167.825 32V16H178.625V32ZM214.625 48H206.225C203.558 48 200.892 46.6667 198.225 44L192.625 38.4V48H180.625V16H192.625V26.48L199.985 16H214.625L202.945 32.72L207.745 37.52C208.065 37.84 208.718 38 209.705 38H214.625V48ZM248.625 48H216.625V16H248.625V26H228.625V27.8H240.625V36.2H228.625V38H248.625V48ZM48.0703 82H35.3503C34.817 82 34.5503 82.3067 34.5503 82.92C34.5503 83.08 34.5903 83.1867 34.6703 83.24L40.4703 87.6C42.8703 89.4133 44.0703 91.84 44.0703 94.88C44.0703 97.4133 43.0303 99.5733 40.9503 101.36C38.897 103.12 36.5903 104 34.0303 104H16.0703V94H27.9503C28.4836 94 28.7503 93.68 28.7503 93.04C28.7503 92.9067 28.7103 92.8133 28.6303 92.76L23.2303 88.8C21.1236 87.2533 20.0703 84.8933 20.0703 81.72C20.0703 79.1067 21.0836 76.84 23.1103 74.92C25.137 72.9733 27.457 72 30.0703 72H48.0703V82ZM84.0547 104H75.6547C72.988 104 70.3214 102.667 67.6547 100L62.0547 94.4V104H50.0547V72H62.0547V82.48L69.4147 72H84.0547L72.3747 88.72L77.1747 93.52C77.4947 93.84 78.148 94 79.1347 94H84.0547V104ZM123.655 72L110.855 94V104H98.8547V94L86.0547 72H99.6547L104.855 81.4L110.055 72H123.655ZM175.264 72L166.864 104H153.264L150.464 93.32L147.664 104H134.064L125.664 72H138.064L140.864 82.68L143.664 72H157.264L160.064 82.68L162.864 72H175.264ZM206.898 104H194.498L193.458 100H184.338L183.298 104H170.898L179.298 72H198.498L206.898 104ZM191.338 92L188.898 82.68L186.458 92H191.338ZM238.914 104H208.914V72H220.914V94H238.914V104ZM274.93 104H266.53C263.863 104 261.196 102.667 258.53 100L252.93 94.4V104H240.93V72H252.93V82.48L260.29 72H274.93L263.25 88.72L268.05 93.52C268.37 93.84 269.023 94 270.01 94H274.93V104ZM308.93 104H276.93V72H308.93V82H288.93V83.8H300.93V92.2H288.93V94H308.93V104ZM346.914 104H336.514C333.847 104 331.181 102.667 328.514 100L322.914 94.4V104H310.914V72H333.714C336.674 72 339.274 73.0667 341.514 75.2C343.781 77.3333 344.914 79.8667 344.914 82.8C344.914 84.96 344.274 86.96 342.994 88.8C341.714 90.64 340.061 91.9467 338.034 92.72C338.514 93.5733 339.207 94 340.114 94H346.914V104ZM332.914 83.2C332.914 82.56 332.674 82 332.194 81.52C331.714 81.04 331.154 80.8 330.514 80.8H322.914V85.6H330.514C331.154 85.6 331.714 85.36 332.194 84.88C332.674 84.4 332.914 83.84 332.914 83.2Z" fill="#FBFBFB"/>
</g>
<defs>
<filter id="filter0_d_154_819" x="0.0703125" y="0" width="362.844" height="120" filterUnits="userSpaceOnUse" color-interpolation-filters="sRGB">
<feFlood flood-opacity="0" result="BackgroundImageFix"/>
<feColorMatrix in="SourceAlpha" type="matrix" values="0 0 0 0 0 0 0 0 0 0 0 0 0 0 0 0 0 0 127 0" result="hardAlpha"/>
<feOffset/>
<feGaussianBlur stdDeviation="8"/>
<feComposite in2="hardAlpha" operator="out"/>
<feColorMatrix type="matrix" values="0 0 0 0 0.498039 0 0 0 0 0.745098 0 0 0 0 0.796078 0 0 0 1 0"/>
<feBlend mode="normal" in2="BackgroundImageFix" result="effect1_dropShadow_154_819"/>
<feBlend mode="normal" in="SourceGraphic" in2="effect1_dropShadow_154_819" result="shape"/>
</filter>
</defs>
</svg>
