<svg width="1376" height="737" viewBox="0 0 1376 737" fill="none" xmlns="http://www.w3.org/2000/svg">
<g clip-path="url(#clip0_250_1079)">
<path d="M1547.52 720.456L365.978 368.456L423.311 734.956H1533.02C1541.03 734.956 1547.52 728.464 1547.52 720.456Z" fill="#192960" stroke="white" stroke-width="3" stroke-linejoin="round"/>
<g style="mix-blend-mode:lighten">
<path d="M1547.52 16.4561L365.978 368.456L423.311 1.95605H1533.02C1541.03 1.95605 1547.52 8.44793 1547.52 16.4561Z" fill="url(#paint0_linear_250_1079)"/>
<path d="M1547.52 16.4561L365.978 368.456L423.311 1.95605H1533.02C1541.03 1.95605 1547.52 8.44793 1547.52 16.4561Z" stroke="white" stroke-width="3" stroke-linejoin="round"/>
</g>
<path d="M524.6 734.956L367.889 368.456L1220.24 734.956H524.6Z" fill="#5688E7" stroke="#A8D2FF" stroke-width="3" stroke-linejoin="round"/>
<g style="mix-blend-mode:lighten">
<path d="M523.644 2.45605L366.933 368.456L1219.29 2.45605H523.644Z" fill="url(#paint1_linear_250_1079)"/>
<path d="M523.644 2.45605L366.933 368.456L1219.29 2.45605H523.644Z" stroke="#387DEB" stroke-width="3" stroke-linejoin="round"/>
</g>
<path d="M673.667 734.956L367.889 368.456L920.2 734.956H673.667Z" fill="#5688E7" stroke="#A8D2FF" stroke-width="3" stroke-linejoin="round"/>
<g style="mix-blend-mode:lighten">
<path d="M672.711 2.45605L366.933 368.456L919.244 2.45605H672.711Z" fill="url(#paint2_linear_250_1079)"/>
<path d="M672.711 2.45605L366.933 368.456L919.244 2.45605H672.711Z" stroke="#387DEB" stroke-width="3" stroke-linejoin="round"/>
</g>
<path d="M99.3778 333.456H87.9111V361.456L99.3778 333.456Z" fill="white"/>
<path d="M99.3778 412.456H87.9111V384.456L99.3778 412.456Z" fill="white"/>
<path d="M264.144 360.842V383.07C264.144 383.282 264.012 383.47 263.812 383.541L192.679 408.927C192.625 408.946 192.568 408.956 192.511 408.956H148.336C148.194 408.956 148.059 408.896 147.964 408.791L145.362 405.909C145.041 405.553 144.65 405.267 144.214 405.069L84.9262 378.082C84.7478 378.001 84.6333 377.823 84.6333 377.627V366.285C84.6333 366.089 84.7478 365.911 84.9262 365.83L144.214 338.843C144.65 338.645 145.041 338.359 145.362 338.003L147.964 335.121C148.059 335.016 148.194 334.956 148.336 334.956H192.511C192.568 334.956 192.625 334.966 192.679 334.985L263.812 360.371C264.012 360.442 264.144 360.63 264.144 360.842Z" stroke="white" stroke-width="3"/>
<path d="M116.633 452.445L117.1 453.869L116.633 452.445C116.382 452.527 116.11 452.4 116.013 452.154L84.8207 373.641C84.7736 373.522 84.7736 373.39 84.8207 373.271L116.013 294.758C116.11 294.512 116.382 294.385 116.633 294.467L260.897 341.768C260.972 341.793 261.039 341.834 261.095 341.889L269.217 349.982C270.767 351.526 273.338 351.286 274.575 349.48L275.773 347.732C275.896 347.551 276.123 347.472 276.332 347.536L359.302 372.978C359.773 373.123 359.773 373.79 359.302 373.934L276.332 399.376C276.123 399.44 275.896 399.361 275.773 399.18L274.575 397.432C273.338 395.627 270.767 395.386 269.217 396.93L261.095 405.023C261.039 405.078 260.972 405.12 260.897 405.144L116.633 452.445Z" stroke="white" stroke-width="3"/>
<path d="M125.317 360.658L143.895 369.709C145.768 370.621 145.768 373.291 143.895 374.204L125.317 383.254C124.626 383.591 123.818 383.591 123.127 383.254L104.549 374.204C102.676 373.291 102.676 370.621 104.549 369.709L123.127 360.658C123.818 360.321 124.626 360.321 125.317 360.658Z" stroke="white" stroke-width="3"/>
<path d="M864.778 331.456H859.044L870.511 321.456L881.978 331.456H876.244L870.511 326.456L864.778 331.456Z" fill="#FF2606"/>
<path d="M876.244 339.456L881.978 339.456L870.511 350.456L859.044 339.456L864.778 339.456L870.511 344.956L876.244 339.456Z" fill="#FF2606"/>
<rect opacity="0.6" x="814.133" y="18.4561" width="2.86667" height="24" rx="1.43333" fill="#387DEB"/>
<rect opacity="0.6" x="886.756" y="18.4561" width="2.86667" height="24" rx="1.43333" fill="#387DEB"/>
<rect opacity="0.6" x="1077.87" y="18.4561" width="2.86667" height="24" rx="1.43333" fill="#387DEB"/>
<rect opacity="0.6" x="1135.2" y="18.4561" width="2.86667" height="24" rx="1.43333" fill="#387DEB"/>
<rect opacity="0.6" x="1200.18" y="18.4561" width="2.86667" height="24" rx="1.43333" fill="#387DEB"/>
<rect opacity="0.6" x="1291.91" y="18.4561" width="2.86667" height="24" rx="1.43333" fill="#387DEB"/>
<rect opacity="0.6" x="710.933" y="18.4561" width="2.86667" height="24" rx="1.43333" fill="#387DEB"/>
<rect opacity="0.6" x="936.444" y="18.4561" width="2.86667" height="24" rx="1.43333" fill="#387DEB"/>
<rect opacity="0.6" x="1028.18" y="18.4561" width="2.86667" height="24" rx="1.43333" fill="#387DEB"/>
<rect opacity="0.6" x="963.2" y="18.4561" width="2.86667" height="24" rx="1.43333" fill="#387DEB"/>
<rect opacity="0.6" x="1001.42" y="18.4561" width="2.86667" height="24" rx="1.43333" fill="#387DEB"/>
<rect x="40.1334" y="48.4561" width="22.9333" height="3" rx="1.5" fill="#387DEB"/>
<rect x="40.1334" y="684.456" width="22.9333" height="3" rx="1.5" fill="#387DEB"/>
<rect x="40.1334" y="550.456" width="22.9333" height="3" rx="1.5" fill="#387DEB"/>
<rect x="40.1334" y="182.456" width="22.9333" height="3" rx="1.5" fill="#387DEB"/>
<rect x="40.1334" y="490.456" width="22.9333" height="3" rx="1.5" fill="#387DEB"/>
<rect x="40.1334" y="446.456" width="22.9333" height="3" rx="1.5" fill="#387DEB"/>
<rect x="40.1334" y="402.456" width="22.9333" height="3" rx="1.5" fill="#387DEB"/>
<rect x="40.1334" y="386.456" width="22.9333" height="3" rx="1.5" fill="#387DEB"/>
<rect x="40.1334" y="366.456" width="22.9333" height="3" rx="1.5" fill="#387DEB"/>
<rect x="40.1334" y="346.456" width="22.9333" height="3" rx="1.5" fill="#387DEB"/>
<rect x="40.1334" y="330.456" width="22.9333" height="3" rx="1.5" fill="#387DEB"/>
</g>
<rect x="1.5" y="1.95605" width="1373" height="733" rx="14.5" stroke="#387DEB" stroke-width="3"/>
<defs>
<linearGradient id="paint0_linear_250_1079" x1="956.75" y1="1.95605" x2="956.75" y2="368.456" gradientUnits="userSpaceOnUse">
<stop stop-color="#090F33" stop-opacity="0"/>
<stop offset="0.53125" stop-color="#090F33"/>
</linearGradient>
<linearGradient id="paint1_linear_250_1079" x1="793.111" y1="2.45605" x2="793.111" y2="368.456" gradientUnits="userSpaceOnUse">
<stop stop-color="#090F33" stop-opacity="0"/>
<stop offset="0.53125" stop-color="#090F33"/>
</linearGradient>
<linearGradient id="paint2_linear_250_1079" x1="643.089" y1="2.45605" x2="643.089" y2="368.456" gradientUnits="userSpaceOnUse">
<stop stop-color="#090F33" stop-opacity="0"/>
<stop offset="0.53125" stop-color="#090F33"/>
</linearGradient>
<clipPath id="clip0_250_1079">
<rect y="0.456055" width="1376" height="736" rx="16" fill="white"/>
</clipPath>
</defs>
</svg>
