<svg width="571" height="600" viewBox="0 0 571 600" fill="none" xmlns="http://www.w3.org/2000/svg">
<g clip-path="url(#clip0_211_1882)">
<path d="M324.553 296.452L447.745 83.0767C449.004 80.8966 451.33 79.5536 453.847 79.5536L700.232 79.5535C702.75 79.5535 705.076 80.8966 706.334 83.0767L829.527 296.452C830.786 298.632 830.786 301.318 829.527 303.498L706.335 516.874C705.076 519.054 702.75 520.397 700.232 520.397L453.847 520.397C451.33 520.397 449.004 519.054 447.745 516.874L324.553 303.498C323.294 301.318 323.294 298.632 324.553 296.452Z" fill="#FF2606" fill-opacity="0.3" stroke="#FF2606" stroke-width="2.01326"/>
<path d="M385.962 296.449L483.857 127.098C485.116 124.919 487.441 123.578 489.957 123.578L685.765 123.578C688.281 123.578 690.606 124.919 691.865 127.098L789.76 296.449C791.021 298.631 791.021 301.32 789.76 303.502L691.865 472.853C690.606 475.031 688.281 476.373 685.765 476.373L489.957 476.373C487.441 476.373 485.116 475.031 483.857 472.853L385.962 303.502C384.701 301.32 384.701 298.631 385.962 296.449Z" fill="#070614" stroke="#FF2606" stroke-width="2.01326"/>
<path d="M447.368 296.447L513.3 182.453C514.56 180.275 516.884 178.934 519.4 178.934L651.289 178.934C653.804 178.934 656.129 180.275 657.389 182.453L723.321 296.447C724.583 298.63 724.583 301.32 723.321 303.503L657.389 417.497C656.129 419.674 653.804 421.015 651.289 421.015L519.4 421.015C516.884 421.015 514.56 419.674 513.3 417.497L447.368 303.503C446.106 301.32 446.106 298.63 447.368 296.447Z" fill="#070614" stroke="#FF2606" stroke-width="2.01326"/>
<path d="M505.242 296.452L541.865 233.02C543.123 230.84 545.45 229.497 547.967 229.497L621.212 229.497C623.729 229.497 626.055 230.84 627.314 233.02L663.936 296.452C665.195 298.632 665.195 301.318 663.936 303.498L627.314 366.93C626.055 369.11 623.729 370.453 621.212 370.453L547.967 370.453C545.45 370.453 543.123 369.11 541.865 366.93L505.242 303.498C503.984 301.318 503.984 298.632 505.242 296.452Z" fill="#070614" stroke="#FF2606" stroke-width="2.01326"/>
<path d="M538.285 238.571L504.461 295.882C502.971 298.407 502.971 301.543 504.461 304.068L538.285 361.379" stroke="#FF2606" stroke-width="6.03977" stroke-linecap="round"/>
</g>
<g clip-path="url(#clip1_211_1882)">
<g filter="url(#filter0_d_211_1882)">
<path d="M876.512 299.975C876.512 465.647 742.208 599.95 576.537 599.95C410.865 599.95 276.561 465.647 276.561 299.975C276.561 134.303 410.865 0 576.537 0C742.208 0 876.512 134.303 876.512 299.975Z" stroke="#FF2606" stroke-width="8.05302" stroke-linecap="round" stroke-dasharray="0.25 83.55" shape-rendering="crispEdges"/>
</g>
</g>
<g clip-path="url(#clip2_211_1882)">
<path d="M859.902 299.975C859.902 299.63 859.902 299.285 859.9 298.94L855.874 298.955C855.839 289.377 855.307 279.916 854.303 270.597L858.307 270.166C858.233 269.481 858.157 268.797 858.078 268.113L854.078 268.574C852.984 259.082 851.4 249.739 849.352 240.571L853.282 239.694C853.132 239.023 852.979 238.353 852.825 237.684L848.902 238.592C846.753 229.303 844.128 220.198 841.053 211.302L844.858 209.986C844.634 209.338 844.407 208.69 844.179 208.044L840.383 209.388C837.206 200.419 833.572 191.666 829.506 183.158L833.139 181.422C832.843 180.803 832.545 180.184 832.244 179.567L828.624 181.33C824.464 172.788 819.867 164.497 814.865 156.485L818.28 154.353C817.916 153.77 817.55 153.189 817.182 152.609L813.783 154.767C808.697 146.757 803.204 139.032 797.331 131.62L800.486 129.12C800.06 128.582 799.632 128.045 799.201 127.511L796.064 130.035C790.123 122.651 783.803 115.585 777.134 108.866L779.992 106.029C779.508 105.542 779.023 105.057 778.536 104.573L775.699 107.431C768.98 100.761 761.914 94.4415 754.53 88.5003L757.054 85.3632C756.519 84.9329 755.983 84.5046 755.445 84.0783L752.944 87.2341C745.533 81.3611 737.807 75.8672 729.797 70.7816L731.955 67.3823C731.376 67.0143 730.795 66.6484 730.212 66.2846L728.079 69.6999C720.068 64.6973 711.777 60.1011 703.234 55.9402L704.997 52.3203C704.38 52.0197 703.762 51.7213 703.142 51.4252L701.406 55.0583C692.898 50.9931 684.146 47.3582 675.176 44.1816L676.521 40.3861C675.874 40.1572 675.227 39.9307 674.578 39.7065L673.263 43.5121C664.367 40.4368 655.261 37.8113 645.973 35.6628L646.88 31.7399C646.212 31.5852 645.542 31.4329 644.871 31.2831L643.993 35.2127C634.825 33.1647 625.482 31.5808 615.99 30.4867L616.451 26.4867C615.768 26.4079 615.084 26.3316 614.399 26.2579L613.968 30.2613C604.648 29.2577 595.187 28.7261 585.61 28.6908L585.624 24.6644C585.28 24.6631 584.935 24.6625 584.589 24.6625C584.244 24.6625 583.899 24.6631 583.555 24.6644L583.569 28.6908C573.991 28.7261 564.531 29.2577 555.211 30.2613L554.78 26.2579C554.095 26.3316 553.411 26.4079 552.728 26.4867L553.189 30.4867C543.696 31.5808 534.354 33.1647 525.186 35.2127L524.308 31.2831C523.637 31.4329 522.967 31.5852 522.299 31.7399L523.206 35.6628C513.918 37.8113 504.812 40.4368 495.916 43.5121L494.601 39.7065C493.952 39.9307 493.305 40.1572 492.658 40.3861L494.003 44.1816C485.033 47.3582 476.28 50.9931 467.773 55.0583L466.037 51.4252C465.417 51.7213 464.799 52.0197 464.181 52.3203L465.945 55.9402C457.402 60.1011 449.111 64.6973 441.1 69.6999L438.967 66.2846C438.384 66.6484 437.803 67.0143 437.224 67.3823L439.382 70.7816C431.371 75.8672 423.646 81.3611 416.235 87.2341L413.734 84.0783C413.196 84.5046 412.66 84.9329 412.125 85.3632L414.649 88.5003C407.265 94.4415 400.199 100.761 393.48 107.431L390.643 104.573C390.156 105.057 389.671 105.542 389.187 106.029L392.045 108.866C385.376 115.585 379.056 122.651 373.115 130.035L369.977 127.511C369.547 128.045 369.119 128.582 368.693 129.12L371.848 131.62C365.975 139.032 360.482 146.757 355.396 154.767L351.997 152.609C351.629 153.189 351.263 153.77 350.899 154.353L354.314 156.485C349.312 164.497 344.715 172.788 340.555 181.33L336.935 179.567C336.634 180.184 336.336 180.803 336.04 181.422L339.673 183.158C335.607 191.666 331.972 200.419 328.796 209.388L325 208.044C324.772 208.69 324.545 209.338 324.321 209.986L328.126 211.302C325.051 220.198 322.426 229.303 320.277 238.592L316.354 237.684C316.2 238.353 316.047 239.023 315.897 239.694L319.827 240.571C317.779 249.739 316.195 259.082 315.101 268.574L311.101 268.113C311.022 268.797 310.946 269.481 310.872 270.166L314.876 270.597C313.872 279.916 313.34 289.377 313.305 298.955L309.279 298.94C309.277 299.285 309.277 299.63 309.277 299.975C309.277 300.32 309.277 300.665 309.279 301.01L313.305 300.995C313.34 310.573 313.872 320.034 314.876 329.354L310.872 329.785C310.946 330.47 311.022 331.154 311.101 331.837L315.101 331.376C316.195 340.868 317.779 350.211 319.827 359.379L315.897 360.257C316.047 360.927 316.199 361.597 316.354 362.266L320.277 361.359C322.426 370.647 325.051 379.753 328.126 388.649L324.321 389.964C324.545 390.613 324.772 391.26 325 391.906L328.796 390.562C331.972 399.531 335.607 408.284 339.673 416.792L336.04 418.528C336.336 419.148 336.634 419.766 336.935 420.383L340.555 418.62C344.715 427.162 349.312 435.454 354.314 443.465L350.899 445.598C351.263 446.18 351.629 446.761 351.997 447.341L355.396 445.183C360.482 453.193 365.975 460.919 371.848 468.33L368.693 470.831C369.119 471.369 369.547 471.905 369.977 472.44L373.115 469.916C379.056 477.299 385.376 484.366 392.045 491.085L389.187 493.921C389.671 494.408 390.156 494.894 390.643 495.377L393.48 492.52C400.199 499.189 407.265 505.509 414.649 511.45L412.125 514.587C412.66 515.017 413.196 515.446 413.734 515.872L416.235 512.716C423.646 518.589 431.371 524.083 439.382 529.169L437.224 532.568C437.803 532.936 438.384 533.302 438.967 533.666L441.1 530.25C449.111 535.253 457.402 539.849 465.945 544.01L464.182 547.63C464.799 547.931 465.417 548.229 466.037 548.525L467.773 544.892C476.28 548.957 485.033 552.592 494.003 555.769L492.658 559.564C493.305 559.793 493.952 560.02 494.601 560.244L495.916 556.438C504.812 559.514 513.918 562.139 523.206 564.287L522.299 568.21C522.967 568.365 523.637 568.517 524.308 568.667L525.186 564.738C534.354 566.786 543.696 568.37 553.189 569.464L552.728 573.464C553.411 573.542 554.095 573.619 554.78 573.692L555.211 569.689C564.531 570.693 573.991 571.224 583.569 571.259L583.555 575.286C583.899 575.287 584.244 575.288 584.589 575.288C584.935 575.288 585.28 575.287 585.624 575.286L585.61 571.259C595.188 571.224 604.648 570.693 613.968 569.689L614.399 573.692C615.084 573.619 615.768 573.542 616.451 573.464L615.99 569.464C625.482 568.37 634.825 566.786 643.993 564.738L644.871 568.667C645.542 568.517 646.212 568.365 646.88 568.21L645.973 564.287C655.261 562.139 664.367 559.513 673.263 556.438L674.578 560.244C675.227 560.02 675.874 559.793 676.521 559.564L675.176 555.769C684.146 552.592 692.899 548.957 701.406 544.892L703.142 548.525C703.762 548.229 704.38 547.931 704.997 547.63L703.234 544.01C711.777 539.849 720.068 535.253 728.079 530.25L730.212 533.666C730.795 533.302 731.376 532.936 731.955 532.568L729.797 529.169C737.807 524.083 745.533 518.589 752.944 512.716L755.445 515.872C755.983 515.446 756.519 515.017 757.054 514.587L754.53 511.45C761.914 505.509 768.98 499.189 775.699 492.52L778.536 495.377C779.023 494.894 779.508 494.408 779.992 493.921L777.134 491.085C783.803 484.366 790.123 477.299 796.064 469.916L799.201 472.44C799.632 471.905 800.06 471.369 800.486 470.831L797.331 468.33C803.204 460.919 808.697 453.193 813.783 445.183L817.182 447.341C817.55 446.761 817.916 446.18 818.28 445.598L814.865 443.465C819.867 435.454 824.464 427.162 828.624 418.62L832.244 420.383C832.386 420.092 832.528 419.8 832.669 419.508C832.826 419.182 832.983 418.855 833.139 418.528L829.506 416.792C833.572 408.284 837.206 399.531 840.383 390.562L844.179 391.906C844.407 391.26 844.634 390.613 844.858 389.964L841.053 388.649C844.128 379.753 846.753 370.647 848.902 361.359L852.825 362.266C852.979 361.597 853.132 360.927 853.282 360.257L849.352 359.379C851.4 350.211 852.984 340.868 854.078 331.376L858.078 331.837C858.157 331.154 858.233 330.47 858.307 329.785L854.303 329.354C855.307 320.034 855.839 310.573 855.874 300.995L859.9 301.01C859.902 300.665 859.902 300.32 859.902 299.975Z" stroke="#FF2606" stroke-width="8.05302" stroke-dasharray="2.01 28.19"/>
<mask id="path-8-inside-1_211_1882" fill="white">
<rect x="398.867" y="59.8943" width="8.05302" height="8.05302" rx="1.00663"/>
</mask>
<rect x="398.867" y="59.8943" width="8.05302" height="8.05302" rx="1.00663" stroke="#FBFBFB" stroke-width="4.02651" mask="url(#path-8-inside-1_211_1882)"/>
<mask id="path-9-inside-2_211_1882" fill="white">
<rect x="410.946" y="59.8943" width="8.05302" height="8.05302" rx="1.00663"/>
</mask>
<rect x="410.946" y="59.8943" width="8.05302" height="8.05302" rx="1.00663" fill="#FBFBFB" stroke="#FBFBFB" stroke-width="4.02651" mask="url(#path-9-inside-2_211_1882)"/>
<path d="M393.94 64.371L387.516 67.5831C387.181 67.7504 386.787 67.5071 386.787 67.1329V63.9208V60.7087C386.787 60.3345 387.181 60.0912 387.516 60.2585L393.94 63.4706C394.311 63.6561 394.311 64.1855 393.94 64.371Z" fill="#FBFBFB" stroke="#FBFBFB" stroke-width="2.01326"/>
</g>
<path d="M19.0821 222.697V236.466H15.418L6.5395 230.645L8.18836 228.066L16.2917 233.323V222.697H19.0821ZM20.3786 240.753L25.0433 251.647L23.1831 254.452H8.14608L6.21536 251.605L10.711 240.753H20.3786ZM9.48489 251.45H21.7597L18.5747 243.91H12.6417L9.48489 251.45ZM26.1285 257.711L26.0862 257.951L18.7157 271.452H6.70861V257.711H9.28759V268.281H17.1936L21.1396 260.642V260.558H14.5442V261.389H11.9229V257.711H26.1285ZM10.26 286.802L10.5982 286.774L16.3622 275.753H19.984L27.6505 289.452H24.0991L18.2083 278.628L12.4867 289.452H8.96346L8.75207 289.438L8.39975 288.93L8.07561 288.381L7.63874 287.62L7.25823 286.746L6.89182 285.83L6.68043 284.773L6.45494 283.575L6.37039 282.335L6.45494 281.095L6.56768 279.967L6.79317 278.868L7.03275 278.036L7.41325 277.275L7.77966 276.613L8.21654 276.064L8.47021 275.782H11.0774L10.6264 276.219L10.26 276.754L9.89358 277.416L9.61173 278.065L9.35806 278.868L9.13257 279.925L8.94937 281.095L8.8789 282.264L8.94937 283.434L9.17485 284.674L9.45671 285.618L9.75265 286.196L10.26 286.802ZM23.6059 310.81V324.466H6.99047L6.28583 323.761V319.984H9.93586V321.281H20.4491V316.56H13.91L11.8243 318.688H7.06093L12.3035 313.445H20.4491V310.81H23.6059ZM20.3786 328.753L25.0433 339.647L23.1831 342.452H8.14608L6.21536 339.605L10.711 328.753H20.3786ZM9.48489 339.45H21.7597L18.5747 331.91H12.6417L9.48489 339.45ZM19.0821 346.697V360.466H15.418L6.5395 354.645L8.18836 352.066L16.2917 357.323V346.697H19.0821ZM10.26 374.802L10.5982 374.774L16.3622 363.753H19.984L27.6505 377.452H24.0991L18.2083 366.628L12.4867 377.452H8.96346L8.75207 377.438L8.39975 376.93L8.07561 376.381L7.63874 375.62L7.25823 374.746L6.89182 373.83L6.68043 372.773L6.45494 371.575L6.37039 370.335L6.45494 369.095L6.56768 367.967L6.79317 366.868L7.03275 366.036L7.41325 365.275L7.77966 364.613L8.21654 364.064L8.47021 363.782H11.0774L10.6264 364.219L10.26 364.754L9.89358 365.416L9.61173 366.065L9.35806 366.868L9.13257 367.925L8.94937 369.095L8.8789 370.264L8.94937 371.434L9.17485 372.674L9.45671 373.618L9.75265 374.196L10.26 374.802Z" fill="#FF2606"/>
<g filter="url(#filter1_f_211_1882)">
<path d="M19.0821 222.697V236.466H15.418L6.5395 230.645L8.18836 228.066L16.2917 233.323V222.697H19.0821ZM20.3786 240.753L25.0433 251.647L23.1831 254.452H8.14608L6.21536 251.605L10.711 240.753H20.3786ZM9.48489 251.45H21.7597L18.5747 243.91H12.6417L9.48489 251.45ZM26.1285 257.711L26.0862 257.951L18.7157 271.452H6.70861V257.711H9.28759V268.281H17.1936L21.1396 260.642V260.558H14.5442V261.389H11.9229V257.711H26.1285ZM10.26 286.802L10.5982 286.774L16.3622 275.753H19.984L27.6505 289.452H24.0991L18.2083 278.628L12.4867 289.452H8.96346L8.75207 289.438L8.39975 288.93L8.07561 288.381L7.63874 287.62L7.25823 286.746L6.89182 285.83L6.68043 284.773L6.45494 283.575L6.37039 282.335L6.45494 281.095L6.56768 279.967L6.79317 278.868L7.03275 278.036L7.41325 277.275L7.77966 276.613L8.21654 276.064L8.47021 275.782H11.0774L10.6264 276.219L10.26 276.754L9.89358 277.416L9.61173 278.065L9.35806 278.868L9.13257 279.925L8.94937 281.095L8.8789 282.264L8.94937 283.434L9.17485 284.674L9.45671 285.618L9.75265 286.196L10.26 286.802ZM23.6059 310.81V324.466H6.99047L6.28583 323.761V319.984H9.93586V321.281H20.4491V316.56H13.91L11.8243 318.688H7.06093L12.3035 313.445H20.4491V310.81H23.6059ZM20.3786 328.753L25.0433 339.647L23.1831 342.452H8.14608L6.21536 339.605L10.711 328.753H20.3786ZM9.48489 339.45H21.7597L18.5747 331.91H12.6417L9.48489 339.45ZM19.0821 346.697V360.466H15.418L6.5395 354.645L8.18836 352.066L16.2917 357.323V346.697H19.0821ZM10.26 374.802L10.5982 374.774L16.3622 363.753H19.984L27.6505 377.452H24.0991L18.2083 366.628L12.4867 377.452H8.96346L8.75207 377.438L8.39975 376.93L8.07561 376.381L7.63874 375.62L7.25823 374.746L6.89182 373.83L6.68043 372.773L6.45494 371.575L6.37039 370.335L6.45494 369.095L6.56768 367.967L6.79317 366.868L7.03275 366.036L7.41325 365.275L7.77966 364.613L8.21654 364.064L8.47021 363.782H11.0774L10.6264 364.219L10.26 364.754L9.89358 365.416L9.61173 366.065L9.35806 366.868L9.13257 367.925L8.94937 369.095L8.8789 370.264L8.94937 371.434L9.17485 372.674L9.45671 373.618L9.75265 374.196L10.26 374.802Z" fill="#FF2606"/>
</g>
<g style="mix-blend-mode:hard-light" opacity="0.25" filter="url(#filter2_df_211_1882)">
<path d="M119.256 76.0005H241.173L530.232 255.08" stroke="#FF2606" stroke-width="4.02651" stroke-linecap="round"/>
<path d="M119.257 523.95H241.173L530.232 344.871" stroke="#FF2606" stroke-width="4.02651" stroke-linecap="round"/>
<path d="M44.5337 293.31H166.45L503.44 300.101" stroke="#FF2606" stroke-width="4.02651" stroke-linecap="round"/>
<path d="M44.5337 306.64H166.45L503.44 299.849" stroke="#FF2606" stroke-width="4.02651" stroke-linecap="round"/>
<path d="M44.5337 281.237H166.45L504.914 297.837" stroke="#FF2606" stroke-width="4.02651" stroke-linecap="round"/>
<path d="M44.5337 318.713H166.45L504.914 302.113" stroke="#FF2606" stroke-width="4.02651" stroke-linecap="round"/>
<path d="M44.5337 269.164H166.45L505.898 295.825" stroke="#FF2606" stroke-width="4.02651" stroke-linecap="round"/>
<path d="M44.5337 330.786H166.45L505.898 304.125" stroke="#FF2606" stroke-width="4.02651" stroke-linecap="round"/>
<path d="M44.5337 257.092H166.45L506.143 295.322" stroke="#FF2606" stroke-width="4.02651" stroke-linecap="round"/>
<path d="M44.5337 342.858H166.45L506.143 304.628" stroke="#FF2606" stroke-width="4.02651" stroke-linecap="round"/>
<path d="M44.5337 245.019H166.45L507.127 293.813" stroke="#FF2606" stroke-width="4.02651" stroke-linecap="round"/>
<path d="M44.5337 354.931H166.45L507.127 306.137" stroke="#FF2606" stroke-width="4.02651" stroke-linecap="round"/>
<path d="M44.5337 232.946H166.45L508.601 291.297" stroke="#FF2606" stroke-width="4.02651" stroke-linecap="round"/>
<path d="M44.5337 367.004H166.45L508.601 308.652" stroke="#FF2606" stroke-width="4.02651" stroke-linecap="round"/>
<path d="M44.5337 220.873H166.45L510.322 288.531" stroke="#FF2606" stroke-width="4.02651" stroke-linecap="round"/>
<path d="M44.5337 379.077H166.45L510.322 311.419" stroke="#FF2606" stroke-width="4.02651" stroke-linecap="round"/>
<path d="M44.5337 208.801H166.45L512.043 285.764" stroke="#FF2606" stroke-width="4.02651" stroke-linecap="round"/>
<path d="M44.5337 391.15H166.45L512.043 314.186" stroke="#FF2606" stroke-width="4.02651" stroke-linecap="round"/>
<path d="M44.5337 196.728H166.45L513.517 282.746" stroke="#FF2606" stroke-width="4.02651" stroke-linecap="round"/>
<path d="M44.5337 403.222H166.45L513.517 317.204" stroke="#FF2606" stroke-width="4.02651" stroke-linecap="round"/>
<path d="M48.4663 184.655H170.382L515.484 280.231" stroke="#FF2606" stroke-width="4.02651" stroke-linecap="round"/>
<path d="M48.4663 415.295H170.382L515.484 319.719" stroke="#FF2606" stroke-width="4.02651" stroke-linecap="round"/>
<path d="M52.3994 172.582H174.316L516.959 277.213" stroke="#FF2606" stroke-width="4.02651" stroke-linecap="round"/>
<path d="M52.3994 427.368H174.316L516.959 322.738" stroke="#FF2606" stroke-width="4.02651" stroke-linecap="round"/>
<path d="M60.2647 160.51H182.181L518.433 274.195" stroke="#FF2606" stroke-width="4.02651" stroke-linecap="round"/>
<path d="M60.2647 439.44H182.181L518.433 325.755" stroke="#FF2606" stroke-width="4.02651" stroke-linecap="round"/>
<path d="M68.1304 148.437H190.047L520.4 271.68" stroke="#FF2606" stroke-width="4.02651" stroke-linecap="round"/>
<path d="M68.1304 451.513H190.047L520.4 328.271" stroke="#FF2606" stroke-width="4.02651" stroke-linecap="round"/>
<path d="M75.9957 136.364H197.912L521.874 268.661" stroke="#FF2606" stroke-width="4.02651" stroke-linecap="round"/>
<path d="M75.9957 463.586H197.912L521.874 331.289" stroke="#FF2606" stroke-width="4.02651" stroke-linecap="round"/>
<path d="M83.8615 124.291H205.778L523.595 265.895" stroke="#FF2606" stroke-width="4.02651" stroke-linecap="round"/>
<path d="M83.8615 475.658H205.778L523.595 334.055" stroke="#FF2606" stroke-width="4.02651" stroke-linecap="round"/>
<path d="M95.6599 112.219H217.576L525.316 263.128" stroke="#FF2606" stroke-width="4.02651" stroke-linecap="round"/>
<path d="M95.6599 487.731H217.576L525.316 336.822" stroke="#FF2606" stroke-width="4.02651" stroke-linecap="round"/>
<path d="M103.525 100.146H225.441L526.79 260.613" stroke="#FF2606" stroke-width="4.02651" stroke-linecap="round"/>
<path d="M103.525 499.804H225.441L526.79 339.337" stroke="#FF2606" stroke-width="4.02651" stroke-linecap="round"/>
<path d="M111.391 88.073H233.307L528.757 258.098" stroke="#FF2606" stroke-width="4.02651" stroke-linecap="round"/>
<path d="M111.391 511.877H233.307L528.757 341.853" stroke="#FF2606" stroke-width="4.02651" stroke-linecap="round"/>
</g>
<g filter="url(#filter3_d_211_1882)">
<path d="M119.257 523.95H241.173" stroke="#FF2606" stroke-width="4.02651" stroke-linecap="round"/>
<path d="M119.256 76.0005H241.173" stroke="#FF2606" stroke-width="4.02651" stroke-linecap="round"/>
<path d="M44.5337 318.713H166.45" stroke="#FF2606" stroke-width="4.02651" stroke-linecap="round"/>
<path d="M44.5337 306.389H166.45" stroke="#FF2606" stroke-width="4.02651" stroke-linecap="round"/>
<path d="M44.5337 330.786H166.45" stroke="#FF2606" stroke-width="4.02651" stroke-linecap="round"/>
<path d="M44.5337 269.164H166.45" stroke="#FF2606" stroke-width="4.02651" stroke-linecap="round"/>
<path d="M44.5337 281.237H166.45" stroke="#FF2606" stroke-width="4.02651" stroke-linecap="round"/>
<path d="M44.5337 293.31H166.45" stroke="#FF2606" stroke-width="4.02651" stroke-linecap="round"/>
<path d="M44.5337 342.858H166.45" stroke="#FF2606" stroke-width="4.02651" stroke-linecap="round"/>
<path d="M44.5337 257.092H166.45" stroke="#FF2606" stroke-width="4.02651" stroke-linecap="round"/>
<path d="M44.5337 354.931H166.45" stroke="#FF2606" stroke-width="4.02651" stroke-linecap="round"/>
<path d="M44.5337 245.019H166.45" stroke="#FF2606" stroke-width="4.02651" stroke-linecap="round"/>
<path d="M44.5337 367.004H166.45" stroke="#FF2606" stroke-width="4.02651" stroke-linecap="round"/>
<path d="M44.5337 232.946H166.45" stroke="#FF2606" stroke-width="4.02651" stroke-linecap="round"/>
<path d="M44.5337 379.077H166.45" stroke="#FF2606" stroke-width="4.02651" stroke-linecap="round"/>
<path d="M44.5337 220.873H166.45" stroke="#FF2606" stroke-width="4.02651" stroke-linecap="round"/>
<path d="M44.5337 391.15H166.45" stroke="#FF2606" stroke-width="4.02651" stroke-linecap="round"/>
<path d="M44.5337 208.801H166.45" stroke="#FF2606" stroke-width="4.02651" stroke-linecap="round"/>
<path d="M44.5337 403.222H166.45" stroke="#FF2606" stroke-width="4.02651" stroke-linecap="round"/>
<path d="M44.5337 196.728H166.45" stroke="#FF2606" stroke-width="4.02651" stroke-linecap="round"/>
<path d="M48.4663 415.295H170.382" stroke="#FF2606" stroke-width="4.02651" stroke-linecap="round"/>
<path d="M48.4663 184.655H170.382" stroke="#FF2606" stroke-width="4.02651" stroke-linecap="round"/>
<path d="M52.3994 427.368H174.316" stroke="#FF2606" stroke-width="4.02651" stroke-linecap="round"/>
<path d="M52.3994 172.582H174.316" stroke="#FF2606" stroke-width="4.02651" stroke-linecap="round"/>
<path d="M60.2647 439.44H182.181" stroke="#FF2606" stroke-width="4.02651" stroke-linecap="round"/>
<path d="M60.2647 160.51H182.181" stroke="#FF2606" stroke-width="4.02651" stroke-linecap="round"/>
<path d="M68.1304 451.513H190.047" stroke="#FF2606" stroke-width="4.02651" stroke-linecap="round"/>
<path d="M68.1304 148.437H190.047" stroke="#FF2606" stroke-width="4.02651" stroke-linecap="round"/>
<path d="M75.9957 463.586H197.912" stroke="#FF2606" stroke-width="4.02651" stroke-linecap="round"/>
<path d="M75.9957 136.364H197.912" stroke="#FF2606" stroke-width="4.02651" stroke-linecap="round"/>
<path d="M83.8615 475.658H205.778" stroke="#FF2606" stroke-width="4.02651" stroke-linecap="round"/>
<path d="M83.8615 124.291H205.778" stroke="#FF2606" stroke-width="4.02651" stroke-linecap="round"/>
<path d="M95.6599 487.731H217.576" stroke="#FF2606" stroke-width="4.02651" stroke-linecap="round"/>
<path d="M95.6599 112.219H217.576" stroke="#FF2606" stroke-width="4.02651" stroke-linecap="round"/>
<path d="M103.525 499.804H225.441" stroke="#FF2606" stroke-width="4.02651" stroke-linecap="round"/>
<path d="M103.525 100.146H225.441" stroke="#FF2606" stroke-width="4.02651" stroke-linecap="round"/>
<path d="M111.391 511.877H233.307" stroke="#FF2606" stroke-width="4.02651" stroke-linecap="round"/>
<path d="M111.391 88.073H233.307" stroke="#FF2606" stroke-width="4.02651" stroke-linecap="round"/>
</g>
<g filter="url(#filter4_d_211_1882)">
<rect x="285.118" y="291.922" width="32.2121" height="16.106" rx="4.02651" fill="#FE7D56"/>
<rect x="264.985" y="291.922" width="16.106" height="16.106" rx="4.02651" fill="#FE7D56"/>
<rect x="373.701" y="291.922" width="80.5302" height="16.106" rx="4.02651" fill="#FE7D56"/>
<rect x="71.7126" y="291.922" width="80.5302" height="16.106" rx="4.02651" fill="#FE7D56"/>
<rect x="329.409" y="291.922" width="40.2651" height="16.106" rx="4.02651" fill="#FE7D56"/>
<rect x="156.269" y="291.922" width="32.2121" height="16.106" rx="4.02651" fill="#FE7D56"/>
<rect x="244.853" y="291.922" width="16.106" height="16.106" rx="4.02651" fill="#FE7D56"/>
<rect x="220.694" y="291.922" width="20.1326" height="16.106" rx="4.02651" fill="#FE7D56"/>
<rect x="200.561" y="291.922" width="16.106" height="16.106" rx="4.02651" fill="#FE7D56"/>
</g>
<g filter="url(#filter5_f_211_1882)">
<rect x="285.118" y="291.922" width="32.2121" height="16.106" rx="4.02651" fill="#FE7D56"/>
<rect x="264.985" y="291.922" width="16.106" height="16.106" rx="4.02651" fill="#FE7D56"/>
<rect x="373.701" y="291.922" width="80.5302" height="16.106" rx="4.02651" fill="#FE7D56"/>
<rect x="71.7126" y="291.922" width="80.5302" height="16.106" rx="4.02651" fill="#FE7D56"/>
<rect x="329.409" y="291.922" width="40.2651" height="16.106" rx="4.02651" fill="#FE7D56"/>
<rect x="156.269" y="291.922" width="32.2121" height="16.106" rx="4.02651" fill="#FE7D56"/>
<rect x="244.853" y="291.922" width="16.106" height="16.106" rx="4.02651" fill="#FE7D56"/>
<rect x="220.694" y="291.922" width="20.1326" height="16.106" rx="4.02651" fill="#FE7D56"/>
<rect x="200.561" y="291.922" width="16.106" height="16.106" rx="4.02651" fill="#FE7D56"/>
</g>
<g filter="url(#filter6_f_211_1882)">
<rect x="285.118" y="291.922" width="32.2121" height="16.106" rx="4.02651" fill="#FE7D56"/>
<rect x="264.985" y="291.922" width="16.106" height="16.106" rx="4.02651" fill="#FE7D56"/>
<rect x="373.701" y="291.922" width="80.5302" height="16.106" rx="4.02651" fill="#FE7D56"/>
<rect x="71.7126" y="291.922" width="80.5302" height="16.106" rx="4.02651" fill="#FE7D56"/>
<rect x="329.409" y="291.922" width="40.2651" height="16.106" rx="4.02651" fill="#FE7D56"/>
<rect x="156.269" y="291.922" width="32.2121" height="16.106" rx="4.02651" fill="#FE7D56"/>
<rect x="244.853" y="291.922" width="16.106" height="16.106" rx="4.02651" fill="#FE7D56"/>
<rect x="220.694" y="291.922" width="20.1326" height="16.106" rx="4.02651" fill="#FE7D56"/>
<rect x="200.561" y="291.922" width="16.106" height="16.106" rx="4.02651" fill="#FE7D56"/>
</g>
<mask id="path-116-inside-3_211_1882" fill="white">
<rect x="155.263" y="59.8943" width="8.05302" height="8.05302" rx="1.00663"/>
</mask>
<rect x="155.263" y="59.8943" width="8.05302" height="8.05302" rx="1.00663" stroke="#FF2606" stroke-width="4.02651" mask="url(#path-116-inside-3_211_1882)"/>
<rect x="97.8849" y="60.9009" width="6.03977" height="6.03977" rx="3.01988" stroke="#FF2606" stroke-width="2.01326"/>
<path d="M150.336 64.371L143.912 67.5831C143.577 67.7504 143.183 67.5071 143.183 67.1329V63.9208V60.7087C143.183 60.3345 143.577 60.0912 143.912 60.2585L150.336 63.4706C150.707 63.6561 150.707 64.1855 150.336 64.371Z" stroke="#FF2606" stroke-width="2.01326"/>
<mask id="path-119-inside-4_211_1882" fill="white">
<rect x="108.958" y="532.003" width="8.05302" height="8.05302" rx="1.00663"/>
</mask>
<rect x="108.958" y="532.003" width="8.05302" height="8.05302" rx="1.00663" stroke="#FBFBFB" stroke-width="4.02651" mask="url(#path-119-inside-4_211_1882)"/>
<mask id="path-120-inside-5_211_1882" fill="white">
<rect x="121.037" y="532.003" width="8.05302" height="8.05302" rx="1.00663"/>
</mask>
<rect x="121.037" y="532.003" width="8.05302" height="8.05302" rx="1.00663" fill="#FBFBFB" stroke="#FBFBFB" stroke-width="4.02651" mask="url(#path-120-inside-5_211_1882)"/>
<path d="M104.031 536.479L97.6067 539.692C97.2721 539.859 96.8783 539.615 96.8783 539.241V536.029V532.817C96.8783 532.443 97.2721 532.2 97.6067 532.367L104.031 535.579C104.402 535.765 104.402 536.294 104.031 536.479Z" fill="#FBFBFB" stroke="#FBFBFB" stroke-width="2.01326"/>
<defs>
<filter id="filter0_d_211_1882" x="266.495" y="-10.0664" width="620.083" height="620.083" filterUnits="userSpaceOnUse" color-interpolation-filters="sRGB">
<feFlood flood-opacity="0" result="BackgroundImageFix"/>
<feColorMatrix in="SourceAlpha" type="matrix" values="0 0 0 0 0 0 0 0 0 0 0 0 0 0 0 0 0 0 127 0" result="hardAlpha"/>
<feOffset/>
<feGaussianBlur stdDeviation="3.01988"/>
<feComposite in2="hardAlpha" operator="out"/>
<feColorMatrix type="matrix" values="0 0 0 0 1 0 0 0 0 0.14902 0 0 0 0 0.0235294 0 0 0 1 0"/>
<feBlend mode="normal" in2="BackgroundImageFix" result="effect1_dropShadow_211_1882"/>
<feBlend mode="normal" in="SourceGraphic" in2="effect1_dropShadow_211_1882" result="shape"/>
</filter>
<filter id="filter1_f_211_1882" x="0.175596" y="216.657" width="33.5147" height="166.834" filterUnits="userSpaceOnUse" color-interpolation-filters="sRGB">
<feFlood flood-opacity="0" result="BackgroundImageFix"/>
<feBlend mode="normal" in="SourceGraphic" in2="BackgroundImageFix" result="shape"/>
<feGaussianBlur stdDeviation="3.01988" result="effect1_foregroundBlur_211_1882"/>
</filter>
<filter id="filter2_df_211_1882" x="36.4806" y="67.4442" width="501.804" height="464.055" filterUnits="userSpaceOnUse" color-interpolation-filters="sRGB">
<feFlood flood-opacity="0" result="BackgroundImageFix"/>
<feColorMatrix in="SourceAlpha" type="matrix" values="0 0 0 0 0 0 0 0 0 0 0 0 0 0 0 0 0 0 127 0" result="hardAlpha"/>
<feOffset dy="-0.503314"/>
<feGaussianBlur stdDeviation="3.01988"/>
<feComposite in2="hardAlpha" operator="out"/>
<feColorMatrix type="matrix" values="0 0 0 0 1 0 0 0 0 0.494118 0 0 0 0 0.337255 0 0 0 1 0"/>
<feBlend mode="normal" in2="BackgroundImageFix" result="effect1_dropShadow_211_1882"/>
<feBlend mode="normal" in="SourceGraphic" in2="effect1_dropShadow_211_1882" result="shape"/>
<feGaussianBlur stdDeviation="1.00663" result="effect2_foregroundBlur_211_1882"/>
</filter>
<filter id="filter3_d_211_1882" x="37.4873" y="68.9542" width="210.732" height="462.042" filterUnits="userSpaceOnUse" color-interpolation-filters="sRGB">
<feFlood flood-opacity="0" result="BackgroundImageFix"/>
<feColorMatrix in="SourceAlpha" type="matrix" values="0 0 0 0 0 0 0 0 0 0 0 0 0 0 0 0 0 0 127 0" result="hardAlpha"/>
<feOffset/>
<feGaussianBlur stdDeviation="2.51657"/>
<feComposite in2="hardAlpha" operator="out"/>
<feColorMatrix type="matrix" values="0 0 0 0 1 0 0 0 0 0.14902 0 0 0 0 0.0235294 0 0 0 0.5 0"/>
<feBlend mode="normal" in2="BackgroundImageFix" result="effect1_dropShadow_211_1882"/>
<feBlend mode="normal" in="SourceGraphic" in2="effect1_dropShadow_211_1882" result="shape"/>
</filter>
<filter id="filter4_d_211_1882" x="69.6994" y="291.922" width="386.545" height="20.1325" filterUnits="userSpaceOnUse" color-interpolation-filters="sRGB">
<feFlood flood-opacity="0" result="BackgroundImageFix"/>
<feColorMatrix in="SourceAlpha" type="matrix" values="0 0 0 0 0 0 0 0 0 0 0 0 0 0 0 0 0 0 127 0" result="hardAlpha"/>
<feOffset dy="2.01326"/>
<feGaussianBlur stdDeviation="1.00663"/>
<feComposite in2="hardAlpha" operator="out"/>
<feColorMatrix type="matrix" values="0 0 0 0 0 0 0 0 0 0 0 0 0 0 0 0 0 0 0.25 0"/>
<feBlend mode="normal" in2="BackgroundImageFix" result="effect1_dropShadow_211_1882"/>
<feBlend mode="normal" in="SourceGraphic" in2="effect1_dropShadow_211_1882" result="shape"/>
</filter>
<filter id="filter5_f_211_1882" x="59.6331" y="279.842" width="406.678" height="40.265" filterUnits="userSpaceOnUse" color-interpolation-filters="sRGB">
<feFlood flood-opacity="0" result="BackgroundImageFix"/>
<feBlend mode="normal" in="SourceGraphic" in2="BackgroundImageFix" result="shape"/>
<feGaussianBlur stdDeviation="6.03977" result="effect1_foregroundBlur_211_1882"/>
</filter>
<filter id="filter6_f_211_1882" x="59.6331" y="279.842" width="406.678" height="40.265" filterUnits="userSpaceOnUse" color-interpolation-filters="sRGB">
<feFlood flood-opacity="0" result="BackgroundImageFix"/>
<feBlend mode="normal" in="SourceGraphic" in2="BackgroundImageFix" result="shape"/>
<feGaussianBlur stdDeviation="6.03977" result="effect1_foregroundBlur_211_1882"/>
</filter>
<clipPath id="clip0_211_1882">
<rect width="249.644" height="511.367" fill="white" transform="translate(321.356 44.2917)"/>
</clipPath>
<clipPath id="clip1_211_1882">
<rect width="205.855" height="599.95" fill="white" transform="translate(272.032)"/>
</clipPath>
<clipPath id="clip2_211_1882">
<rect width="201.326" height="542.572" fill="white" transform="translate(297.197 28.689)"/>
</clipPath>
</defs>
</svg>
