<svg width="683" height="128" viewBox="0 0 683 128" fill="none" xmlns="http://www.w3.org/2000/svg">
<g filter="url(#filter0_d_211_1652)">
<path d="M46 20L28 22V21.2L42 16L46 20ZM50 40C50 44.48 48.2667 48.2933 44.8 51.44C41.4667 54.48 37.5333 56 33 56C28.4667 56 24.5333 54.48 21.2 51.44C17.7333 48.2933 16 44.48 16 40V24H26.8V40C26.8 41.6267 27.4133 43.04 28.64 44.24C29.8933 45.4133 31.3467 46 33 46C34.6267 46 36.0667 45.4133 37.32 44.24C38.5733 43.04 39.2 41.6267 39.2 40V24H50V40ZM86 56H74L64 43.2V56H52V24H64L74 36.8V24H86V56ZM120 56H88V24H120V34H100V35.8H112V44.2H100V46H120V56ZM155.984 34H144.984V56H132.984V34H121.984V24H155.984V34ZM189.984 56H157.984V24H189.984V34H169.984V35.8H181.984V44.2H169.984V46H189.984V56ZM245.969 56H233.569L232.529 52H223.409L222.369 56H209.969L218.369 24H237.569L245.969 56ZM230.409 44L227.969 34.68L225.529 44H230.409ZM277.984 56H247.984V24H259.984V46H277.984V56ZM328 56H298V24H310V46H328V56ZM364.609 56H352.209L351.169 52H342.049L341.009 56H328.609L337.009 24H356.209L364.609 56ZM349.049 44L346.609 34.68L344.169 44H349.049ZM400.625 40C400.625 44.48 398.892 48.2933 395.425 51.44C392.092 54.48 388.158 56 383.625 56H366.625V24H383.625C388.158 24 392.092 25.52 395.425 28.56C398.892 31.7067 400.625 35.52 400.625 40ZM389.825 40C389.825 38.3733 389.198 36.9733 387.945 35.8C386.692 34.6 385.252 34 383.625 34H377.825V46H383.625C385.278 46 386.718 45.4133 387.945 44.24C389.198 43.04 389.825 41.6267 389.825 40ZM436.625 40C436.625 44.48 434.892 48.2933 431.425 51.44C428.092 54.48 424.158 56 419.625 56C415.092 56 411.158 54.48 407.825 51.44C404.358 48.2933 402.625 44.48 402.625 40C402.625 35.52 404.358 31.7067 407.825 28.56C411.158 25.52 415.092 24 419.625 24C424.158 24 428.092 25.52 431.425 28.56C434.892 31.7067 436.625 35.52 436.625 40ZM425.825 40C425.825 38.3733 425.198 36.9733 423.945 35.8C422.692 34.6 421.252 34 419.625 34C417.972 34 416.518 34.6 415.265 35.8C414.038 36.9733 413.425 38.3733 413.425 40C413.425 41.6267 414.038 43.04 415.265 44.24C416.518 45.4133 417.972 46 419.625 46C421.278 46 422.718 45.4133 423.945 44.24C425.198 43.04 425.825 41.6267 425.825 40ZM490.625 40C490.625 44.48 488.892 48.2933 485.425 51.44C482.092 54.48 478.158 56 473.625 56C469.092 56 465.158 54.48 461.825 51.44C458.358 48.2933 456.625 44.48 456.625 40C456.625 35.52 458.358 31.7067 461.825 28.56C465.158 25.52 469.092 24 473.625 24C478.158 24 482.092 25.52 485.425 28.56C488.892 31.7067 490.625 35.52 490.625 40ZM479.825 40C479.825 38.3733 479.198 36.9733 477.945 35.8C476.692 34.6 475.252 34 473.625 34C471.972 34 470.518 34.6 469.265 35.8C468.038 36.9733 467.425 38.3733 467.425 40C467.425 41.6267 468.038 43.04 469.265 44.24C470.518 45.4133 471.972 46 473.625 46C475.278 46 476.718 45.4133 477.945 44.24C479.198 43.04 479.825 41.6267 479.825 40ZM524.625 34H511.905C511.372 34 511.105 34.3067 511.105 34.92C511.105 35.08 511.145 35.1867 511.225 35.24L517.025 39.6C519.425 41.4133 520.625 43.84 520.625 46.88C520.625 49.4133 519.585 51.5733 517.505 53.36C515.452 55.12 513.145 56 510.585 56H492.625V46H504.505C505.038 46 505.305 45.68 505.305 45.04C505.305 44.9067 505.265 44.8133 505.185 44.76L499.785 40.8C497.678 39.2533 496.625 36.8933 496.625 33.72C496.625 31.1067 497.638 28.84 499.665 26.92C501.692 24.9733 504.012 24 506.625 24H524.625V34ZM556.609 56H543.609C539.076 56 535.143 54.48 531.809 51.44C528.343 48.2933 526.609 44.48 526.609 40C526.609 35.52 528.343 31.7067 531.809 28.56C535.143 25.52 539.076 24 543.609 24H556.609V34H543.609C541.983 34 540.543 34.6 539.289 35.8C538.036 36.9733 537.409 38.3733 537.409 40C537.409 41.6267 538.023 43.04 539.249 44.24C540.503 45.4133 541.956 46 543.609 46H556.609V56ZM592.625 40C592.625 44.48 590.892 48.2933 587.425 51.44C584.092 54.48 580.158 56 575.625 56C571.092 56 567.158 54.48 563.825 51.44C560.358 48.2933 558.625 44.48 558.625 40V24H569.425V40C569.425 41.6267 570.038 43.04 571.265 44.24C572.518 45.4133 573.972 46 575.625 46C577.252 46 578.692 45.4133 579.945 44.24C581.198 43.04 581.825 41.6267 581.825 40V24H592.625V40ZM630.625 56H620.225C617.558 56 614.892 54.6667 612.225 52L606.625 46.4V56H594.625V24H617.425C620.385 24 622.985 25.0667 625.225 27.2C627.492 29.3333 628.625 31.8667 628.625 34.8C628.625 36.96 627.985 38.96 626.705 40.8C625.425 42.64 623.772 43.9467 621.745 44.72C622.225 45.5733 622.918 46 623.825 46H630.625V56ZM616.625 35.2C616.625 34.56 616.385 34 615.905 33.52C615.425 33.04 614.865 32.8 614.225 32.8H606.625V37.6H614.225C614.865 37.6 615.425 37.36 615.905 36.88C616.385 36.4 616.625 35.84 616.625 35.2ZM666.641 40C666.641 44.48 664.907 48.2933 661.441 51.44C658.107 54.48 654.174 56 649.641 56C645.107 56 641.174 54.48 637.841 51.44C634.374 48.2933 632.641 44.48 632.641 40C632.641 35.52 634.374 31.7067 637.841 28.56C641.174 25.52 645.107 24 649.641 24C654.174 24 658.107 25.52 661.441 28.56C664.907 31.7067 666.641 35.52 666.641 40ZM655.841 40C655.841 38.3733 655.214 36.9733 653.961 35.8C652.707 34.6 651.267 34 649.641 34C647.987 34 646.534 34.6 645.281 35.8C644.054 36.9733 643.441 38.3733 643.441 40C643.441 41.6267 644.054 43.04 645.281 44.24C646.534 45.4133 647.987 46 649.641 46C651.294 46 652.734 45.4133 653.961 44.24C655.214 43.04 655.841 41.6267 655.841 40ZM50 96C50 100.48 48.2667 104.293 44.8 107.44C41.4667 110.48 37.5333 112 33 112H16V80H33C37.5333 80 41.4667 81.52 44.8 84.56C48.2667 87.7067 50 91.52 50 96ZM39.2 96C39.2 94.3733 38.5733 92.9733 37.32 91.8C36.0667 90.6 34.6267 90 33 90H27.2V102H33C34.6533 102 36.0933 101.413 37.32 100.24C38.5733 99.04 39.2 97.6267 39.2 96ZM84 112H52V80H84V90H64V91.8H76V100.2H64V102H84V112ZM133.984 112H103.984V80H115.984V102H133.984V112ZM170.594 112H158.194L157.154 108H148.034L146.994 112H134.594L142.994 80H162.194L170.594 112ZM155.034 100L152.594 90.68L150.154 100H155.034ZM228.609 112H216.609V102L209.609 112L202.609 102V112H190.609V80H202.609L209.609 90L216.609 80H228.609V112ZM260.594 76L242.594 78V77.2L256.594 72L260.594 76ZM264.594 96C264.594 100.48 262.86 104.293 259.394 107.44C256.06 110.48 252.127 112 247.594 112C243.06 112 239.127 110.48 235.794 107.44C232.327 104.293 230.594 100.48 230.594 96V80H241.394V96C241.394 97.6267 242.007 99.04 243.234 100.24C244.487 101.413 245.94 102 247.594 102C249.22 102 250.66 101.413 251.914 100.24C253.167 99.04 253.794 97.6267 253.794 96V80H264.594V96ZM298.594 90H285.874C285.34 90 285.074 90.3067 285.074 90.92C285.074 91.08 285.114 91.1867 285.194 91.24L290.994 95.6C293.394 97.4133 294.594 99.84 294.594 102.88C294.594 105.413 293.554 107.573 291.474 109.36C289.42 111.12 287.114 112 284.554 112H266.594V102H278.474C279.007 102 279.274 101.68 279.274 101.04C279.274 100.907 279.234 100.813 279.154 100.76L273.754 96.8C271.647 95.2533 270.594 92.8933 270.594 89.72C270.594 87.1067 271.607 84.84 273.634 82.92C275.66 80.9733 277.98 80 280.594 80H298.594V90ZM312.578 112H300.578V80H312.578V112ZM344.594 112H331.594C327.06 112 323.127 110.48 319.794 107.44C316.327 104.293 314.594 100.48 314.594 96C314.594 91.52 316.327 87.7067 319.794 84.56C323.127 81.52 327.06 80 331.594 80H344.594V90H331.594C329.967 90 328.527 90.6 327.274 91.8C326.02 92.9733 325.394 94.3733 325.394 96C325.394 97.6267 326.007 99.04 327.234 100.24C328.487 101.413 329.94 102 331.594 102H344.594V112ZM382.609 112H370.209L369.169 108H360.049L359.009 112H346.609L355.009 80H374.209L382.609 112ZM367.049 100L364.609 90.68L362.169 100H367.049Z" fill="#FBFBFB"/>
</g>
<defs>
<filter id="filter0_d_211_1652" x="0" y="0" width="682.641" height="128" filterUnits="userSpaceOnUse" color-interpolation-filters="sRGB">
<feFlood flood-opacity="0" result="BackgroundImageFix"/>
<feColorMatrix in="SourceAlpha" type="matrix" values="0 0 0 0 0 0 0 0 0 0 0 0 0 0 0 0 0 0 127 0" result="hardAlpha"/>
<feOffset/>
<feGaussianBlur stdDeviation="8"/>
<feComposite in2="hardAlpha" operator="out"/>
<feColorMatrix type="matrix" values="0 0 0 0 1 0 0 0 0 0.14902 0 0 0 0 0.0235294 0 0 0 1 0"/>
<feBlend mode="normal" in2="BackgroundImageFix" result="effect1_dropShadow_211_1652"/>
<feBlend mode="normal" in="SourceGraphic" in2="effect1_dropShadow_211_1652" result="shape"/>
</filter>
</defs>
</svg>
