<svg width="646" height="248" viewBox="0 0 646 248" fill="none" xmlns="http://www.w3.org/2000/svg">
<path d="M60.5 73H1.83333V14.3333H60.5V32.6667H23.8333V35.9667H45.8333V51.3667H23.8333V54.6667H60.5V73ZM137.471 73H110.338L100.805 60.9L91.2714 73H64.138L87.238 43.6667L64.138 14.3333H91.2714L100.805 26.4333L110.338 14.3333H137.471L114.371 43.6667L137.471 73ZM203.471 34.8667C203.471 40.2444 201.394 45.0111 197.238 49.1667C193.082 53.3222 188.316 55.4 182.938 55.4H163.138V73H141.138V14.3333H182.938C188.316 14.3333 193.082 16.4111 197.238 20.5667C201.394 24.7222 203.471 29.4889 203.471 34.8667ZM181.471 34.8667C181.471 33.6933 181.031 32.6667 180.151 31.7867C179.271 30.9067 178.245 30.4667 177.071 30.4667H163.138V39.2667H177.071C178.245 39.2667 179.271 38.8267 180.151 37.9467C181.031 37.0667 181.471 36.04 181.471 34.8667ZM265.805 73H207.138V14.3333H265.805V32.6667H229.138V35.9667H251.138V51.3667H229.138V54.6667H265.805V73ZM335.443 73H316.376C311.487 73 306.598 70.5556 301.709 65.6667L291.443 55.4V73H269.443V14.3333H311.243C316.669 14.3333 321.436 16.2889 325.543 20.2C329.698 24.1111 331.776 28.7556 331.776 34.1333C331.776 38.0933 330.603 41.76 328.256 45.1333C325.909 48.5067 322.878 50.9022 319.163 52.32C320.043 53.8844 321.314 54.6667 322.976 54.6667H335.443V73ZM309.776 34.8667C309.776 33.6933 309.336 32.6667 308.456 31.7867C307.576 30.9067 306.549 30.4667 305.376 30.4667H291.443V39.2667H305.376C306.549 39.2667 307.576 38.8267 308.456 37.9467C309.336 37.0667 309.776 36.04 309.776 34.8667ZM361.138 73H339.138V14.3333H361.138V73ZM423.5 73H364.833V14.3333H423.5V32.6667H386.833V35.9667H408.833V51.3667H386.833V54.6667H423.5V73ZM489.471 73H467.471L449.138 49.5333V73H427.138V14.3333H449.138L467.471 37.8V14.3333H489.471V73ZM548.138 73H524.305C515.994 73 508.782 70.2133 502.671 64.64C496.316 58.8711 493.138 51.88 493.138 43.6667C493.138 35.4533 496.316 28.4622 502.671 22.6933C508.782 17.12 515.994 14.3333 524.305 14.3333H548.138V32.6667H524.305C521.322 32.6667 518.682 33.7667 516.385 35.9667C514.087 38.1178 512.938 40.6844 512.938 43.6667C512.938 46.6489 514.062 49.24 516.311 51.44C518.609 53.5911 521.274 54.6667 524.305 54.6667H548.138V73ZM573.833 73H551.833V14.3333H573.833V73ZM643.529 73H620.795L618.889 65.6667H602.169L600.262 73H577.529L592.929 14.3333H628.129L643.529 73ZM615.002 51L610.529 33.9133L606.055 51H615.002ZM60.5 120.667H37.18C36.2022 120.667 35.7133 121.229 35.7133 122.353C35.7133 122.647 35.7867 122.842 35.9333 122.94L46.5667 130.933C50.9667 134.258 53.1667 138.707 53.1667 144.28C53.1667 148.924 51.26 152.884 47.4467 156.16C43.6822 159.387 39.4533 161 34.76 161H1.83333V142.667H23.6133C24.5911 142.667 25.08 142.08 25.08 140.907C25.08 140.662 25.0067 140.491 24.86 140.393L14.96 133.133C11.0978 130.298 9.16667 125.971 9.16667 120.153C9.16667 115.362 11.0244 111.207 14.74 107.687C18.4556 104.118 22.7089 102.333 27.5 102.333H60.5V120.667ZM111.776 120.667H91.6094V161H69.6094V120.667H49.4427V102.333H111.776V120.667ZM172.161 161H149.428L147.521 153.667H130.801L128.895 161H106.161L121.561 102.333H156.761L172.161 161ZM143.635 139L139.161 121.913L134.688 139H143.635ZM241.857 161H222.79C217.901 161 213.012 158.556 208.123 153.667L197.857 143.4V161H175.857V102.333H217.657C223.083 102.333 227.85 104.289 231.957 108.2C236.112 112.111 238.19 116.756 238.19 122.133C238.19 126.093 237.017 129.76 234.67 133.133C232.323 136.507 229.292 138.902 225.577 140.32C226.457 141.884 227.728 142.667 229.39 142.667H241.857V161ZM216.19 122.867C216.19 121.693 215.75 120.667 214.87 119.787C213.99 118.907 212.963 118.467 211.79 118.467H197.857V127.267H211.79C212.963 127.267 213.99 126.827 214.87 125.947C215.75 125.067 216.19 124.04 216.19 122.867ZM369.485 102.333L354.085 161H329.152L324.019 141.42L318.885 161H293.952L278.552 102.333H301.285L306.419 121.913L311.552 102.333H336.485L341.619 121.913L346.752 102.333H369.485ZM427.482 161H404.748L402.842 153.667H386.122L384.215 161H361.482L376.882 102.333H412.082L427.482 161ZM398.955 139L394.482 121.913L390.008 139H398.955ZM497.177 161H478.11C473.222 161 468.333 158.556 463.444 153.667L453.177 143.4V161H431.177V102.333H472.977C478.404 102.333 483.17 104.289 487.277 108.2C491.433 112.111 493.51 116.756 493.51 122.133C493.51 126.093 492.337 129.76 489.99 133.133C487.644 136.507 484.613 138.902 480.897 140.32C481.777 141.884 483.048 142.667 484.71 142.667H497.177V161ZM471.51 122.867C471.51 121.693 471.07 120.667 470.19 119.787C469.31 118.907 468.284 118.467 467.11 118.467H453.177V127.267H467.11C468.284 127.267 469.31 126.827 470.19 125.947C471.07 125.067 471.51 124.04 471.51 122.867ZM554.039 120.667H530.719C529.741 120.667 529.252 121.229 529.252 122.353C529.252 122.647 529.326 122.842 529.472 122.94L540.106 130.933C544.506 134.258 546.706 138.707 546.706 144.28C546.706 148.924 544.799 152.884 540.986 156.16C537.221 159.387 532.992 161 528.299 161H495.372V142.667H517.152C518.13 142.667 518.619 142.08 518.619 140.907C518.619 140.662 518.546 140.491 518.399 140.393L508.499 133.133C504.637 130.298 502.706 125.971 502.706 120.153C502.706 115.362 504.564 111.207 508.279 107.687C511.995 104.118 516.248 102.333 521.039 102.333H554.039V120.667Z" fill="#FBFBFB"/>
<path d="M1.66 208V193.1H3.62V206.2H10.16V208H1.66ZM15.3031 208.24C14.5965 208.24 13.9698 208.113 13.4231 207.86C12.8898 207.593 12.4698 207.233 12.1631 206.78C11.8565 206.313 11.7031 205.78 11.7031 205.18C11.7031 204.607 11.8231 204.093 12.0631 203.64C12.3165 203.173 12.7031 202.78 13.2231 202.46C13.7565 202.14 14.4231 201.913 15.2231 201.78L19.2231 201.12V202.68L15.6431 203.28C14.9498 203.4 14.4431 203.62 14.1231 203.94C13.8165 204.26 13.6631 204.653 13.6631 205.12C13.6631 205.56 13.8365 205.927 14.1831 206.22C14.5431 206.513 14.9898 206.66 15.5231 206.66C16.2031 206.66 16.7898 206.52 17.2831 206.24C17.7898 205.947 18.1831 205.553 18.4631 205.06C18.7565 204.567 18.9031 204.02 18.9031 203.42V200.68C18.9031 200.093 18.6831 199.62 18.2431 199.26C17.8165 198.887 17.2498 198.7 16.5431 198.7C15.9298 198.7 15.3831 198.86 14.9031 199.18C14.4365 199.487 14.0898 199.9 13.8631 200.42L12.2431 199.58C12.4431 199.087 12.7631 198.647 13.2031 198.26C13.6431 197.86 14.1565 197.547 14.7431 197.32C15.3298 197.093 15.9431 196.98 16.5831 196.98C17.4098 196.98 18.1365 197.14 18.7631 197.46C19.3898 197.767 19.8765 198.2 20.2231 198.76C20.5831 199.307 20.7631 199.947 20.7631 200.68V208H18.9431V205.96L19.2831 206.08C19.0565 206.507 18.7498 206.88 18.3631 207.2C17.9765 207.52 17.5231 207.773 17.0031 207.96C16.4831 208.147 15.9165 208.24 15.3031 208.24ZM28.2441 208V199H26.1841V197.22H28.2441V196.46C28.2441 195.687 28.4107 195.033 28.7441 194.5C29.0907 193.967 29.5441 193.56 30.1041 193.28C30.6774 193 31.3107 192.86 32.0041 192.86C32.1507 192.86 32.3107 192.873 32.4841 192.9C32.6707 192.913 32.8241 192.933 32.9441 192.96V194.62C32.8374 194.593 32.7107 194.58 32.5641 194.58C32.4174 194.567 32.3041 194.56 32.2241 194.56C31.6107 194.56 31.1041 194.707 30.7041 195C30.3174 195.293 30.1241 195.78 30.1241 196.46V197.22H32.6841V199H30.1241V208H28.2441ZM38.8733 208.24C38.0999 208.24 37.3999 208.06 36.7733 207.7C36.1599 207.34 35.6799 206.84 35.3333 206.2C34.9999 205.547 34.8333 204.8 34.8333 203.96V197.22H36.6933V203.76C36.6933 204.293 36.7999 204.76 37.0133 205.16C37.2399 205.56 37.5466 205.873 37.9333 206.1C38.3333 206.327 38.7866 206.44 39.2933 206.44C39.7999 206.44 40.2466 206.327 40.6333 206.1C41.0333 205.873 41.3399 205.547 41.5533 205.12C41.7799 204.693 41.8933 204.187 41.8933 203.6V197.22H43.7733V208H41.9533V205.9L42.2533 206.08C41.9999 206.76 41.5666 207.293 40.9533 207.68C40.3533 208.053 39.6599 208.24 38.8733 208.24ZM51.6148 208.24C50.5748 208.24 49.6482 207.993 48.8348 207.5C48.0215 207.007 47.3815 206.333 46.9148 205.48C46.4482 204.613 46.2148 203.647 46.2148 202.58C46.2148 201.5 46.4415 200.54 46.8948 199.7C47.3615 198.86 47.9882 198.2 48.7748 197.72C49.5748 197.227 50.4682 196.98 51.4548 196.98C52.2548 196.98 52.9615 197.127 53.5748 197.42C54.2015 197.7 54.7282 198.087 55.1548 198.58C55.5948 199.06 55.9282 199.613 56.1548 200.24C56.3948 200.853 56.5148 201.493 56.5148 202.16C56.5148 202.307 56.5015 202.473 56.4748 202.66C56.4615 202.833 56.4415 203 56.4148 203.16H47.5748V201.56H55.3348L54.4548 202.28C54.5748 201.587 54.5082 200.967 54.2548 200.42C54.0015 199.873 53.6282 199.44 53.1348 199.12C52.6415 198.8 52.0815 198.64 51.4548 198.64C50.8282 198.64 50.2548 198.8 49.7348 199.12C49.2148 199.44 48.8082 199.9 48.5148 200.5C48.2348 201.087 48.1215 201.787 48.1748 202.6C48.1215 203.387 48.2415 204.08 48.5348 204.68C48.8415 205.267 49.2682 205.727 49.8148 206.06C50.3748 206.38 50.9815 206.54 51.6348 206.54C52.3548 206.54 52.9615 206.373 53.4548 206.04C53.9482 205.707 54.3482 205.28 54.6548 204.76L56.2148 205.56C56.0015 206.053 55.6682 206.507 55.2148 206.92C54.7748 207.32 54.2482 207.64 53.6348 207.88C53.0348 208.12 52.3615 208.24 51.6148 208.24ZM58.94 208V197.22H60.76V199.2L60.56 198.92C60.8133 198.307 61.2 197.853 61.72 197.56C62.24 197.253 62.8733 197.1 63.62 197.1H64.28V198.86H63.34C62.58 198.86 61.9667 199.1 61.5 199.58C61.0333 200.047 60.8 200.713 60.8 201.58V208H58.94ZM64.8722 208V206.42L71.2922 198.32L71.6122 199H65.1922V197.22H73.2722V198.8L66.9122 206.92L66.5922 206.22H73.3122V208H64.8722ZM78.2914 208.24C77.5847 208.24 76.9581 208.113 76.4114 207.86C75.8781 207.593 75.4581 207.233 75.1514 206.78C74.8447 206.313 74.6914 205.78 74.6914 205.18C74.6914 204.607 74.8114 204.093 75.0514 203.64C75.3047 203.173 75.6914 202.78 76.2114 202.46C76.7447 202.14 77.4114 201.913 78.2114 201.78L82.2114 201.12V202.68L78.6314 203.28C77.9381 203.4 77.4314 203.62 77.1114 203.94C76.8047 204.26 76.6514 204.653 76.6514 205.12C76.6514 205.56 76.8247 205.927 77.1714 206.22C77.5314 206.513 77.9781 206.66 78.5114 206.66C79.1914 206.66 79.7781 206.52 80.2714 206.24C80.7781 205.947 81.1714 205.553 81.4514 205.06C81.7447 204.567 81.8914 204.02 81.8914 203.42V200.68C81.8914 200.093 81.6714 199.62 81.2314 199.26C80.8047 198.887 80.2381 198.7 79.5314 198.7C78.9181 198.7 78.3714 198.86 77.8914 199.18C77.4247 199.487 77.0781 199.9 76.8514 200.42L75.2314 199.58C75.4314 199.087 75.7514 198.647 76.1914 198.26C76.6314 197.86 77.1447 197.547 77.7314 197.32C78.3181 197.093 78.9314 196.98 79.5714 196.98C80.3981 196.98 81.1247 197.14 81.7514 197.46C82.3781 197.767 82.8647 198.2 83.2114 198.76C83.5714 199.307 83.7514 199.947 83.7514 200.68V208H81.9314V205.96L82.2714 206.08C82.0447 206.507 81.7381 206.88 81.3514 207.2C80.9647 207.52 80.5114 207.773 79.9914 207.96C79.4714 208.147 78.9047 208.24 78.2914 208.24ZM95.0523 208.24C94.0123 208.24 93.0857 207.993 92.2723 207.5C91.459 207.007 90.819 206.333 90.3523 205.48C89.8857 204.613 89.6523 203.647 89.6523 202.58C89.6523 201.5 89.879 200.54 90.3323 199.7C90.799 198.86 91.4257 198.2 92.2123 197.72C93.0123 197.227 93.9057 196.98 94.8923 196.98C95.6923 196.98 96.399 197.127 97.0123 197.42C97.639 197.7 98.1657 198.087 98.5923 198.58C99.0323 199.06 99.3657 199.613 99.5923 200.24C99.8323 200.853 99.9523 201.493 99.9523 202.16C99.9523 202.307 99.939 202.473 99.9123 202.66C99.899 202.833 99.879 203 99.8523 203.16H91.0123V201.56H98.7723L97.8923 202.28C98.0123 201.587 97.9457 200.967 97.6923 200.42C97.439 199.873 97.0657 199.44 96.5723 199.12C96.079 198.8 95.519 198.64 94.8923 198.64C94.2657 198.64 93.6923 198.8 93.1723 199.12C92.6523 199.44 92.2457 199.9 91.9523 200.5C91.6723 201.087 91.559 201.787 91.6123 202.6C91.559 203.387 91.679 204.08 91.9723 204.68C92.279 205.267 92.7057 205.727 93.2523 206.06C93.8123 206.38 94.419 206.54 95.0723 206.54C95.7923 206.54 96.399 206.373 96.8923 206.04C97.3857 205.707 97.7857 205.28 98.0923 204.76L99.6523 205.56C99.439 206.053 99.1057 206.507 98.6523 206.92C98.2123 207.32 97.6857 207.64 97.0723 207.88C96.4723 208.12 95.799 208.24 95.0523 208.24ZM106.238 208.24C105.158 208.24 104.218 207.973 103.418 207.44C102.618 206.907 102.051 206.187 101.718 205.28L103.198 204.56C103.504 205.2 103.924 205.707 104.458 206.08C104.991 206.453 105.584 206.64 106.238 206.64C106.824 206.64 107.311 206.5 107.698 206.22C108.084 205.94 108.278 205.573 108.278 205.12C108.278 204.8 108.184 204.547 107.998 204.36C107.824 204.16 107.611 204.007 107.358 203.9C107.104 203.78 106.871 203.693 106.658 203.64L105.038 203.18C104.064 202.9 103.351 202.5 102.898 201.98C102.458 201.46 102.238 200.853 102.238 200.16C102.238 199.52 102.398 198.967 102.718 198.5C103.051 198.02 103.498 197.647 104.058 197.38C104.631 197.113 105.271 196.98 105.978 196.98C106.924 196.98 107.771 197.22 108.518 197.7C109.278 198.18 109.818 198.853 110.138 199.72L108.618 200.42C108.378 199.86 108.018 199.42 107.538 199.1C107.058 198.767 106.518 198.6 105.918 198.6C105.371 198.6 104.938 198.74 104.618 199.02C104.298 199.287 104.138 199.627 104.138 200.04C104.138 200.347 104.218 200.6 104.378 200.8C104.538 200.987 104.731 201.133 104.958 201.24C105.184 201.333 105.404 201.413 105.618 201.48L107.378 202C108.258 202.253 108.938 202.647 109.418 203.18C109.911 203.713 110.158 204.353 110.158 205.1C110.158 205.7 109.991 206.24 109.658 206.72C109.324 207.2 108.864 207.573 108.278 207.84C107.691 208.107 107.011 208.24 106.238 208.24ZM116.972 208.12C115.919 208.12 115.106 207.82 114.532 207.22C113.972 206.62 113.692 205.773 113.692 204.68V199H111.732V197.22H112.132C112.612 197.22 112.992 197.073 113.272 196.78C113.552 196.487 113.692 196.1 113.692 195.62V194.74H115.552V197.22H117.972V199H115.552V204.62C115.552 204.98 115.606 205.293 115.712 205.56C115.832 205.827 116.026 206.04 116.292 206.2C116.559 206.347 116.912 206.42 117.352 206.42C117.446 206.42 117.559 206.413 117.692 206.4C117.839 206.387 117.972 206.373 118.092 206.36V208C117.919 208.04 117.726 208.067 117.512 208.08C117.299 208.107 117.119 208.12 116.972 208.12ZM123.545 208.24C122.839 208.24 122.212 208.113 121.665 207.86C121.132 207.593 120.712 207.233 120.405 206.78C120.099 206.313 119.945 205.78 119.945 205.18C119.945 204.607 120.065 204.093 120.305 203.64C120.559 203.173 120.945 202.78 121.465 202.46C121.999 202.14 122.665 201.913 123.465 201.78L127.465 201.12V202.68L123.885 203.28C123.192 203.4 122.685 203.62 122.365 203.94C122.059 204.26 121.905 204.653 121.905 205.12C121.905 205.56 122.079 205.927 122.425 206.22C122.785 206.513 123.232 206.66 123.765 206.66C124.445 206.66 125.032 206.52 125.525 206.24C126.032 205.947 126.425 205.553 126.705 205.06C126.999 204.567 127.145 204.02 127.145 203.42V200.68C127.145 200.093 126.925 199.62 126.485 199.26C126.059 198.887 125.492 198.7 124.785 198.7C124.172 198.7 123.625 198.86 123.145 199.18C122.679 199.487 122.332 199.9 122.105 200.42L120.485 199.58C120.685 199.087 121.005 198.647 121.445 198.26C121.885 197.86 122.399 197.547 122.985 197.32C123.572 197.093 124.185 196.98 124.825 196.98C125.652 196.98 126.379 197.14 127.005 197.46C127.632 197.767 128.119 198.2 128.465 198.76C128.825 199.307 129.005 199.947 129.005 200.68V208H127.185V205.96L127.525 206.08C127.299 206.507 126.992 206.88 126.605 207.2C126.219 207.52 125.765 207.773 125.245 207.96C124.725 208.147 124.159 208.24 123.545 208.24ZM123.905 195.2L125.485 192.04H128.005L125.765 195.2H123.905ZM140.306 208.24C139.266 208.24 138.34 207.993 137.526 207.5C136.713 207.007 136.073 206.333 135.606 205.48C135.14 204.613 134.906 203.647 134.906 202.58C134.906 201.5 135.133 200.54 135.586 199.7C136.053 198.86 136.68 198.2 137.466 197.72C138.266 197.227 139.16 196.98 140.146 196.98C140.946 196.98 141.653 197.127 142.266 197.42C142.893 197.7 143.42 198.087 143.846 198.58C144.286 199.06 144.62 199.613 144.846 200.24C145.086 200.853 145.206 201.493 145.206 202.16C145.206 202.307 145.193 202.473 145.166 202.66C145.153 202.833 145.133 203 145.106 203.16H136.266V201.56H144.026L143.146 202.28C143.266 201.587 143.2 200.967 142.946 200.42C142.693 199.873 142.32 199.44 141.826 199.12C141.333 198.8 140.773 198.64 140.146 198.64C139.52 198.64 138.946 198.8 138.426 199.12C137.906 199.44 137.5 199.9 137.206 200.5C136.926 201.087 136.813 201.787 136.866 202.6C136.813 203.387 136.933 204.08 137.226 204.68C137.533 205.267 137.96 205.727 138.506 206.06C139.066 206.38 139.673 206.54 140.326 206.54C141.046 206.54 141.653 206.373 142.146 206.04C142.64 205.707 143.04 205.28 143.346 204.76L144.906 205.56C144.693 206.053 144.36 206.507 143.906 206.92C143.466 207.32 142.94 207.64 142.326 207.88C141.726 208.12 141.053 208.24 140.306 208.24ZM147.631 208V197.22H149.451V199.32L149.151 199.14C149.418 198.46 149.845 197.933 150.431 197.56C151.031 197.173 151.731 196.98 152.531 196.98C153.305 196.98 153.991 197.153 154.591 197.5C155.205 197.847 155.685 198.327 156.031 198.94C156.391 199.553 156.571 200.247 156.571 201.02V208H154.691V201.62C154.691 201.02 154.585 200.513 154.371 200.1C154.158 199.687 153.851 199.367 153.451 199.14C153.065 198.9 152.618 198.78 152.111 198.78C151.605 198.78 151.151 198.9 150.751 199.14C150.365 199.367 150.058 199.693 149.831 200.12C149.605 200.533 149.491 201.033 149.491 201.62V208H147.631ZM167.07 208.12C166.017 208.12 165.203 207.82 164.63 207.22C164.07 206.62 163.79 205.773 163.79 204.68V199H161.83V197.22H162.23C162.71 197.22 163.09 197.073 163.37 196.78C163.65 196.487 163.79 196.1 163.79 195.62V194.74H165.65V197.22H168.07V199H165.65V204.62C165.65 204.98 165.703 205.293 165.81 205.56C165.93 205.827 166.123 206.04 166.39 206.2C166.657 206.347 167.01 206.42 167.45 206.42C167.543 206.42 167.657 206.413 167.79 206.4C167.937 206.387 168.07 206.373 168.19 206.36V208C168.017 208.04 167.823 208.067 167.61 208.08C167.397 208.107 167.217 208.12 167.07 208.12ZM170.62 208V197.22H172.48V208H170.62ZM170.62 195.5V193.1H172.48V195.5H170.62ZM175.686 210.78V209.88C176.099 209.773 176.412 209.567 176.626 209.26C176.839 208.953 176.959 208.533 176.986 208H176.086V205.6H178.026V207.3C178.026 208.26 177.826 209.033 177.426 209.62C177.039 210.207 176.459 210.593 175.686 210.78ZM188.659 208.24C187.579 208.24 186.639 207.973 185.839 207.44C185.039 206.907 184.473 206.187 184.139 205.28L185.619 204.56C185.926 205.2 186.346 205.707 186.879 206.08C187.413 206.453 188.006 206.64 188.659 206.64C189.246 206.64 189.733 206.5 190.119 206.22C190.506 205.94 190.699 205.573 190.699 205.12C190.699 204.8 190.606 204.547 190.419 204.36C190.246 204.16 190.033 204.007 189.779 203.9C189.526 203.78 189.293 203.693 189.079 203.64L187.459 203.18C186.486 202.9 185.773 202.5 185.319 201.98C184.879 201.46 184.659 200.853 184.659 200.16C184.659 199.52 184.819 198.967 185.139 198.5C185.473 198.02 185.919 197.647 186.479 197.38C187.053 197.113 187.693 196.98 188.399 196.98C189.346 196.98 190.193 197.22 190.939 197.7C191.699 198.18 192.239 198.853 192.559 199.72L191.039 200.42C190.799 199.86 190.439 199.42 189.959 199.1C189.479 198.767 188.939 198.6 188.339 198.6C187.793 198.6 187.359 198.74 187.039 199.02C186.719 199.287 186.559 199.627 186.559 200.04C186.559 200.347 186.639 200.6 186.799 200.8C186.959 200.987 187.153 201.133 187.379 201.24C187.606 201.333 187.826 201.413 188.039 201.48L189.799 202C190.679 202.253 191.359 202.647 191.839 203.18C192.333 203.713 192.579 204.353 192.579 205.1C192.579 205.7 192.413 206.24 192.079 206.72C191.746 207.2 191.286 207.573 190.699 207.84C190.113 208.107 189.433 208.24 188.659 208.24ZM200.134 208.24C199.094 208.24 198.154 208 197.314 207.52C196.474 207.027 195.808 206.353 195.314 205.5C194.821 204.647 194.574 203.68 194.574 202.6C194.574 201.52 194.814 200.56 195.294 199.72C195.788 198.88 196.454 198.213 197.294 197.72C198.134 197.227 199.081 196.98 200.134 196.98C201.174 196.98 202.114 197.227 202.954 197.72C203.794 198.2 204.454 198.86 204.934 199.7C205.428 200.54 205.674 201.507 205.674 202.6C205.674 203.693 205.421 204.667 204.914 205.52C204.408 206.36 203.734 207.027 202.894 207.52C202.068 208 201.148 208.24 200.134 208.24ZM200.134 206.44C200.801 206.44 201.401 206.273 201.934 205.94C202.481 205.607 202.908 205.147 203.214 204.56C203.534 203.973 203.694 203.32 203.694 202.6C203.694 201.867 203.534 201.22 203.214 200.66C202.908 200.087 202.481 199.633 201.934 199.3C201.401 198.953 200.801 198.78 200.134 198.78C199.454 198.78 198.841 198.953 198.294 199.3C197.761 199.633 197.334 200.087 197.014 200.66C196.694 201.22 196.534 201.867 196.534 202.6C196.534 203.32 196.694 203.973 197.014 204.56C197.334 205.147 197.761 205.607 198.294 205.94C198.841 206.273 199.454 206.44 200.134 206.44ZM208.1 208V192.86H209.96V208H208.1ZM217.966 208.24C216.926 208.24 215.986 208 215.146 207.52C214.306 207.027 213.64 206.353 213.146 205.5C212.653 204.647 212.406 203.68 212.406 202.6C212.406 201.52 212.646 200.56 213.126 199.72C213.62 198.88 214.286 198.213 215.126 197.72C215.966 197.227 216.913 196.98 217.966 196.98C219.006 196.98 219.946 197.227 220.786 197.72C221.626 198.2 222.286 198.86 222.766 199.7C223.26 200.54 223.506 201.507 223.506 202.6C223.506 203.693 223.253 204.667 222.746 205.52C222.24 206.36 221.566 207.027 220.726 207.52C219.9 208 218.98 208.24 217.966 208.24ZM217.966 206.44C218.633 206.44 219.233 206.273 219.766 205.94C220.313 205.607 220.74 205.147 221.046 204.56C221.366 203.973 221.526 203.32 221.526 202.6C221.526 201.867 221.366 201.22 221.046 200.66C220.74 200.087 220.313 199.633 219.766 199.3C219.233 198.953 218.633 198.78 217.966 198.78C217.286 198.78 216.673 198.953 216.126 199.3C215.593 199.633 215.166 200.087 214.846 200.66C214.526 201.22 214.366 201.867 214.366 202.6C214.366 203.32 214.526 203.973 214.846 204.56C215.166 205.147 215.593 205.607 216.126 205.94C216.673 206.273 217.286 206.44 217.966 206.44ZM233.769 208.12C232.716 208.12 231.903 207.82 231.329 207.22C230.769 206.62 230.489 205.773 230.489 204.68V199H228.529V197.22H228.929C229.409 197.22 229.789 197.073 230.069 196.78C230.349 196.487 230.489 196.1 230.489 195.62V194.74H232.349V197.22H234.769V199H232.349V204.62C232.349 204.98 232.403 205.293 232.509 205.56C232.629 205.827 232.823 206.04 233.089 206.2C233.356 206.347 233.709 206.42 234.149 206.42C234.243 206.42 234.356 206.413 234.489 206.4C234.636 206.387 234.769 206.373 234.889 206.36V208C234.716 208.04 234.523 208.067 234.309 208.08C234.096 208.107 233.916 208.12 233.769 208.12ZM237.319 208V197.22H239.179V208H237.319ZM237.319 195.5V193.1H239.179V195.5H237.319ZM247.025 208.24C245.985 208.24 245.058 207.993 244.245 207.5C243.432 207.007 242.792 206.333 242.325 205.48C241.858 204.613 241.625 203.647 241.625 202.58C241.625 201.5 241.852 200.54 242.305 199.7C242.772 198.86 243.398 198.2 244.185 197.72C244.985 197.227 245.878 196.98 246.865 196.98C247.665 196.98 248.372 197.127 248.985 197.42C249.612 197.7 250.138 198.087 250.565 198.58C251.005 199.06 251.338 199.613 251.565 200.24C251.805 200.853 251.925 201.493 251.925 202.16C251.925 202.307 251.912 202.473 251.885 202.66C251.872 202.833 251.852 203 251.825 203.16H242.985V201.56H250.745L249.865 202.28C249.985 201.587 249.918 200.967 249.665 200.42C249.412 199.873 249.038 199.44 248.545 199.12C248.052 198.8 247.492 198.64 246.865 198.64C246.238 198.64 245.665 198.8 245.145 199.12C244.625 199.44 244.218 199.9 243.925 200.5C243.645 201.087 243.532 201.787 243.585 202.6C243.532 203.387 243.652 204.08 243.945 204.68C244.252 205.267 244.678 205.727 245.225 206.06C245.785 206.38 246.392 206.54 247.045 206.54C247.765 206.54 248.372 206.373 248.865 206.04C249.358 205.707 249.758 205.28 250.065 204.76L251.625 205.56C251.412 206.053 251.078 206.507 250.625 206.92C250.185 207.32 249.658 207.64 249.045 207.88C248.445 208.12 247.772 208.24 247.025 208.24ZM254.35 208V197.22H256.17V199.32L255.87 199.14C256.137 198.46 256.563 197.933 257.15 197.56C257.75 197.173 258.45 196.98 259.25 196.98C260.023 196.98 260.71 197.153 261.31 197.5C261.923 197.847 262.403 198.327 262.75 198.94C263.11 199.553 263.29 200.247 263.29 201.02V208H261.41V201.62C261.41 201.02 261.303 200.513 261.09 200.1C260.877 199.687 260.57 199.367 260.17 199.14C259.783 198.9 259.337 198.78 258.83 198.78C258.323 198.78 257.87 198.9 257.47 199.14C257.083 199.367 256.777 199.693 256.55 200.12C256.323 200.533 256.21 201.033 256.21 201.62V208H254.35ZM270.912 208.24C269.872 208.24 268.945 207.993 268.132 207.5C267.318 207.007 266.678 206.333 266.212 205.48C265.745 204.613 265.512 203.647 265.512 202.58C265.512 201.5 265.738 200.54 266.192 199.7C266.658 198.86 267.285 198.2 268.072 197.72C268.872 197.227 269.765 196.98 270.752 196.98C271.552 196.98 272.258 197.127 272.872 197.42C273.498 197.7 274.025 198.087 274.452 198.58C274.892 199.06 275.225 199.613 275.452 200.24C275.692 200.853 275.812 201.493 275.812 202.16C275.812 202.307 275.798 202.473 275.772 202.66C275.758 202.833 275.738 203 275.712 203.16H266.872V201.56H274.632L273.752 202.28C273.872 201.587 273.805 200.967 273.552 200.42C273.298 199.873 272.925 199.44 272.432 199.12C271.938 198.8 271.378 198.64 270.752 198.64C270.125 198.64 269.552 198.8 269.032 199.12C268.512 199.44 268.105 199.9 267.812 200.5C267.532 201.087 267.418 201.787 267.472 202.6C267.418 203.387 267.538 204.08 267.832 204.68C268.138 205.267 268.565 205.727 269.112 206.06C269.672 206.38 270.278 206.54 270.932 206.54C271.652 206.54 272.258 206.373 272.752 206.04C273.245 205.707 273.645 205.28 273.952 204.76L275.512 205.56C275.298 206.053 274.965 206.507 274.512 206.92C274.072 207.32 273.545 207.64 272.932 207.88C272.332 208.12 271.658 208.24 270.912 208.24ZM282.097 208.24C281.017 208.24 280.077 207.973 279.277 207.44C278.477 206.907 277.91 206.187 277.577 205.28L279.057 204.56C279.364 205.2 279.784 205.707 280.317 206.08C280.85 206.453 281.444 206.64 282.097 206.64C282.684 206.64 283.17 206.5 283.557 206.22C283.944 205.94 284.137 205.573 284.137 205.12C284.137 204.8 284.044 204.547 283.857 204.36C283.684 204.16 283.47 204.007 283.217 203.9C282.964 203.78 282.73 203.693 282.517 203.64L280.897 203.18C279.924 202.9 279.21 202.5 278.757 201.98C278.317 201.46 278.097 200.853 278.097 200.16C278.097 199.52 278.257 198.967 278.577 198.5C278.91 198.02 279.357 197.647 279.917 197.38C280.49 197.113 281.13 196.98 281.837 196.98C282.784 196.98 283.63 197.22 284.377 197.7C285.137 198.18 285.677 198.853 285.997 199.72L284.477 200.42C284.237 199.86 283.877 199.42 283.397 199.1C282.917 198.767 282.377 198.6 281.777 198.6C281.23 198.6 280.797 198.74 280.477 199.02C280.157 199.287 279.997 199.627 279.997 200.04C279.997 200.347 280.077 200.6 280.237 200.8C280.397 200.987 280.59 201.133 280.817 201.24C281.044 201.333 281.264 201.413 281.477 201.48L283.237 202C284.117 202.253 284.797 202.647 285.277 203.18C285.77 203.713 286.017 204.353 286.017 205.1C286.017 205.7 285.85 206.24 285.517 206.72C285.184 207.2 284.724 207.573 284.137 207.84C283.55 208.107 282.87 208.24 282.097 208.24ZM300.529 212V205.7L300.829 206.02C300.455 206.727 299.909 207.273 299.189 207.66C298.482 208.047 297.689 208.24 296.809 208.24C295.795 208.24 294.882 207.993 294.069 207.5C293.269 207.007 292.635 206.333 292.169 205.48C291.702 204.627 291.469 203.673 291.469 202.62C291.469 201.54 291.702 200.58 292.169 199.74C292.635 198.887 293.269 198.213 294.069 197.72C294.882 197.227 295.795 196.98 296.809 196.98C297.702 196.98 298.495 197.173 299.189 197.56C299.882 197.933 300.429 198.44 300.829 199.08L300.589 199.54V197.22H302.409V212H300.529ZM296.969 206.44C297.649 206.44 298.255 206.273 298.789 205.94C299.322 205.607 299.742 205.153 300.049 204.58C300.369 203.993 300.529 203.34 300.529 202.62C300.529 201.887 300.369 201.233 300.049 200.66C299.742 200.073 299.322 199.613 298.789 199.28C298.255 198.947 297.649 198.78 296.969 198.78C296.302 198.78 295.695 198.953 295.149 199.3C294.615 199.633 294.195 200.087 293.889 200.66C293.582 201.22 293.429 201.873 293.429 202.62C293.429 203.34 293.582 203.993 293.889 204.58C294.195 205.153 294.615 205.607 295.149 205.94C295.682 206.273 296.289 206.44 296.969 206.44ZM309.108 208.24C308.334 208.24 307.634 208.06 307.008 207.7C306.394 207.34 305.914 206.84 305.568 206.2C305.234 205.547 305.068 204.8 305.068 203.96V197.22H306.928V203.76C306.928 204.293 307.034 204.76 307.248 205.16C307.474 205.56 307.781 205.873 308.168 206.1C308.568 206.327 309.021 206.44 309.528 206.44C310.034 206.44 310.481 206.327 310.868 206.1C311.268 205.873 311.574 205.547 311.788 205.12C312.014 204.693 312.128 204.187 312.128 203.6V197.22H314.008V208H312.188V205.9L312.488 206.08C312.234 206.76 311.801 207.293 311.188 207.68C310.588 208.053 309.894 208.24 309.108 208.24ZM321.849 208.24C320.809 208.24 319.883 207.993 319.069 207.5C318.256 207.007 317.616 206.333 317.149 205.48C316.683 204.613 316.449 203.647 316.449 202.58C316.449 201.5 316.676 200.54 317.129 199.7C317.596 198.86 318.223 198.2 319.009 197.72C319.809 197.227 320.703 196.98 321.689 196.98C322.489 196.98 323.196 197.127 323.809 197.42C324.436 197.7 324.963 198.087 325.389 198.58C325.829 199.06 326.163 199.613 326.389 200.24C326.629 200.853 326.749 201.493 326.749 202.16C326.749 202.307 326.736 202.473 326.709 202.66C326.696 202.833 326.676 203 326.649 203.16H317.809V201.56H325.569L324.689 202.28C324.809 201.587 324.743 200.967 324.489 200.42C324.236 199.873 323.863 199.44 323.369 199.12C322.876 198.8 322.316 198.64 321.689 198.64C321.063 198.64 320.489 198.8 319.969 199.12C319.449 199.44 319.043 199.9 318.749 200.5C318.469 201.087 318.356 201.787 318.409 202.6C318.356 203.387 318.476 204.08 318.769 204.68C319.076 205.267 319.503 205.727 320.049 206.06C320.609 206.38 321.216 206.54 321.869 206.54C322.589 206.54 323.196 206.373 323.689 206.04C324.183 205.707 324.583 205.28 324.889 204.76L326.449 205.56C326.236 206.053 325.903 206.507 325.449 206.92C325.009 207.32 324.483 207.64 323.869 207.88C323.269 208.12 322.596 208.24 321.849 208.24ZM337.591 208.24C336.551 208.24 335.625 207.993 334.811 207.5C333.998 207.007 333.358 206.333 332.891 205.48C332.425 204.613 332.191 203.647 332.191 202.58C332.191 201.5 332.418 200.54 332.871 199.7C333.338 198.86 333.965 198.2 334.751 197.72C335.551 197.227 336.445 196.98 337.431 196.98C338.231 196.98 338.938 197.127 339.551 197.42C340.178 197.7 340.705 198.087 341.131 198.58C341.571 199.06 341.905 199.613 342.131 200.24C342.371 200.853 342.491 201.493 342.491 202.16C342.491 202.307 342.478 202.473 342.451 202.66C342.438 202.833 342.418 203 342.391 203.16H333.551V201.56H341.311L340.431 202.28C340.551 201.587 340.485 200.967 340.231 200.42C339.978 199.873 339.605 199.44 339.111 199.12C338.618 198.8 338.058 198.64 337.431 198.64C336.805 198.64 336.231 198.8 335.711 199.12C335.191 199.44 334.785 199.9 334.491 200.5C334.211 201.087 334.098 201.787 334.151 202.6C334.098 203.387 334.218 204.08 334.511 204.68C334.818 205.267 335.245 205.727 335.791 206.06C336.351 206.38 336.958 206.54 337.611 206.54C338.331 206.54 338.938 206.373 339.431 206.04C339.925 205.707 340.325 205.28 340.631 204.76L342.191 205.56C341.978 206.053 341.645 206.507 341.191 206.92C340.751 207.32 340.225 207.64 339.611 207.88C339.011 208.12 338.338 208.24 337.591 208.24ZM344.917 208V197.22H346.737V199.32L346.437 199.14C346.703 198.46 347.13 197.933 347.717 197.56C348.317 197.173 349.017 196.98 349.817 196.98C350.59 196.98 351.277 197.153 351.877 197.5C352.49 197.847 352.97 198.327 353.317 198.94C353.677 199.553 353.857 200.247 353.857 201.02V208H351.977V201.62C351.977 201.02 351.87 200.513 351.657 200.1C351.443 199.687 351.137 199.367 350.737 199.14C350.35 198.9 349.903 198.78 349.397 198.78C348.89 198.78 348.437 198.9 348.037 199.14C347.65 199.367 347.343 199.693 347.117 200.12C346.89 200.533 346.777 201.033 346.777 201.62V208H344.917ZM361.518 208.24C360.465 208.24 359.525 207.993 358.698 207.5C357.885 207.007 357.245 206.333 356.778 205.48C356.311 204.627 356.078 203.667 356.078 202.6C356.078 201.52 356.311 200.56 356.778 199.72C357.245 198.88 357.885 198.213 358.698 197.72C359.525 197.227 360.465 196.98 361.518 196.98C362.225 196.98 362.885 197.107 363.498 197.36C364.111 197.613 364.651 197.953 365.118 198.38C365.585 198.807 365.925 199.307 366.138 199.88L364.478 200.68C364.225 200.12 363.838 199.667 363.318 199.32C362.798 198.96 362.198 198.78 361.518 198.78C360.865 198.78 360.271 198.947 359.738 199.28C359.218 199.613 358.805 200.067 358.498 200.64C358.191 201.213 358.038 201.873 358.038 202.62C358.038 203.34 358.191 203.993 358.498 204.58C358.805 205.153 359.218 205.607 359.738 205.94C360.271 206.273 360.865 206.44 361.518 206.44C362.198 206.44 362.798 206.267 363.318 205.92C363.838 205.56 364.225 205.087 364.478 204.5L366.138 205.34C365.925 205.9 365.585 206.4 365.118 206.84C364.651 207.267 364.111 207.607 363.498 207.86C362.885 208.113 362.225 208.24 361.518 208.24ZM373.689 208.24C372.649 208.24 371.709 208 370.869 207.52C370.029 207.027 369.362 206.353 368.869 205.5C368.376 204.647 368.129 203.68 368.129 202.6C368.129 201.52 368.369 200.56 368.849 199.72C369.342 198.88 370.009 198.213 370.849 197.72C371.689 197.227 372.636 196.98 373.689 196.98C374.729 196.98 375.669 197.227 376.509 197.72C377.349 198.2 378.009 198.86 378.489 199.7C378.982 200.54 379.229 201.507 379.229 202.6C379.229 203.693 378.976 204.667 378.469 205.52C377.962 206.36 377.289 207.027 376.449 207.52C375.622 208 374.702 208.24 373.689 208.24ZM373.689 206.44C374.356 206.44 374.956 206.273 375.489 205.94C376.036 205.607 376.462 205.147 376.769 204.56C377.089 203.973 377.249 203.32 377.249 202.6C377.249 201.867 377.089 201.22 376.769 200.66C376.462 200.087 376.036 199.633 375.489 199.3C374.956 198.953 374.356 198.78 373.689 198.78C373.009 198.78 372.396 198.953 371.849 199.3C371.316 199.633 370.889 200.087 370.569 200.66C370.249 201.22 370.089 201.867 370.089 202.6C370.089 203.32 370.249 203.973 370.569 204.56C370.889 205.147 371.316 205.607 371.849 205.94C372.396 206.273 373.009 206.44 373.689 206.44ZM381.655 208V197.22H383.475V199.32L383.175 199.14C383.442 198.46 383.868 197.933 384.455 197.56C385.055 197.173 385.755 196.98 386.555 196.98C387.328 196.98 388.015 197.153 388.615 197.5C389.228 197.847 389.708 198.327 390.055 198.94C390.415 199.553 390.595 200.247 390.595 201.02V208H388.715V201.62C388.715 201.02 388.608 200.513 388.395 200.1C388.182 199.687 387.875 199.367 387.475 199.14C387.088 198.9 386.642 198.78 386.135 198.78C385.628 198.78 385.175 198.9 384.775 199.14C384.388 199.367 384.082 199.693 383.855 200.12C383.628 200.533 383.515 201.033 383.515 201.62V208H381.655ZM397.636 208.12C396.583 208.12 395.77 207.82 395.196 207.22C394.636 206.62 394.356 205.773 394.356 204.68V199H392.396V197.22H392.796C393.276 197.22 393.656 197.073 393.936 196.78C394.216 196.487 394.356 196.1 394.356 195.62V194.74H396.216V197.22H398.636V199H396.216V204.62C396.216 204.98 396.27 205.293 396.376 205.56C396.496 205.827 396.69 206.04 396.956 206.2C397.223 206.347 397.576 206.42 398.016 206.42C398.11 206.42 398.223 206.413 398.356 206.4C398.503 206.387 398.636 206.373 398.756 206.36V208C398.583 208.04 398.39 208.067 398.176 208.08C397.963 208.107 397.783 208.12 397.636 208.12ZM401.186 208V197.22H403.006V199.2L402.806 198.92C403.059 198.307 403.446 197.853 403.966 197.56C404.486 197.253 405.119 197.1 405.866 197.1H406.526V198.86H405.586C404.826 198.86 404.213 199.1 403.746 199.58C403.279 200.047 403.046 200.713 403.046 201.58V208H401.186ZM411.338 208.24C410.632 208.24 410.005 208.113 409.458 207.86C408.925 207.593 408.505 207.233 408.198 206.78C407.892 206.313 407.738 205.78 407.738 205.18C407.738 204.607 407.858 204.093 408.098 203.64C408.352 203.173 408.738 202.78 409.258 202.46C409.792 202.14 410.458 201.913 411.258 201.78L415.258 201.12V202.68L411.678 203.28C410.985 203.4 410.478 203.62 410.158 203.94C409.852 204.26 409.698 204.653 409.698 205.12C409.698 205.56 409.872 205.927 410.218 206.22C410.578 206.513 411.025 206.66 411.558 206.66C412.238 206.66 412.825 206.52 413.318 206.24C413.825 205.947 414.218 205.553 414.498 205.06C414.792 204.567 414.938 204.02 414.938 203.42V200.68C414.938 200.093 414.718 199.62 414.278 199.26C413.852 198.887 413.285 198.7 412.578 198.7C411.965 198.7 411.418 198.86 410.938 199.18C410.472 199.487 410.125 199.9 409.898 200.42L408.278 199.58C408.478 199.087 408.798 198.647 409.238 198.26C409.678 197.86 410.192 197.547 410.778 197.32C411.365 197.093 411.978 196.98 412.618 196.98C413.445 196.98 414.172 197.14 414.798 197.46C415.425 197.767 415.912 198.2 416.258 198.76C416.618 199.307 416.798 199.947 416.798 200.68V208H414.978V205.96L415.318 206.08C415.092 206.507 414.785 206.88 414.398 207.2C414.012 207.52 413.558 207.773 413.038 207.96C412.518 208.147 411.952 208.24 411.338 208.24ZM419.682 208V197.22H421.502V199.2L421.302 198.92C421.556 198.307 421.942 197.853 422.462 197.56C422.982 197.253 423.616 197.1 424.362 197.1H425.022V198.86H424.082C423.322 198.86 422.709 199.1 422.242 199.58C421.776 200.047 421.542 200.713 421.542 201.58V208H419.682ZM426.674 208V192.86H428.534V208H426.674ZM434.58 208.24C433.874 208.24 433.247 208.113 432.7 207.86C432.167 207.593 431.747 207.233 431.44 206.78C431.134 206.313 430.98 205.78 430.98 205.18C430.98 204.607 431.1 204.093 431.34 203.64C431.594 203.173 431.98 202.78 432.5 202.46C433.034 202.14 433.7 201.913 434.5 201.78L438.5 201.12V202.68L434.92 203.28C434.227 203.4 433.72 203.62 433.4 203.94C433.094 204.26 432.94 204.653 432.94 205.12C432.94 205.56 433.114 205.927 433.46 206.22C433.82 206.513 434.267 206.66 434.8 206.66C435.48 206.66 436.067 206.52 436.56 206.24C437.067 205.947 437.46 205.553 437.74 205.06C438.034 204.567 438.18 204.02 438.18 203.42V200.68C438.18 200.093 437.96 199.62 437.52 199.26C437.094 198.887 436.527 198.7 435.82 198.7C435.207 198.7 434.66 198.86 434.18 199.18C433.714 199.487 433.367 199.9 433.14 200.42L431.52 199.58C431.72 199.087 432.04 198.647 432.48 198.26C432.92 197.86 433.434 197.547 434.02 197.32C434.607 197.093 435.22 196.98 435.86 196.98C436.687 196.98 437.414 197.14 438.04 197.46C438.667 197.767 439.154 198.2 439.5 198.76C439.86 199.307 440.04 199.947 440.04 200.68V208H438.22V205.96L438.56 206.08C438.334 206.507 438.027 206.88 437.64 207.2C437.254 207.52 436.8 207.773 436.28 207.96C435.76 208.147 435.194 208.24 434.58 208.24ZM443.684 208V205.6H445.624V208H443.684ZM456.529 212.36C455.662 212.36 454.916 212.187 454.289 211.84C453.662 211.493 453.176 211.033 452.829 210.46C452.482 209.887 452.309 209.28 452.309 208.64C452.309 208.067 452.422 207.553 452.649 207.1C452.889 206.647 453.189 206.233 453.549 205.86C453.922 205.487 454.296 205.113 454.669 204.74C455.096 204.313 455.476 203.867 455.809 203.4C456.142 202.933 456.309 202.4 456.309 201.8V201.58H458.209V201.86C458.209 202.447 458.102 202.973 457.889 203.44C457.689 203.893 457.429 204.307 457.109 204.68C456.789 205.04 456.462 205.387 456.129 205.72C455.662 206.173 455.236 206.62 454.849 207.06C454.462 207.487 454.269 208.007 454.269 208.62C454.269 208.967 454.356 209.293 454.529 209.6C454.716 209.907 454.976 210.153 455.309 210.34C455.656 210.527 456.069 210.62 456.549 210.62C457.229 210.62 457.816 210.407 458.309 209.98C458.802 209.553 459.116 208.987 459.249 208.28L461.009 208.68C460.889 209.413 460.622 210.053 460.209 210.6C459.796 211.16 459.276 211.593 458.649 211.9C458.022 212.207 457.316 212.36 456.529 212.36ZM456.229 199.62V197.22H458.169V199.62H456.229ZM465.1 208V194.9H461.06V193.1H471.06V194.9H467.08V208H465.1ZM476.283 208.24C475.243 208.24 474.316 207.993 473.503 207.5C472.689 207.007 472.049 206.333 471.583 205.48C471.116 204.613 470.883 203.647 470.883 202.58C470.883 201.5 471.109 200.54 471.563 199.7C472.029 198.86 472.656 198.2 473.443 197.72C474.243 197.227 475.136 196.98 476.123 196.98C476.923 196.98 477.629 197.127 478.243 197.42C478.869 197.7 479.396 198.087 479.823 198.58C480.263 199.06 480.596 199.613 480.823 200.24C481.063 200.853 481.183 201.493 481.183 202.16C481.183 202.307 481.169 202.473 481.143 202.66C481.129 202.833 481.109 203 481.083 203.16H472.243V201.56H480.003L479.123 202.28C479.243 201.587 479.176 200.967 478.923 200.42C478.669 199.873 478.296 199.44 477.803 199.12C477.309 198.8 476.749 198.64 476.123 198.64C475.496 198.64 474.923 198.8 474.403 199.12C473.883 199.44 473.476 199.9 473.183 200.5C472.903 201.087 472.789 201.787 472.843 202.6C472.789 203.387 472.909 204.08 473.203 204.68C473.509 205.267 473.936 205.727 474.483 206.06C475.043 206.38 475.649 206.54 476.303 206.54C477.023 206.54 477.629 206.373 478.123 206.04C478.616 205.707 479.016 205.28 479.323 204.76L480.883 205.56C480.669 206.053 480.336 206.507 479.883 206.92C479.443 207.32 478.916 207.64 478.303 207.88C477.703 208.12 477.029 208.24 476.283 208.24ZM490.225 208.24C489.518 208.24 488.892 208.113 488.345 207.86C487.812 207.593 487.392 207.233 487.085 206.78C486.778 206.313 486.625 205.78 486.625 205.18C486.625 204.607 486.745 204.093 486.985 203.64C487.238 203.173 487.625 202.78 488.145 202.46C488.678 202.14 489.345 201.913 490.145 201.78L494.145 201.12V202.68L490.565 203.28C489.872 203.4 489.365 203.62 489.045 203.94C488.738 204.26 488.585 204.653 488.585 205.12C488.585 205.56 488.758 205.927 489.105 206.22C489.465 206.513 489.912 206.66 490.445 206.66C491.125 206.66 491.712 206.52 492.205 206.24C492.712 205.947 493.105 205.553 493.385 205.06C493.678 204.567 493.825 204.02 493.825 203.42V200.68C493.825 200.093 493.605 199.62 493.165 199.26C492.738 198.887 492.172 198.7 491.465 198.7C490.852 198.7 490.305 198.86 489.825 199.18C489.358 199.487 489.012 199.9 488.785 200.42L487.165 199.58C487.365 199.087 487.685 198.647 488.125 198.26C488.565 197.86 489.078 197.547 489.665 197.32C490.252 197.093 490.865 196.98 491.505 196.98C492.332 196.98 493.058 197.14 493.685 197.46C494.312 197.767 494.798 198.2 495.145 198.76C495.505 199.307 495.685 199.947 495.685 200.68V208H493.865V205.96L494.205 206.08C493.978 206.507 493.672 206.88 493.285 207.2C492.898 207.52 492.445 207.773 491.925 207.96C491.405 208.147 490.838 208.24 490.225 208.24ZM498.569 208V197.22H500.389V199.32L500.089 199.14C500.356 198.46 500.782 197.933 501.369 197.56C501.969 197.173 502.669 196.98 503.469 196.98C504.242 196.98 504.929 197.153 505.529 197.5C506.142 197.847 506.622 198.327 506.969 198.94C507.329 199.553 507.509 200.247 507.509 201.02V208H505.629V201.62C505.629 201.02 505.522 200.513 505.309 200.1C505.096 199.687 504.789 199.367 504.389 199.14C504.002 198.9 503.556 198.78 503.049 198.78C502.542 198.78 502.089 198.9 501.689 199.14C501.302 199.367 500.996 199.693 500.769 200.12C500.542 200.533 500.429 201.033 500.429 201.62V208H498.569ZM510.17 208V197.22H512.03V208H510.17ZM510.17 195.5V193.1H512.03V195.5H510.17ZM514.917 208V197.22H516.737V199.42L516.477 199.08C516.743 198.4 517.17 197.88 517.757 197.52C518.343 197.16 519.003 196.98 519.737 196.98C520.577 196.98 521.33 197.213 521.997 197.68C522.677 198.147 523.143 198.76 523.397 199.52L522.877 199.54C523.157 198.7 523.63 198.067 524.297 197.64C524.963 197.2 525.703 196.98 526.517 196.98C527.263 196.98 527.937 197.153 528.537 197.5C529.15 197.847 529.637 198.327 529.997 198.94C530.357 199.553 530.537 200.247 530.537 201.02V208H528.657V201.62C528.657 201.02 528.55 200.513 528.337 200.1C528.123 199.687 527.83 199.367 527.457 199.14C527.097 198.9 526.67 198.78 526.177 198.78C525.697 198.78 525.263 198.9 524.877 199.14C524.503 199.367 524.203 199.693 523.977 200.12C523.763 200.533 523.657 201.033 523.657 201.62V208H521.777V201.62C521.777 201.02 521.67 200.513 521.457 200.1C521.243 199.687 520.95 199.367 520.577 199.14C520.217 198.9 519.79 198.78 519.297 198.78C518.817 198.78 518.383 198.9 517.997 199.14C517.623 199.367 517.323 199.693 517.097 200.12C516.883 200.533 516.777 201.033 516.777 201.62V208H514.917ZM536.338 208.24C535.632 208.24 535.005 208.113 534.458 207.86C533.925 207.593 533.505 207.233 533.198 206.78C532.892 206.313 532.738 205.78 532.738 205.18C532.738 204.607 532.858 204.093 533.098 203.64C533.352 203.173 533.738 202.78 534.258 202.46C534.792 202.14 535.458 201.913 536.258 201.78L540.258 201.12V202.68L536.678 203.28C535.985 203.4 535.478 203.62 535.158 203.94C534.852 204.26 534.698 204.653 534.698 205.12C534.698 205.56 534.872 205.927 535.218 206.22C535.578 206.513 536.025 206.66 536.558 206.66C537.238 206.66 537.825 206.52 538.318 206.24C538.825 205.947 539.218 205.553 539.498 205.06C539.792 204.567 539.938 204.02 539.938 203.42V200.68C539.938 200.093 539.718 199.62 539.278 199.26C538.852 198.887 538.285 198.7 537.578 198.7C536.965 198.7 536.418 198.86 535.938 199.18C535.472 199.487 535.125 199.9 534.898 200.42L533.278 199.58C533.478 199.087 533.798 198.647 534.238 198.26C534.678 197.86 535.192 197.547 535.778 197.32C536.365 197.093 536.978 196.98 537.618 196.98C538.445 196.98 539.172 197.14 539.798 197.46C540.425 197.767 540.912 198.2 541.258 198.76C541.618 199.307 541.798 199.947 541.798 200.68V208H539.978V205.96L540.318 206.08C540.092 206.507 539.785 206.88 539.398 207.2C539.012 207.52 538.558 207.773 538.038 207.96C537.518 208.147 536.952 208.24 536.338 208.24ZM548.542 208.24C547.462 208.24 546.522 207.973 545.722 207.44C544.922 206.907 544.356 206.187 544.022 205.28L545.502 204.56C545.809 205.2 546.229 205.707 546.762 206.08C547.296 206.453 547.889 206.64 548.542 206.64C549.129 206.64 549.616 206.5 550.002 206.22C550.389 205.94 550.582 205.573 550.582 205.12C550.582 204.8 550.489 204.547 550.302 204.36C550.129 204.16 549.916 204.007 549.662 203.9C549.409 203.78 549.176 203.693 548.962 203.64L547.342 203.18C546.369 202.9 545.656 202.5 545.202 201.98C544.762 201.46 544.542 200.853 544.542 200.16C544.542 199.52 544.702 198.967 545.022 198.5C545.356 198.02 545.802 197.647 546.362 197.38C546.936 197.113 547.576 196.98 548.282 196.98C549.229 196.98 550.076 197.22 550.822 197.7C551.582 198.18 552.122 198.853 552.442 199.72L550.922 200.42C550.682 199.86 550.322 199.42 549.842 199.1C549.362 198.767 548.822 198.6 548.222 198.6C547.676 198.6 547.242 198.74 546.922 199.02C546.602 199.287 546.442 199.627 546.442 200.04C546.442 200.347 546.522 200.6 546.682 200.8C546.842 200.987 547.036 201.133 547.262 201.24C547.489 201.333 547.709 201.413 547.922 201.48L549.682 202C550.562 202.253 551.242 202.647 551.722 203.18C552.216 203.713 552.462 204.353 552.462 205.1C552.462 205.7 552.296 206.24 551.962 206.72C551.629 207.2 551.169 207.573 550.582 207.84C549.996 208.107 549.316 208.24 548.542 208.24ZM564.971 208.24C564.264 208.24 563.638 208.113 563.091 207.86C562.558 207.593 562.138 207.233 561.831 206.78C561.524 206.313 561.371 205.78 561.371 205.18C561.371 204.607 561.491 204.093 561.731 203.64C561.984 203.173 562.371 202.78 562.891 202.46C563.424 202.14 564.091 201.913 564.891 201.78L568.891 201.12V202.68L565.311 203.28C564.618 203.4 564.111 203.62 563.791 203.94C563.484 204.26 563.331 204.653 563.331 205.12C563.331 205.56 563.504 205.927 563.851 206.22C564.211 206.513 564.658 206.66 565.191 206.66C565.871 206.66 566.458 206.52 566.951 206.24C567.458 205.947 567.851 205.553 568.131 205.06C568.424 204.567 568.571 204.02 568.571 203.42V200.68C568.571 200.093 568.351 199.62 567.911 199.26C567.484 198.887 566.918 198.7 566.211 198.7C565.598 198.7 565.051 198.86 564.571 199.18C564.104 199.487 563.758 199.9 563.531 200.42L561.911 199.58C562.111 199.087 562.431 198.647 562.871 198.26C563.311 197.86 563.824 197.547 564.411 197.32C564.998 197.093 565.611 196.98 566.251 196.98C567.078 196.98 567.804 197.14 568.431 197.46C569.058 197.767 569.544 198.2 569.891 198.76C570.251 199.307 570.431 199.947 570.431 200.68V208H568.611V205.96L568.951 206.08C568.724 206.507 568.418 206.88 568.031 207.2C567.644 207.52 567.191 207.773 566.671 207.96C566.151 208.147 565.584 208.24 564.971 208.24ZM4.44 240L0.22 229.22H2.3L5.68 238.34H4.96L8.36 229.22H10.44L6.2 240H4.44ZM12.1041 240V229.22H13.9641V240H12.1041ZM12.1041 227.5V225.1H13.9641V227.5H12.1041ZM19.8502 240L15.6302 229.22H17.7102L21.0902 238.34H20.3702L23.7702 229.22H25.8502L21.6102 240H19.8502ZM27.5142 240V229.22H29.3742V240H27.5142ZM27.5142 227.5V225.1H29.3742V227.5H27.5142ZM32.2603 240V229.22H34.0803V231.2L33.8803 230.92C34.1336 230.307 34.5203 229.853 35.0403 229.56C35.5603 229.253 36.1936 229.1 36.9403 229.1H37.6003V230.86H36.6603C35.9003 230.86 35.287 231.1 34.8203 231.58C34.3536 232.047 34.1203 232.713 34.1203 233.58V240H32.2603ZM42.7095 244V229.22H44.5295V231.54L44.2895 231.08C44.6895 230.44 45.2362 229.933 45.9295 229.56C46.6229 229.173 47.4162 228.98 48.3095 228.98C49.3229 228.98 50.2295 229.227 51.0295 229.72C51.8429 230.213 52.4829 230.887 52.9495 231.74C53.4162 232.58 53.6495 233.54 53.6495 234.62C53.6495 235.673 53.4162 236.627 52.9495 237.48C52.4829 238.333 51.8429 239.007 51.0295 239.5C50.2295 239.993 49.3162 240.24 48.2895 240.24C47.4229 240.24 46.6295 240.047 45.9095 239.66C45.2029 239.273 44.6562 238.727 44.2695 238.02L44.5695 237.7V244H42.7095ZM48.1495 238.44C48.8295 238.44 49.4362 238.273 49.9695 237.94C50.5029 237.607 50.9162 237.153 51.2095 236.58C51.5162 235.993 51.6695 235.34 51.6695 234.62C51.6695 233.873 51.5162 233.22 51.2095 232.66C50.9162 232.087 50.5029 231.633 49.9695 231.3C49.4362 230.953 48.8295 230.78 48.1495 230.78C47.4695 230.78 46.8562 230.947 46.3095 231.28C45.7762 231.613 45.3495 232.073 45.0295 232.66C44.7229 233.233 44.5695 233.887 44.5695 234.62C44.5695 235.34 44.7229 235.993 45.0295 236.58C45.3495 237.153 45.7762 237.607 46.3095 237.94C46.8562 238.273 47.4695 238.44 48.1495 238.44ZM61.2084 240.24C60.1684 240.24 59.2284 240 58.3884 239.52C57.5484 239.027 56.8818 238.353 56.3884 237.5C55.8951 236.647 55.6484 235.68 55.6484 234.6C55.6484 233.52 55.8884 232.56 56.3684 231.72C56.8618 230.88 57.5284 230.213 58.3684 229.72C59.2084 229.227 60.1551 228.98 61.2084 228.98C62.2484 228.98 63.1884 229.227 64.0284 229.72C64.8684 230.2 65.5284 230.86 66.0084 231.7C66.5018 232.54 66.7484 233.507 66.7484 234.6C66.7484 235.693 66.4951 236.667 65.9884 237.52C65.4818 238.36 64.8084 239.027 63.9684 239.52C63.1418 240 62.2218 240.24 61.2084 240.24ZM61.2084 238.44C61.8751 238.44 62.4751 238.273 63.0084 237.94C63.5551 237.607 63.9818 237.147 64.2884 236.56C64.6084 235.973 64.7684 235.32 64.7684 234.6C64.7684 233.867 64.6084 233.22 64.2884 232.66C63.9818 232.087 63.5551 231.633 63.0084 231.3C62.4751 230.953 61.8751 230.78 61.2084 230.78C60.5284 230.78 59.9151 230.953 59.3684 231.3C58.8351 231.633 58.4084 232.087 58.0884 232.66C57.7684 233.22 57.6084 233.867 57.6084 234.6C57.6084 235.32 57.7684 235.973 58.0884 236.56C58.4084 237.147 58.8351 237.607 59.3684 237.94C59.9151 238.273 60.5284 238.44 61.2084 238.44ZM69.1744 240V229.22H70.9944V231.2L70.7944 230.92C71.0477 230.307 71.4344 229.853 71.9544 229.56C72.4744 229.253 73.1077 229.1 73.8544 229.1H74.5144V230.86H73.5744C72.8144 230.86 72.201 231.1 71.7344 231.58C71.2677 232.047 71.0344 232.713 71.0344 233.58V240H69.1744ZM79.6236 240V224.86H81.4836V240H79.6236ZM87.5297 240.24C86.823 240.24 86.1964 240.113 85.6497 239.86C85.1164 239.593 84.6964 239.233 84.3897 238.78C84.083 238.313 83.9297 237.78 83.9297 237.18C83.9297 236.607 84.0497 236.093 84.2897 235.64C84.543 235.173 84.9297 234.78 85.4497 234.46C85.983 234.14 86.6497 233.913 87.4497 233.78L91.4497 233.12V234.68L87.8697 235.28C87.1764 235.4 86.6697 235.62 86.3497 235.94C86.043 236.26 85.8897 236.653 85.8897 237.12C85.8897 237.56 86.063 237.927 86.4097 238.22C86.7697 238.513 87.2164 238.66 87.7497 238.66C88.4297 238.66 89.0164 238.52 89.5097 238.24C90.0164 237.947 90.4097 237.553 90.6897 237.06C90.983 236.567 91.1297 236.02 91.1297 235.42V232.68C91.1297 232.093 90.9097 231.62 90.4697 231.26C90.043 230.887 89.4764 230.7 88.7697 230.7C88.1564 230.7 87.6097 230.86 87.1297 231.18C86.663 231.487 86.3164 231.9 86.0897 232.42L84.4697 231.58C84.6697 231.087 84.9897 230.647 85.4297 230.26C85.8697 229.86 86.383 229.547 86.9697 229.32C87.5564 229.093 88.1697 228.98 88.8097 228.98C89.6364 228.98 90.363 229.14 90.9897 229.46C91.6164 229.767 92.103 230.2 92.4497 230.76C92.8097 231.307 92.9897 231.947 92.9897 232.68V240H91.1697V237.96L91.5097 238.08C91.283 238.507 90.9764 238.88 90.5897 239.2C90.203 239.52 89.7497 239.773 89.2297 239.96C88.7097 240.147 88.143 240.24 87.5297 240.24ZM99.5506 240V225.1H104.811C105.797 225.1 106.664 225.287 107.411 225.66C108.157 226.033 108.737 226.567 109.151 227.26C109.577 227.953 109.791 228.767 109.791 229.7C109.791 230.753 109.524 231.647 108.991 232.38C108.457 233.113 107.737 233.64 106.831 233.96L110.291 240H108.011L104.371 233.54L105.671 234.3H101.511V240H99.5506ZM101.511 232.5H104.871C105.457 232.5 105.971 232.387 106.411 232.16C106.851 231.933 107.191 231.607 107.431 231.18C107.684 230.753 107.811 230.26 107.811 229.7C107.811 229.127 107.684 228.633 107.431 228.22C107.191 227.793 106.851 227.467 106.411 227.24C105.971 227.013 105.457 226.9 104.871 226.9H101.511V232.5ZM116.654 240.24C115.614 240.24 114.687 239.993 113.874 239.5C113.061 239.007 112.421 238.333 111.954 237.48C111.487 236.613 111.254 235.647 111.254 234.58C111.254 233.5 111.481 232.54 111.934 231.7C112.401 230.86 113.027 230.2 113.814 229.72C114.614 229.227 115.507 228.98 116.494 228.98C117.294 228.98 118.001 229.127 118.614 229.42C119.241 229.7 119.767 230.087 120.194 230.58C120.634 231.06 120.967 231.613 121.194 232.24C121.434 232.853 121.554 233.493 121.554 234.16C121.554 234.307 121.541 234.473 121.514 234.66C121.501 234.833 121.481 235 121.454 235.16H112.614V233.56H120.374L119.494 234.28C119.614 233.587 119.547 232.967 119.294 232.42C119.041 231.873 118.667 231.44 118.174 231.12C117.681 230.8 117.121 230.64 116.494 230.64C115.867 230.64 115.294 230.8 114.774 231.12C114.254 231.44 113.847 231.9 113.554 232.5C113.274 233.087 113.161 233.787 113.214 234.6C113.161 235.387 113.281 236.08 113.574 236.68C113.881 237.267 114.307 237.727 114.854 238.06C115.414 238.38 116.021 238.54 116.674 238.54C117.394 238.54 118.001 238.373 118.494 238.04C118.987 237.707 119.387 237.28 119.694 236.76L121.254 237.56C121.041 238.053 120.707 238.507 120.254 238.92C119.814 239.32 119.287 239.64 118.674 239.88C118.074 240.12 117.401 240.24 116.654 240.24ZM129.559 240.24C128.692 240.24 127.899 240.047 127.179 239.66C126.472 239.273 125.926 238.727 125.539 238.02L125.799 237.7V240H123.979V224.86H125.839V231.54L125.559 231.08C125.959 230.44 126.506 229.933 127.199 229.56C127.892 229.173 128.686 228.98 129.579 228.98C130.592 228.98 131.499 229.227 132.299 229.72C133.112 230.213 133.752 230.887 134.219 231.74C134.686 232.58 134.919 233.54 134.919 234.62C134.919 235.673 134.686 236.627 134.219 237.48C133.752 238.333 133.112 239.007 132.299 239.5C131.499 239.993 130.586 240.24 129.559 240.24ZM129.419 238.44C130.099 238.44 130.706 238.273 131.239 237.94C131.772 237.607 132.186 237.153 132.479 236.58C132.786 235.993 132.939 235.34 132.939 234.62C132.939 233.873 132.786 233.22 132.479 232.66C132.186 232.087 131.772 231.633 131.239 231.3C130.706 230.953 130.099 230.78 129.419 230.78C128.739 230.78 128.126 230.947 127.579 231.28C127.046 231.613 126.619 232.073 126.299 232.66C125.992 233.233 125.839 233.887 125.839 234.62C125.839 235.34 125.992 235.993 126.299 236.58C126.619 237.153 127.046 237.607 127.579 237.94C128.126 238.273 128.739 238.44 129.419 238.44ZM142.318 240.24C141.278 240.24 140.351 239.993 139.538 239.5C138.725 239.007 138.085 238.333 137.618 237.48C137.151 236.613 136.918 235.647 136.918 234.58C136.918 233.5 137.145 232.54 137.598 231.7C138.065 230.86 138.691 230.2 139.478 229.72C140.278 229.227 141.171 228.98 142.158 228.98C142.958 228.98 143.665 229.127 144.278 229.42C144.905 229.7 145.431 230.087 145.858 230.58C146.298 231.06 146.631 231.613 146.858 232.24C147.098 232.853 147.218 233.493 147.218 234.16C147.218 234.307 147.205 234.473 147.178 234.66C147.165 234.833 147.145 235 147.118 235.16H138.278V233.56H146.038L145.158 234.28C145.278 233.587 145.211 232.967 144.958 232.42C144.705 231.873 144.331 231.44 143.838 231.12C143.345 230.8 142.785 230.64 142.158 230.64C141.531 230.64 140.958 230.8 140.438 231.12C139.918 231.44 139.511 231.9 139.218 232.5C138.938 233.087 138.825 233.787 138.878 234.6C138.825 235.387 138.945 236.08 139.238 236.68C139.545 237.267 139.971 237.727 140.518 238.06C141.078 238.38 141.685 238.54 142.338 238.54C143.058 238.54 143.665 238.373 144.158 238.04C144.651 237.707 145.051 237.28 145.358 236.76L146.918 237.56C146.705 238.053 146.371 238.507 145.918 238.92C145.478 239.32 144.951 239.64 144.338 239.88C143.738 240.12 143.065 240.24 142.318 240.24ZM149.643 240V224.86H151.503V240H149.643ZM154.389 240V229.22H156.249V240H154.389ZM154.389 227.5V225.1H156.249V227.5H154.389ZM164.255 240.24C163.215 240.24 162.275 240 161.435 239.52C160.595 239.027 159.929 238.353 159.435 237.5C158.942 236.647 158.695 235.68 158.695 234.6C158.695 233.52 158.935 232.56 159.415 231.72C159.909 230.88 160.575 230.213 161.415 229.72C162.255 229.227 163.202 228.98 164.255 228.98C165.295 228.98 166.235 229.227 167.075 229.72C167.915 230.2 168.575 230.86 169.055 231.7C169.549 232.54 169.795 233.507 169.795 234.6C169.795 235.693 169.542 236.667 169.035 237.52C168.529 238.36 167.855 239.027 167.015 239.52C166.189 240 165.269 240.24 164.255 240.24ZM164.255 238.44C164.922 238.44 165.522 238.273 166.055 237.94C166.602 237.607 167.029 237.147 167.335 236.56C167.655 235.973 167.815 235.32 167.815 234.6C167.815 233.867 167.655 233.22 167.335 232.66C167.029 232.087 166.602 231.633 166.055 231.3C165.522 230.953 164.922 230.78 164.255 230.78C163.575 230.78 162.962 230.953 162.415 231.3C161.882 231.633 161.455 232.087 161.135 232.66C160.815 233.22 160.655 233.867 160.655 234.6C160.655 235.32 160.815 235.973 161.135 236.56C161.455 237.147 161.882 237.607 162.415 237.94C162.962 238.273 163.575 238.44 164.255 238.44ZM163.315 227.2L164.895 224.04H167.415L165.175 227.2H163.315ZM172.221 240V229.22H174.041V231.32L173.741 231.14C174.008 230.46 174.435 229.933 175.021 229.56C175.621 229.173 176.321 228.98 177.121 228.98C177.895 228.98 178.581 229.153 179.181 229.5C179.795 229.847 180.275 230.327 180.621 230.94C180.981 231.553 181.161 232.247 181.161 233.02V240H179.281V233.62C179.281 233.02 179.175 232.513 178.961 232.1C178.748 231.687 178.441 231.367 178.041 231.14C177.655 230.9 177.208 230.78 176.701 230.78C176.195 230.78 175.741 230.9 175.341 231.14C174.955 231.367 174.648 231.693 174.421 232.12C174.195 232.533 174.081 233.033 174.081 233.62V240H172.221ZM192.4 240.24C191.36 240.24 190.42 240 189.58 239.52C188.74 239.027 188.073 238.353 187.58 237.5C187.087 236.647 186.84 235.68 186.84 234.6C186.84 233.52 187.08 232.56 187.56 231.72C188.053 230.88 188.72 230.213 189.56 229.72C190.4 229.227 191.347 228.98 192.4 228.98C193.44 228.98 194.38 229.227 195.22 229.72C196.06 230.2 196.72 230.86 197.2 231.7C197.693 232.54 197.94 233.507 197.94 234.6C197.94 235.693 197.687 236.667 197.18 237.52C196.673 238.36 196 239.027 195.16 239.52C194.333 240 193.413 240.24 192.4 240.24ZM192.4 238.44C193.067 238.44 193.667 238.273 194.2 237.94C194.747 237.607 195.173 237.147 195.48 236.56C195.8 235.973 195.96 235.32 195.96 234.6C195.96 233.867 195.8 233.22 195.48 232.66C195.173 232.087 194.747 231.633 194.2 231.3C193.667 230.953 193.067 230.78 192.4 230.78C191.72 230.78 191.107 230.953 190.56 231.3C190.027 231.633 189.6 232.087 189.28 232.66C188.96 233.22 188.8 233.867 188.8 234.6C188.8 235.32 188.96 235.973 189.28 236.56C189.6 237.147 190.027 237.607 190.56 237.94C191.107 238.273 191.72 238.44 192.4 238.44ZM206.983 240.24C206.276 240.24 205.649 240.113 205.103 239.86C204.569 239.593 204.149 239.233 203.843 238.78C203.536 238.313 203.383 237.78 203.383 237.18C203.383 236.607 203.503 236.093 203.743 235.64C203.996 235.173 204.383 234.78 204.903 234.46C205.436 234.14 206.103 233.913 206.903 233.78L210.903 233.12V234.68L207.323 235.28C206.629 235.4 206.123 235.62 205.803 235.94C205.496 236.26 205.343 236.653 205.343 237.12C205.343 237.56 205.516 237.927 205.863 238.22C206.223 238.513 206.669 238.66 207.203 238.66C207.883 238.66 208.469 238.52 208.963 238.24C209.469 237.947 209.863 237.553 210.143 237.06C210.436 236.567 210.583 236.02 210.583 235.42V232.68C210.583 232.093 210.363 231.62 209.923 231.26C209.496 230.887 208.929 230.7 208.223 230.7C207.609 230.7 207.063 230.86 206.583 231.18C206.116 231.487 205.769 231.9 205.543 232.42L203.923 231.58C204.123 231.087 204.443 230.647 204.883 230.26C205.323 229.86 205.836 229.547 206.423 229.32C207.009 229.093 207.623 228.98 208.263 228.98C209.089 228.98 209.816 229.14 210.443 229.46C211.069 229.767 211.556 230.2 211.903 230.76C212.263 231.307 212.443 231.947 212.443 232.68V240H210.623V237.96L210.963 238.08C210.736 238.507 210.429 238.88 210.043 239.2C209.656 239.52 209.203 239.773 208.683 239.96C208.163 240.147 207.596 240.24 206.983 240.24ZM223.684 240.24C222.67 240.24 221.757 239.993 220.944 239.5C220.144 239.007 219.51 238.333 219.044 237.48C218.577 236.627 218.344 235.673 218.344 234.62C218.344 233.54 218.577 232.58 219.044 231.74C219.51 230.887 220.144 230.213 220.944 229.72C221.757 229.227 222.67 228.98 223.684 228.98C224.577 228.98 225.37 229.173 226.064 229.56C226.757 229.933 227.304 230.44 227.704 231.08L227.404 231.54V224.86H229.284V240H227.464V237.7L227.704 238.02C227.33 238.727 226.784 239.273 226.064 239.66C225.357 240.047 224.564 240.24 223.684 240.24ZM223.844 238.44C224.524 238.44 225.13 238.273 225.664 237.94C226.197 237.607 226.617 237.153 226.924 236.58C227.244 235.993 227.404 235.34 227.404 234.62C227.404 233.887 227.244 233.233 226.924 232.66C226.617 232.073 226.197 231.613 225.664 231.28C225.13 230.947 224.524 230.78 223.844 230.78C223.177 230.78 222.57 230.953 222.024 231.3C221.49 231.633 221.07 232.087 220.764 232.66C220.457 233.22 220.304 233.873 220.304 234.62C220.304 235.34 220.457 235.993 220.764 236.58C221.07 237.153 221.49 237.607 222.024 237.94C222.557 238.273 223.164 238.44 223.844 238.44ZM237.123 240.24C236.083 240.24 235.156 239.993 234.343 239.5C233.529 239.007 232.889 238.333 232.423 237.48C231.956 236.613 231.723 235.647 231.723 234.58C231.723 233.5 231.949 232.54 232.403 231.7C232.869 230.86 233.496 230.2 234.283 229.72C235.083 229.227 235.976 228.98 236.963 228.98C237.763 228.98 238.469 229.127 239.083 229.42C239.709 229.7 240.236 230.087 240.663 230.58C241.103 231.06 241.436 231.613 241.663 232.24C241.903 232.853 242.023 233.493 242.023 234.16C242.023 234.307 242.009 234.473 241.983 234.66C241.969 234.833 241.949 235 241.923 235.16H233.083V233.56H240.843L239.963 234.28C240.083 233.587 240.016 232.967 239.763 232.42C239.509 231.873 239.136 231.44 238.643 231.12C238.149 230.8 237.589 230.64 236.963 230.64C236.336 230.64 235.763 230.8 235.243 231.12C234.723 231.44 234.316 231.9 234.023 232.5C233.743 233.087 233.629 233.787 233.683 234.6C233.629 235.387 233.749 236.08 234.043 236.68C234.349 237.267 234.776 237.727 235.323 238.06C235.883 238.38 236.489 238.54 237.143 238.54C237.863 238.54 238.469 238.373 238.963 238.04C239.456 237.707 239.856 237.28 240.163 236.76L241.723 237.56C241.509 238.053 241.176 238.507 240.723 238.92C240.283 239.32 239.756 239.64 239.143 239.88C238.543 240.12 237.869 240.24 237.123 240.24ZM245.588 240V231H243.528V229.22H245.588V228.46C245.588 227.687 245.754 227.033 246.088 226.5C246.434 225.967 246.888 225.56 247.448 225.28C248.021 225 248.654 224.86 249.348 224.86C249.494 224.86 249.654 224.873 249.828 224.9C250.014 224.913 250.168 224.933 250.288 224.96V226.62C250.181 226.593 250.054 226.58 249.908 226.58C249.761 226.567 249.648 226.56 249.568 226.56C248.954 226.56 248.448 226.707 248.048 227C247.661 227.293 247.468 227.78 247.468 228.46V229.22H250.028V231H247.468V240H245.588ZM256.849 240.24C255.809 240.24 254.883 239.993 254.069 239.5C253.256 239.007 252.616 238.333 252.149 237.48C251.683 236.613 251.449 235.647 251.449 234.58C251.449 233.5 251.676 232.54 252.129 231.7C252.596 230.86 253.223 230.2 254.009 229.72C254.809 229.227 255.703 228.98 256.689 228.98C257.489 228.98 258.196 229.127 258.809 229.42C259.436 229.7 259.963 230.087 260.389 230.58C260.829 231.06 261.163 231.613 261.389 232.24C261.629 232.853 261.749 233.493 261.749 234.16C261.749 234.307 261.736 234.473 261.709 234.66C261.696 234.833 261.676 235 261.649 235.16H252.809V233.56H260.569L259.689 234.28C259.809 233.587 259.743 232.967 259.489 232.42C259.236 231.873 258.863 231.44 258.369 231.12C257.876 230.8 257.316 230.64 256.689 230.64C256.063 230.64 255.489 230.8 254.969 231.12C254.449 231.44 254.043 231.9 253.749 232.5C253.469 233.087 253.356 233.787 253.409 234.6C253.356 235.387 253.476 236.08 253.769 236.68C254.076 237.267 254.503 237.727 255.049 238.06C255.609 238.38 256.216 238.54 256.869 238.54C257.589 238.54 258.196 238.373 258.689 238.04C259.183 237.707 259.583 237.28 259.889 236.76L261.449 237.56C261.236 238.053 260.903 238.507 260.449 238.92C260.009 239.32 259.483 239.64 258.869 239.88C258.269 240.12 257.596 240.24 256.849 240.24ZM264.174 240V229.22H265.994V231.32L265.694 231.14C265.961 230.46 266.388 229.933 266.974 229.56C267.574 229.173 268.274 228.98 269.074 228.98C269.848 228.98 270.534 229.153 271.134 229.5C271.748 229.847 272.228 230.327 272.574 230.94C272.934 231.553 273.114 232.247 273.114 233.02V240H271.234V233.62C271.234 233.02 271.128 232.513 270.914 232.1C270.701 231.687 270.394 231.367 269.994 231.14C269.608 230.9 269.161 230.78 268.654 230.78C268.148 230.78 267.694 230.9 267.294 231.14C266.908 231.367 266.601 231.693 266.374 232.12C266.148 232.533 266.034 233.033 266.034 233.62V240H264.174ZM280.676 240.24C279.663 240.24 278.749 239.993 277.936 239.5C277.136 239.007 276.503 238.333 276.036 237.48C275.569 236.627 275.336 235.673 275.336 234.62C275.336 233.54 275.569 232.58 276.036 231.74C276.503 230.887 277.136 230.213 277.936 229.72C278.749 229.227 279.663 228.98 280.676 228.98C281.569 228.98 282.363 229.173 283.056 229.56C283.749 229.933 284.296 230.44 284.696 231.08L284.396 231.54V224.86H286.276V240H284.456V237.7L284.696 238.02C284.323 238.727 283.776 239.273 283.056 239.66C282.349 240.047 281.556 240.24 280.676 240.24ZM280.836 238.44C281.516 238.44 282.123 238.273 282.656 237.94C283.189 237.607 283.609 237.153 283.916 236.58C284.236 235.993 284.396 235.34 284.396 234.62C284.396 233.887 284.236 233.233 283.916 232.66C283.609 232.073 283.189 231.613 282.656 231.28C282.123 230.947 281.516 230.78 280.836 230.78C280.169 230.78 279.563 230.953 279.016 231.3C278.483 231.633 278.063 232.087 277.756 232.66C277.449 233.22 277.296 233.873 277.296 234.62C277.296 235.34 277.449 235.993 277.756 236.58C278.063 237.153 278.483 237.607 279.016 237.94C279.549 238.273 280.156 238.44 280.836 238.44ZM294.115 240.24C293.075 240.24 292.148 239.993 291.335 239.5C290.522 239.007 289.882 238.333 289.415 237.48C288.948 236.613 288.715 235.647 288.715 234.58C288.715 233.5 288.942 232.54 289.395 231.7C289.862 230.86 290.488 230.2 291.275 229.72C292.075 229.227 292.968 228.98 293.955 228.98C294.755 228.98 295.462 229.127 296.075 229.42C296.702 229.7 297.228 230.087 297.655 230.58C298.095 231.06 298.428 231.613 298.655 232.24C298.895 232.853 299.015 233.493 299.015 234.16C299.015 234.307 299.002 234.473 298.975 234.66C298.962 234.833 298.942 235 298.915 235.16H290.075V233.56H297.835L296.955 234.28C297.075 233.587 297.008 232.967 296.755 232.42C296.502 231.873 296.128 231.44 295.635 231.12C295.142 230.8 294.582 230.64 293.955 230.64C293.328 230.64 292.755 230.8 292.235 231.12C291.715 231.44 291.308 231.9 291.015 232.5C290.735 233.087 290.622 233.787 290.675 234.6C290.622 235.387 290.742 236.08 291.035 236.68C291.342 237.267 291.768 237.727 292.315 238.06C292.875 238.38 293.482 238.54 294.135 238.54C294.855 238.54 295.462 238.373 295.955 238.04C296.448 237.707 296.848 237.28 297.155 236.76L298.715 237.56C298.502 238.053 298.168 238.507 297.715 238.92C297.275 239.32 296.748 239.64 296.135 239.88C295.535 240.12 294.862 240.24 294.115 240.24ZM301.44 240V229.22H303.26V231.2L303.06 230.92C303.313 230.307 303.7 229.853 304.22 229.56C304.74 229.253 305.373 229.1 306.12 229.1H306.78V230.86H305.84C305.08 230.86 304.467 231.1 304 231.58C303.533 232.047 303.3 232.713 303.3 233.58V240H301.44ZM320.306 240.24C319.266 240.24 318.34 239.993 317.526 239.5C316.713 239.007 316.073 238.333 315.606 237.48C315.14 236.613 314.906 235.647 314.906 234.58C314.906 233.5 315.133 232.54 315.586 231.7C316.053 230.86 316.68 230.2 317.466 229.72C318.266 229.227 319.16 228.98 320.146 228.98C320.946 228.98 321.653 229.127 322.266 229.42C322.893 229.7 323.42 230.087 323.846 230.58C324.286 231.06 324.62 231.613 324.846 232.24C325.086 232.853 325.206 233.493 325.206 234.16C325.206 234.307 325.193 234.473 325.166 234.66C325.153 234.833 325.133 235 325.106 235.16H316.266V233.56H324.026L323.146 234.28C323.266 233.587 323.2 232.967 322.946 232.42C322.693 231.873 322.32 231.44 321.826 231.12C321.333 230.8 320.773 230.64 320.146 230.64C319.52 230.64 318.946 230.8 318.426 231.12C317.906 231.44 317.5 231.9 317.206 232.5C316.926 233.087 316.813 233.787 316.866 234.6C316.813 235.387 316.933 236.08 317.226 236.68C317.533 237.267 317.96 237.727 318.506 238.06C319.066 238.38 319.673 238.54 320.326 238.54C321.046 238.54 321.653 238.373 322.146 238.04C322.64 237.707 323.04 237.28 323.346 236.76L324.906 237.56C324.693 238.053 324.36 238.507 323.906 238.92C323.466 239.32 322.94 239.64 322.326 239.88C321.726 240.12 321.053 240.24 320.306 240.24ZM327.631 240V224.86H329.491V240H327.631ZM336.055 240V225.1H338.015V240H336.055ZM341.108 240V229.22H342.928V231.42L342.668 231.08C342.935 230.4 343.361 229.88 343.948 229.52C344.535 229.16 345.195 228.98 345.928 228.98C346.768 228.98 347.521 229.213 348.188 229.68C348.868 230.147 349.335 230.76 349.588 231.52L349.068 231.54C349.348 230.7 349.821 230.067 350.488 229.64C351.155 229.2 351.895 228.98 352.708 228.98C353.455 228.98 354.128 229.153 354.728 229.5C355.341 229.847 355.828 230.327 356.188 230.94C356.548 231.553 356.728 232.247 356.728 233.02V240H354.848V233.62C354.848 233.02 354.741 232.513 354.528 232.1C354.315 231.687 354.021 231.367 353.648 231.14C353.288 230.9 352.861 230.78 352.368 230.78C351.888 230.78 351.455 230.9 351.068 231.14C350.695 231.367 350.395 231.693 350.168 232.12C349.955 232.533 349.848 233.033 349.848 233.62V240H347.968V233.62C347.968 233.02 347.861 232.513 347.648 232.1C347.435 231.687 347.141 231.367 346.768 231.14C346.408 230.9 345.981 230.78 345.488 230.78C345.008 230.78 344.575 230.9 344.188 231.14C343.815 231.367 343.515 231.693 343.288 232.12C343.075 232.533 342.968 233.033 342.968 233.62V240H341.108ZM359.37 244V229.22H361.19V231.54L360.95 231.08C361.35 230.44 361.896 229.933 362.59 229.56C363.283 229.173 364.076 228.98 364.97 228.98C365.983 228.98 366.89 229.227 367.69 229.72C368.503 230.213 369.143 230.887 369.61 231.74C370.076 232.58 370.31 233.54 370.31 234.62C370.31 235.673 370.076 236.627 369.61 237.48C369.143 238.333 368.503 239.007 367.69 239.5C366.89 239.993 365.976 240.24 364.95 240.24C364.083 240.24 363.29 240.047 362.57 239.66C361.863 239.273 361.316 238.727 360.93 238.02L361.23 237.7V244H359.37ZM364.81 238.44C365.49 238.44 366.096 238.273 366.63 237.94C367.163 237.607 367.576 237.153 367.87 236.58C368.176 235.993 368.33 235.34 368.33 234.62C368.33 233.873 368.176 233.22 367.87 232.66C367.576 232.087 367.163 231.633 366.63 231.3C366.096 230.953 365.49 230.78 364.81 230.78C364.13 230.78 363.516 230.947 362.97 231.28C362.436 231.613 362.01 232.073 361.69 232.66C361.383 233.233 361.23 233.887 361.23 234.62C361.23 235.34 361.383 235.993 361.69 236.58C362.01 237.153 362.436 237.607 362.97 237.94C363.516 238.273 364.13 238.44 364.81 238.44ZM377.709 240.24C376.669 240.24 375.742 239.993 374.929 239.5C374.115 239.007 373.475 238.333 373.009 237.48C372.542 236.613 372.309 235.647 372.309 234.58C372.309 233.5 372.535 232.54 372.989 231.7C373.455 230.86 374.082 230.2 374.869 229.72C375.669 229.227 376.562 228.98 377.549 228.98C378.349 228.98 379.055 229.127 379.669 229.42C380.295 229.7 380.822 230.087 381.249 230.58C381.689 231.06 382.022 231.613 382.249 232.24C382.489 232.853 382.609 233.493 382.609 234.16C382.609 234.307 382.595 234.473 382.569 234.66C382.555 234.833 382.535 235 382.509 235.16H373.669V233.56H381.429L380.549 234.28C380.669 233.587 380.602 232.967 380.349 232.42C380.095 231.873 379.722 231.44 379.229 231.12C378.735 230.8 378.175 230.64 377.549 230.64C376.922 230.64 376.349 230.8 375.829 231.12C375.309 231.44 374.902 231.9 374.609 232.5C374.329 233.087 374.215 233.787 374.269 234.6C374.215 235.387 374.335 236.08 374.629 236.68C374.935 237.267 375.362 237.727 375.909 238.06C376.469 238.38 377.075 238.54 377.729 238.54C378.449 238.54 379.055 238.373 379.549 238.04C380.042 237.707 380.442 237.28 380.749 236.76L382.309 237.56C382.095 238.053 381.762 238.507 381.309 238.92C380.869 239.32 380.342 239.64 379.729 239.88C379.129 240.12 378.455 240.24 377.709 240.24ZM385.034 240V229.22H386.854V231.2L386.654 230.92C386.907 230.307 387.294 229.853 387.814 229.56C388.334 229.253 388.967 229.1 389.714 229.1H390.374V230.86H389.434C388.674 230.86 388.06 231.1 387.594 231.58C387.127 232.047 386.894 232.713 386.894 233.58V240H385.034ZM392.026 240V229.22H393.886V240H392.026ZM392.026 227.5V225.1H393.886V227.5H392.026ZM401.892 240.24C400.852 240.24 399.912 240 399.072 239.52C398.232 239.027 397.565 238.353 397.072 237.5C396.579 236.647 396.332 235.68 396.332 234.6C396.332 233.52 396.572 232.56 397.052 231.72C397.545 230.88 398.212 230.213 399.052 229.72C399.892 229.227 400.839 228.98 401.892 228.98C402.932 228.98 403.872 229.227 404.712 229.72C405.552 230.2 406.212 230.86 406.692 231.7C407.185 232.54 407.432 233.507 407.432 234.6C407.432 235.693 407.179 236.667 406.672 237.52C406.165 238.36 405.492 239.027 404.652 239.52C403.825 240 402.905 240.24 401.892 240.24ZM401.892 238.44C402.559 238.44 403.159 238.273 403.692 237.94C404.239 237.607 404.665 237.147 404.972 236.56C405.292 235.973 405.452 235.32 405.452 234.6C405.452 233.867 405.292 233.22 404.972 232.66C404.665 232.087 404.239 231.633 403.692 231.3C403.159 230.953 402.559 230.78 401.892 230.78C401.212 230.78 400.599 230.953 400.052 231.3C399.519 231.633 399.092 232.087 398.772 232.66C398.452 233.22 398.292 233.867 398.292 234.6C398.292 235.32 398.452 235.973 398.772 236.56C399.092 237.147 399.519 237.607 400.052 237.94C400.599 238.273 401.212 238.44 401.892 238.44ZM412.058 235.64V235.38C412.058 234.78 412.158 234.253 412.358 233.8C412.571 233.333 412.831 232.92 413.138 232.56C413.458 232.187 413.791 231.84 414.138 231.52C414.605 231.053 415.025 230.6 415.398 230.16C415.785 229.72 415.978 229.2 415.978 228.6C415.978 228.253 415.891 227.927 415.718 227.62C415.545 227.313 415.285 227.067 414.938 226.88C414.605 226.693 414.191 226.6 413.698 226.6C413.018 226.6 412.431 226.813 411.938 227.24C411.445 227.667 411.138 228.233 411.018 228.94L409.258 228.54C409.378 227.807 409.638 227.167 410.038 226.62C410.451 226.06 410.971 225.627 411.598 225.32C412.238 225.013 412.945 224.86 413.718 224.86C414.585 224.86 415.331 225.04 415.958 225.4C416.598 225.747 417.091 226.2 417.438 226.76C417.785 227.32 417.958 227.927 417.958 228.58C417.958 229.167 417.838 229.687 417.598 230.14C417.358 230.58 417.051 230.987 416.678 231.36C416.318 231.733 415.958 232.107 415.598 232.48C415.158 232.907 414.771 233.353 414.438 233.82C414.118 234.273 413.958 234.807 413.958 235.42V235.64H412.058ZM412.078 240V237.6H414.018V240H412.078Z" fill="#FBFBFB"/>
</svg>
