<svg width="296" height="302" viewBox="0 0 296 302" fill="none" xmlns="http://www.w3.org/2000/svg">
<path d="M0.333333 3C0.333333 4.47276 1.52724 5.66667 3 5.66667C4.47276 5.66667 5.66667 4.47276 5.66667 3C5.66667 1.52724 4.47276 0.333333 3 0.333333C1.52724 0.333333 0.333333 1.52724 0.333333 3ZM3 299H2.5V299.5H3V299ZM290.333 299C290.333 300.473 291.527 301.667 293 301.667C294.473 301.667 295.667 300.473 295.667 299C295.667 297.527 294.473 296.333 293 296.333C291.527 296.333 290.333 297.527 290.333 299ZM2.5 3V299H3.5V3H2.5ZM3 299.5H293V298.5H3V299.5Z" fill="white"/>
</svg>
