<svg width="20" height="21" viewBox="0 0 20 21" fill="none" xmlns="http://www.w3.org/2000/svg">
<path d="M10 2.33105C8.39303 2.33105 6.82214 2.80758 5.486 3.70036C4.14985 4.59315 3.10844 5.8621 2.49348 7.34675C1.87852 8.8314 1.71762 10.4651 2.03112 12.0412C2.34463 13.6173 3.11846 15.065 4.25476 16.2013C5.39106 17.3376 6.8388 18.1114 8.41489 18.4249C9.99099 18.7384 11.6247 18.5775 13.1093 17.9626C14.594 17.3476 15.8629 16.3062 16.7557 14.9701C17.6485 13.6339 18.125 12.063 18.125 10.4561C18.1225 8.30193 17.2657 6.23675 15.7425 4.71355C14.2193 3.19036 12.1541 2.33354 10 2.33105ZM16.875 10.4561C16.8755 11.0901 16.788 11.7211 16.6148 12.3311H13.6063C13.7979 11.0884 13.7979 9.82371 13.6063 8.58105H16.6148C16.788 9.19099 16.8755 9.82202 16.875 10.4561ZM7.96875 13.5811H12.0313C11.631 14.8925 10.9362 16.095 10 17.0967C9.06413 16.0947 8.36939 14.8923 7.96875 13.5811ZM7.66407 12.3311C7.44949 11.0903 7.44949 9.82185 7.66407 8.58105H12.3422C12.5568 9.82185 12.5568 11.0903 12.3422 12.3311H7.66407ZM3.125 10.4561C3.12446 9.82202 3.21202 9.19099 3.38516 8.58105H6.39375C6.20208 9.82371 6.20208 11.0884 6.39375 12.3311H3.38516C3.21202 11.7211 3.12446 11.0901 3.125 10.4561ZM12.0313 7.33105H7.96875C8.36898 6.01966 9.06377 4.81713 10 3.81543C10.9359 4.8174 11.6306 6.01983 12.0313 7.33105ZM16.1195 7.33105H13.3367C12.986 6.04426 12.3948 4.83549 11.5945 3.76855C12.5615 4.00084 13.4668 4.43947 14.2484 5.05438C15.0299 5.66929 15.6693 6.44592 16.1227 7.33105H16.1195ZM8.40547 3.76855C7.60516 4.83549 7.01403 6.04426 6.66328 7.33105H3.87735C4.33068 6.44592 4.97006 5.66929 5.75163 5.05438C6.53321 4.43947 7.43851 4.00084 8.40547 3.76855ZM3.87735 13.5811H6.66328C7.01403 14.8678 7.60516 16.0766 8.40547 17.1436C7.43851 16.9113 6.53321 16.4726 5.75163 15.8577C4.97006 15.2428 4.33068 14.4662 3.87735 13.5811ZM11.5945 17.1436C12.3948 16.0766 12.986 14.8678 13.3367 13.5811H16.1227C15.6693 14.4662 15.0299 15.2428 14.2484 15.8577C13.4668 16.4726 12.5615 16.9113 11.5945 17.1436Z" fill="#FBFBFB"/>
</svg>
