<svg width="20" height="21" viewBox="0 0 20 21" fill="none" xmlns="http://www.w3.org/2000/svg">
<path d="M16.7773 16.9959L11.8867 9.30996L16.7125 4.00137C16.8216 3.87834 16.8779 3.71725 16.869 3.55303C16.8602 3.3888 16.787 3.23468 16.6653 3.12407C16.5436 3.01346 16.3832 2.95528 16.2188 2.96215C16.0545 2.96901 15.8995 3.04037 15.7875 3.16074L11.1906 8.21699L8.02732 3.2459C7.97091 3.15711 7.89301 3.084 7.80082 3.03333C7.70864 2.98267 7.60516 2.95609 7.49997 2.95605H3.74997C3.63791 2.956 3.5279 2.98608 3.43145 3.04313C3.335 3.10019 3.25567 3.18213 3.20175 3.28037C3.14784 3.37861 3.12133 3.48954 3.12501 3.60154C3.12868 3.71354 3.1624 3.82249 3.22263 3.91699L8.11326 11.6021L3.28747 16.9146C3.23112 16.9752 3.18734 17.0463 3.15868 17.1239C3.13001 17.2015 3.11703 17.284 3.12048 17.3666C3.12393 17.4492 3.14375 17.5304 3.17879 17.6053C3.21383 17.6802 3.26338 17.7474 3.32459 17.803C3.3858 17.8587 3.45744 17.9016 3.53536 17.9293C3.61327 17.9571 3.69592 17.969 3.77851 17.9646C3.8611 17.9602 3.94198 17.9394 4.01647 17.9034C4.09097 17.8675 4.15759 17.8171 4.21247 17.7553L8.80935 12.699L11.9726 17.6701C12.0295 17.7582 12.1076 17.8305 12.1998 17.8805C12.2919 17.9305 12.3951 17.9564 12.5 17.9561H16.25C16.3619 17.956 16.4718 17.9259 16.5681 17.8689C16.6645 17.8119 16.7437 17.73 16.7976 17.6319C16.8515 17.5338 16.878 17.423 16.8745 17.3111C16.8709 17.1993 16.8373 17.0904 16.7773 16.9959ZM12.8429 16.7061L4.88826 4.20605H7.15388L15.1117 16.7061H12.8429Z" fill="#FBFBFB"/>
</svg>
