<svg width="172" height="64" viewBox="0 0 172 64" fill="none" xmlns="http://www.w3.org/2000/svg">
<g filter="url(#filter0_d_154_820)">
<path d="M53.8891 16L41.0891 38V48H29.0891V38L16.2891 16H29.8891L35.0891 25.4L40.2891 16H53.8891ZM84.1797 32C84.1797 36.48 82.4464 40.2933 78.9797 43.44C75.6464 46.48 71.713 48 67.1797 48C62.6464 48 58.713 46.48 55.3797 43.44C51.913 40.2933 50.1797 36.48 50.1797 32C50.1797 27.52 51.913 23.7067 55.3797 20.56C58.713 17.52 62.6464 16 67.1797 16C71.713 16 75.6464 17.52 78.9797 20.56C82.4464 23.7067 84.1797 27.52 84.1797 32ZM73.3797 32C73.3797 30.3733 72.753 28.9733 71.4997 27.8C70.2464 26.6 68.8064 26 67.1797 26C65.5264 26 64.073 26.6 62.8197 27.8C61.593 28.9733 60.9797 30.3733 60.9797 32C60.9797 33.6267 61.593 35.04 62.8197 36.24C64.073 37.4133 65.5264 38 67.1797 38C68.833 38 70.273 37.4133 71.4997 36.24C72.753 35.04 73.3797 33.6267 73.3797 32ZM120.18 32C120.18 36.48 118.446 40.2933 114.98 43.44C111.646 46.48 107.713 48 103.18 48H86.1797V16H103.18C107.713 16 111.646 17.52 114.98 20.56C118.446 23.7067 120.18 27.52 120.18 32ZM109.38 32C109.38 30.3733 108.753 28.9733 107.5 27.8C106.246 26.6 104.806 26 103.18 26H97.3797V38H103.18C104.833 38 106.273 37.4133 107.5 36.24C108.753 35.04 109.38 33.6267 109.38 32ZM155.695 48H143.295L142.255 44H133.135L132.095 48H119.695L128.095 16H147.295L155.695 48ZM140.135 36L137.695 26.68L135.255 36H140.135Z" fill="#FBFBFB"/>
</g>
<defs>
<filter id="filter0_d_154_820" x="0.289062" y="0" width="171.406" height="64" filterUnits="userSpaceOnUse" color-interpolation-filters="sRGB">
<feFlood flood-opacity="0" result="BackgroundImageFix"/>
<feColorMatrix in="SourceAlpha" type="matrix" values="0 0 0 0 0 0 0 0 0 0 0 0 0 0 0 0 0 0 127 0" result="hardAlpha"/>
<feOffset/>
<feGaussianBlur stdDeviation="8"/>
<feComposite in2="hardAlpha" operator="out"/>
<feColorMatrix type="matrix" values="0 0 0 0 0.498039 0 0 0 0 0.745098 0 0 0 0 0.796078 0 0 0 1 0"/>
<feBlend mode="normal" in2="BackgroundImageFix" result="effect1_dropShadow_154_820"/>
<feBlend mode="normal" in="SourceGraphic" in2="effect1_dropShadow_154_820" result="shape"/>
</filter>
</defs>
</svg>
